<svg width="15" height="10" viewBox="0 0 15 10" fill="none" xmlns="http://www.w3.org/2000/svg">
<path d="M9.3335 3.66667L12.3688 2.14933C12.4704 2.09856 12.5833 2.07459 12.6968 2.0797C12.8103 2.08481 12.9206 2.11883 13.0172 2.17854C13.1139 2.23824 13.1937 2.32165 13.249 2.42085C13.3044 2.52004 13.3334 2.63174 13.3335 2.74533V7.25467C13.3334 7.36826 13.3044 7.47996 13.249 7.57915C13.1937 7.67835 13.1139 7.76176 13.0172 7.82146C12.9206 7.88117 12.8103 7.91519 12.6968 7.9203C12.5833 7.92541 12.4704 7.90144 12.3688 7.85067L9.3335 6.33333V3.66667ZM2.66683 9H8.00016C8.35378 9 8.69292 8.85952 8.94297 8.60948C9.19302 8.35943 9.3335 8.02029 9.3335 7.66667V2.33333C9.3335 1.97971 9.19302 1.64057 8.94297 1.39052C8.69292 1.14048 8.35378 1 8.00016 1H2.66683C2.31321 1 1.97407 1.14048 1.72402 1.39052C1.47397 1.64057 1.3335 1.97971 1.3335 2.33333V7.66667C1.3335 8.02029 1.47397 8.35943 1.72402 8.60948C1.97407 8.85952 2.31321 9 2.66683 9Z" stroke="#4A7755" stroke-width="2" stroke-linecap="round" stroke-linejoin="round"/>
</svg>
