<svg width="30" height="30" viewBox="0 0 30 30" fill="none" xmlns="http://www.w3.org/2000/svg">
<path d="M15 30C17.9667 30 20.8668 29.1203 23.3335 27.472C25.8003 25.8238 27.7229 23.4811 28.8582 20.7403C29.9935 17.9994 30.2906 14.9834 29.7118 12.0736C29.133 9.16393 27.7044 6.49119 25.6066 4.3934C23.5088 2.29562 20.8361 0.867006 17.9264 0.288227C15.0166 -0.290551 12.0006 0.00649929 9.25975 1.14181C6.51886 2.27713 4.17618 4.19971 2.52796 6.66645C0.879736 9.13319 1.90735e-06 12.0333 1.90735e-06 15C1.90735e-06 18.9783 1.58035 22.7936 4.3934 25.6066C7.20645 28.4196 11.0217 30 15 30ZM15 2.14286C17.5429 2.14286 20.0287 2.89692 22.143 4.30968C24.2574 5.72244 25.9053 7.73045 26.8784 10.0798C27.8516 12.4291 28.1062 15.0143 27.6101 17.5083C27.114 20.0023 25.8895 22.2933 24.0914 24.0914C22.2933 25.8895 20.0023 27.114 17.5083 27.6101C15.0143 28.1062 12.4291 27.8516 10.0798 26.8785C7.73045 25.9053 5.72244 24.2574 4.30968 22.143C2.89692 20.0287 2.14286 17.5429 2.14286 15C2.14286 11.5901 3.49744 8.31981 5.90863 5.90863C8.31981 3.49745 11.5901 2.14286 15 2.14286Z" fill="#4A7755"/>
<rect width="2" height="10" transform="matrix(-1 0 0 1 16 5)" fill="#C4C4C4"/>
<path d="M15 5V15.5L23.5 10.5" stroke="#4A7755" stroke-width="2"/>
</svg>
