<svg width="24" height="16" viewBox="0 0 24 16" fill="" xmlns="http://www.w3.org/2000/svg">
<path d="M23.7023 7.43118C22.9711 6.163 18.9495 -0.200778 12.1172 0.00487403C5.79917 0.164825 2.14314 5.71742 1.14916 7.43118C1.04888 7.60487 0.996094 7.80189 0.996094 8.00244C0.996094 8.20299 1.04888 8.40001 1.14916 8.57369C1.86894 9.81903 5.7192 16 12.4486 16H12.7342C19.0523 15.84 22.7197 10.2875 23.7023 8.57369C23.8026 8.40001 23.8554 8.20299 23.8554 8.00244C23.8554 7.80189 23.8026 7.60487 23.7023 7.43118ZM12.6771 13.715C7.75286 13.8292 4.54241 9.61337 3.537 8.00244C4.67951 6.163 7.66146 2.40414 12.2315 2.28989C17.1329 2.16422 20.3547 6.3915 21.3716 8.00244C20.1948 9.84188 17.2471 13.6007 12.6771 13.715Z" fill="white"/>
<path d="M12.4255 4.00342C11.6347 4.00342 10.8615 4.23794 10.2039 4.67733C9.54634 5.11673 9.03381 5.74125 8.73115 6.47193C8.42849 7.20261 8.3493 8.00664 8.5036 8.78232C8.65789 9.55801 9.03874 10.2705 9.59798 10.8298C10.1572 11.389 10.8697 11.7699 11.6454 11.9241C12.4211 12.0784 13.2251 11.9993 13.9558 11.6966C14.6865 11.3939 15.311 10.8814 15.7504 10.2238C16.1898 9.56621 16.4243 8.79308 16.4243 8.0022C16.4243 6.94166 16.003 5.92455 15.2531 5.17463C14.5032 4.42472 13.4861 4.00342 12.4255 4.00342ZM12.4255 9.71596C12.0866 9.71596 11.7553 9.61545 11.4734 9.42714C11.1916 9.23883 10.9719 8.97118 10.8422 8.65803C10.7125 8.34488 10.6786 8.0003 10.7447 7.66786C10.8108 7.33542 10.9741 7.03006 11.2137 6.79039C11.4534 6.55071 11.7588 6.38749 12.0912 6.32137C12.4236 6.25524 12.7682 6.28918 13.0814 6.41889C13.3945 6.5486 13.6622 6.76826 13.8505 7.05008C14.0388 7.33191 14.1393 7.66325 14.1393 8.0022C14.1393 8.45672 13.9587 8.89262 13.6374 9.21401C13.316 9.53541 12.8801 9.71596 12.4255 9.71596Z" fill="white"/>
</svg>
