<svg width="20" height="20" viewBox="0 0 20 20" fill="" xmlns="http://www.w3.org/2000/svg">
<g clip-path="url(#clip0)">
<path d="M19.7272 8.55016L10.6473 0.295703L10.5606 0.216836C10.501 0.162656 10.4355 0.118633 10.3663 0.0847657C10.3632 0.0832813 10.36 0.0821876 10.3569 0.0807032C10.1315 -0.02625 9.86853 -0.02625 9.64302 0.0807032C9.63993 0.0821485 9.63673 0.0832423 9.63365 0.0847657C9.56447 0.118633 9.499 0.162656 9.43939 0.216836L9.35388 0.294571L0.272785 8.55016C-0.0677615 8.85973 -0.0928786 9.38681 0.216731 9.72735C0.526301 10.0679 1.05337 10.093 1.39392 9.78341L1.66669 9.53544V19.1668C1.66669 19.6271 2.03978 20.0001 2.50001 20.0001H6.66669H13.3334H17.5C17.9602 20.0001 18.3333 19.6271 18.3333 19.1668V9.53544L18.6061 9.78341C18.9467 10.093 19.4737 10.0679 19.7833 9.72735C20.0929 9.38681 20.0678 8.85977 19.7272 8.55016ZM8.33333 18.3335V13.3335C8.33333 12.4129 9.07939 11.6668 10 11.6668C10.9206 11.6668 11.6667 12.4129 11.6667 13.3335V18.3335H8.33333ZM16.6667 18.3335H13.3334V13.3335C13.3334 11.4924 11.8411 10.0001 10 10.0001C8.15892 10.0001 6.66669 11.4924 6.66669 13.3335V18.3335H3.33333V8.02044L10 1.95969L16.6667 8.02044V18.3335Z" fill="white"/>
</g>
<defs>
<clipPath id="clip0">
<rect width="20" height="20" fill="white"/>
</clipPath>
</defs>
</svg>
