<svg width="20" height="20" viewBox="0 0 20 20" fill="" xmlns="http://www.w3.org/2000/svg">
<path d="M10 0C8.02219 0 6.08879 0.58649 4.4443 1.6853C2.79981 2.78412 1.51809 4.3459 0.761209 6.17317C0.00433286 8.00043 -0.193701 10.0111 0.192152 11.9509C0.578004 13.8907 1.53041 15.6725 2.92894 17.0711C4.32746 18.4696 6.10929 19.422 8.0491 19.8079C9.98891 20.1937 11.9996 19.9957 13.8268 19.2388C15.6541 18.4819 17.2159 17.2002 18.3147 15.5557C19.4135 13.9112 20 11.9778 20 10C19.997 7.34875 18.9425 4.80694 17.0678 2.93222C15.1931 1.0575 12.6513 0.00297764 10 0V0ZM10 18.3333C8.35183 18.3333 6.74066 17.8446 5.37025 16.9289C3.99984 16.0132 2.93174 14.7117 2.30101 13.189C1.67028 11.6663 1.50525 9.99076 1.82679 8.37425C2.14834 6.75774 2.94201 5.27288 4.10745 4.10744C5.27289 2.94201 6.75774 2.14833 8.37425 1.82679C9.99076 1.50525 11.6663 1.67027 13.189 2.301C14.7118 2.93173 16.0132 3.99984 16.9289 5.37025C17.8446 6.74066 18.3333 8.35182 18.3333 10C18.3308 12.2094 17.452 14.3275 15.8898 15.8898C14.3275 17.452 12.2094 18.3308 10 18.3333Z" fill="white"/>
<path d="M11.25 5.83325H8.33333C8.11232 5.83325 7.90036 5.92105 7.74408 6.07733C7.5878 6.23361 7.5 6.44557 7.5 6.66658V14.9999H9.16666V11.6666H11.25C12.0235 11.6666 12.7654 11.3593 13.3124 10.8123C13.8594 10.2653 14.1667 9.52346 14.1667 8.74992C14.1667 7.97637 13.8594 7.2345 13.3124 6.68752C12.7654 6.14054 12.0235 5.83325 11.25 5.83325ZM11.25 9.99992H9.16666V7.49992H11.25C11.5815 7.49992 11.8995 7.63161 12.1339 7.86603C12.3683 8.10045 12.5 8.4184 12.5 8.74992C12.5 9.08144 12.3683 9.39938 12.1339 9.6338C11.8995 9.86822 11.5815 9.99992 11.25 9.99992Z" fill="white"/>
</svg>
