<svg width="16" height="20" viewBox="0 0 16 20" fill="" xmlns="http://www.w3.org/2000/svg">
<path d="M8.28795 11.3929L8.29464 11.3616C8.42411 10.8281 8.58705 10.1629 8.45982 9.56027C8.375 9.08482 8.02455 8.89955 7.72545 8.88616C7.37277 8.87054 7.05804 9.07143 6.97991 9.36384C6.83259 9.89955 6.96428 10.6317 7.20536 11.5647C6.90178 12.2879 6.41741 13.3393 6.0625 13.9643C5.40179 14.3058 4.51562 14.8326 4.38393 15.4978C4.35714 15.6205 4.38839 15.7768 4.46205 15.9174C4.54464 16.0737 4.67634 16.1942 4.83036 16.2522C4.89732 16.2768 4.97768 16.2969 5.07143 16.2969C5.46429 16.2969 6.10045 15.9799 6.94866 14.5246C7.07812 14.4821 7.21205 14.4375 7.34152 14.3929C7.94866 14.1875 8.57812 13.9732 9.14732 13.8772C9.77678 14.2143 10.4933 14.4308 10.9799 14.4308C11.4621 14.4308 11.6518 14.1451 11.7232 13.9732C11.8482 13.6719 11.7879 13.2924 11.5848 13.0893C11.2902 12.7991 10.5737 12.7232 9.45759 12.8616C8.90848 12.5268 8.54911 12.0714 8.28795 11.3929ZM5.83929 14.7835C5.52902 15.2344 5.29464 15.4598 5.16741 15.558C5.31696 15.2835 5.60938 14.9933 5.83929 14.7835ZM7.79464 9.52679C7.91071 9.72545 7.89509 10.3259 7.8058 10.6295C7.69643 10.1853 7.6808 9.5558 7.74554 9.48214C7.76339 9.48438 7.77902 9.49777 7.79464 9.52679ZM7.75893 12.2165C7.99777 12.6295 8.29911 12.9844 8.6317 13.2478C8.14955 13.3571 7.70982 13.5379 7.31696 13.6987C7.22321 13.7366 7.1317 13.7746 7.04241 13.8103C7.33929 13.2723 7.58705 12.6629 7.75893 12.2165ZM11.2321 13.6786C11.2344 13.683 11.2366 13.6897 11.2232 13.6987H11.2187L11.2143 13.7054C11.1964 13.7165 11.0134 13.8237 10.2254 13.5134C11.1317 13.471 11.2299 13.6763 11.2321 13.6786ZM15.5045 5.01339L10.7009 0.209821C10.567 0.0758929 10.3862 0 10.1964 0H0.714286C0.319196 0 0 0.319196 0 0.714286V19.2857C0 19.6808 0.319196 20 0.714286 20H15C15.3951 20 15.7143 19.6808 15.7143 19.2857V5.52009C15.7143 5.33036 15.6384 5.14732 15.5045 5.01339ZM14.067 5.84821H9.86607V1.64732L14.067 5.84821ZM14.1071 18.3929H1.60714V1.60714H8.34821V6.42857C8.34821 6.67721 8.44699 6.91567 8.6228 7.09148C8.79862 7.2673 9.03707 7.36607 9.28571 7.36607H14.1071V18.3929Z" fill="#969696"/>
</svg>
