<svg width="18" height="18" viewBox="0 0 18 18" fill="" xmlns="http://www.w3.org/2000/svg">
<path fill-rule="evenodd" clip-rule="evenodd" d="M9 18C4.0293 18 0 13.9707 0 9C0 4.0293 4.0293 0 9 0C13.9707 0 18 4.0293 18 9C18 13.9707 13.9707 18 9 18ZM9 16.2C10.9096 16.2 12.7409 15.4414 14.0912 14.0912C15.4414 12.7409 16.2 10.9096 16.2 9C16.2 7.09044 15.4414 5.25909 14.0912 3.90883C12.7409 2.55857 10.9096 1.8 9 1.8C7.09044 1.8 5.25909 2.55857 3.90883 3.90883C2.55857 5.25909 1.8 7.09044 1.8 9C1.8 10.9096 2.55857 12.7409 3.90883 14.0912C5.25909 15.4414 7.09044 16.2 9 16.2ZM8.1 12.6H9.9V14.4H8.1V12.6ZM8.1 10.8072C8.1 10.8072 9.9 10.8 9.9 10.8072C9.9 9.9054 12.6 9 12.6 7.2C12.6 5.211 11.0043 3.6 9.0081 3.6C8.53466 3.59893 8.06566 3.69127 7.62795 3.87171C7.19024 4.05215 6.79243 4.31715 6.45728 4.65155C6.12213 4.98594 5.85623 5.38317 5.67481 5.82047C5.49338 6.25777 5.4 6.72656 5.4 7.2H7.2C7.2 6.21 8.01 5.4 9 5.4C9.99 5.4 10.8 6.21 10.8 7.2C10.8 8.01 8.1 9.3303 8.1 10.8072Z" fill="#969696"/>
</svg>
