<svg width="19" height="16" viewBox="0 0 19 16" fill="" xmlns="http://www.w3.org/2000/svg">
<path d="M0 5.52953L0.786032 6.82077L2.28245 5.91019V16H15.8863V5.90982L17.3828 6.8204L18.1688 5.52917L9.08439 0L0 5.52953ZM14.3748 14.4885H3.79399V4.98964L9.08439 1.76931L14.3748 4.98964V14.4885Z" fill="#969696"/>
<path d="M7.94883 6.87949C7.94883 6.25342 7.43935 5.74394 6.81328 5.74394C6.18722 5.74394 5.67773 6.25342 5.67773 6.87949C5.67773 7.50555 6.18722 8.01504 6.81328 8.01504C7.43935 8.01504 7.94883 7.50555 7.94883 6.87949Z" fill="#969696"/>
<path d="M10.2197 11.4216C10.2197 12.0477 10.7292 12.5571 11.3553 12.5571C11.9813 12.5571 12.4908 12.0477 12.4908 11.4216C12.4908 10.7955 11.9813 10.286 11.3553 10.286C10.7292 10.286 10.2197 10.7955 10.2197 11.4216Z" fill="#969696"/>
<path d="M11.891 7.41468L7.34876 11.9569L6.27832 10.8864L10.8205 6.34424L11.891 7.41468Z" fill="#969696"/>
</svg>
