<svg width="22" height="21" viewBox="0 0 22 21" fill="none" xmlns="http://www.w3.org/2000/svg">
<path d="M20.6494 7.10971L14.371 6.19724L11.5643 0.507308C11.4877 0.351521 11.3616 0.225408 11.2058 0.148751C10.8151 -0.0441286 10.3403 0.116604 10.1449 0.507308L7.33829 6.19724L1.05983 7.10971C0.886732 7.13444 0.728473 7.21604 0.607305 7.33968C0.46082 7.49024 0.3801 7.6928 0.382882 7.90284C0.385664 8.11289 0.47172 8.31323 0.622142 8.45986L5.16469 12.8887L4.09149 19.1424C4.06633 19.2879 4.08242 19.4375 4.13796 19.5743C4.1935 19.7111 4.28625 19.8296 4.40571 19.9163C4.52516 20.0031 4.66654 20.0546 4.8138 20.0651C4.96106 20.0756 5.10832 20.0447 5.23888 19.9757L10.8546 17.0232L16.4704 19.9757C16.6237 20.0573 16.8017 20.0845 16.9724 20.0549C17.4026 19.9807 17.6919 19.5727 17.6178 19.1424L16.5446 12.8887L21.0871 8.45986C21.2107 8.33869 21.2924 8.18043 21.3171 8.00734C21.3838 7.5746 21.0822 7.174 20.6494 7.10971ZM14.6331 12.2655L15.5258 17.4658L10.8546 15.0128L6.18349 17.4683L7.07617 12.268L3.29772 8.5835L8.52029 7.82435L10.8546 3.09387L13.189 7.82435L18.4115 8.5835L14.6331 12.2655Z" fill="#4A7755"/>
</svg>
