<svg width="27" height="30" viewBox="0 0 27 30" fill="" xmlns="http://www.w3.org/2000/svg">
<path d="M21.0996 7.00195C20.8359 5.16211 19.9512 3.47461 18.5801 2.19727C17.0566 0.779297 15.082 0 13.002 0C10.9219 0 8.94727 0.779297 7.42969 2.19141C6.05859 3.46875 5.17383 5.16211 4.91016 6.99609C1.95117 8.29102 0 11.2383 0 14.4961C0 19.0078 3.66797 22.6758 8.17969 22.6758C9.56836 22.6758 10.9219 22.3242 12.123 21.6621V30H13.8809V21.6621C15.082 22.3242 16.4355 22.6758 17.8242 22.6758C22.3359 22.6758 26.0039 19.0078 26.0039 14.4961C26.0039 11.2383 24.0586 8.29102 21.0996 7.00195ZM17.8242 20.918C16.3887 20.918 15.0059 20.4375 13.8809 19.5645V14.1855L17.8242 12.1113L17.0039 10.5527L13.8809 12.1934V8.73047H12.123V16.084L9 14.4434L8.17969 16.002L12.123 18.0762V19.5586C10.998 20.4375 9.61523 20.9121 8.17969 20.9121C4.64063 20.918 1.75781 18.041 1.75781 14.4961C1.75781 11.7891 3.46875 9.35742 6.01758 8.44922L6.55664 8.25586L6.59766 7.6875C6.7207 6.07617 7.44141 4.58203 8.625 3.48047C9.82031 2.36719 11.373 1.75781 13.002 1.75781C14.6309 1.75781 16.1836 2.36719 17.3789 3.48047C18.5625 4.58789 19.2832 6.08203 19.4062 7.6875L19.4473 8.25586L19.9863 8.44922C22.5352 9.35742 24.2461 11.7891 24.2461 14.4961C24.2461 18.041 21.3691 20.918 17.8242 20.918Z" fill="white"/>
</svg>
