<svg width="1638" height="802" viewBox="0 0 1638 802" fill="none" xmlns="http://www.w3.org/2000/svg">
<path d="M245.51 326.555C256.003 333.278 268.135 334.918 279.447 332.294C277.152 320.98 270.43 310.65 259.937 303.927C249.445 297.204 237.312 295.564 226 298.188C228.459 309.502 235.017 319.832 245.51 326.555Z" fill="white"/>
<path d="M1333.38 6.68958C1327.47 17.6608 1326.76 29.8822 1330.23 40.9638C1341.34 37.8193 1351.13 30.3353 1357.04 19.3641C1362.95 8.39292 1363.67 -3.82855 1360.19 -14.9101C1349.1 -11.6021 1339.29 -4.28159 1333.38 6.68958Z" fill="white"/>
<path d="M1474.84 731.79C1469.44 735.519 1466.19 741.077 1465.16 747.102C1471.12 748.284 1477.5 747.118 1482.9 743.388C1488.29 739.658 1491.55 734.1 1492.57 728.075C1486.58 726.973 1480.23 728.06 1474.84 731.79Z" fill="white"/>
<path d="M372 780.99C367.636 785.885 365.777 792.054 366.202 798.15C372.272 797.896 378.198 795.26 382.562 790.365C386.926 785.47 388.785 779.302 388.36 773.205C382.277 773.544 376.364 776.095 372 780.99Z" fill="white"/>
<path d="M1428.35 736.535C1427.58 740.334 1428.46 744.039 1430.5 747.027C1433.52 745.09 1435.76 741.979 1436.54 738.18C1437.31 734.38 1436.42 730.676 1434.39 727.688C1431.38 729.672 1429.12 732.735 1428.35 736.535Z" fill="white"/>
<path d="M10.4192 439.233C14.2936 439.081 17.6817 437.34 20.1018 434.657C17.5023 432.178 13.9482 430.738 10.0738 430.89C6.19939 431.042 2.81129 432.783 0.391192 435.466C3.03254 437.916 6.54481 439.385 10.4192 439.233Z" fill="white"/>
<path d="M1629.8 253.212C1633.33 251.614 1635.81 248.727 1637.05 245.331C1633.71 244.012 1629.87 244.014 1626.34 245.611C1622.81 247.209 1620.32 250.096 1619.09 253.492C1622.46 254.769 1626.26 254.81 1629.8 253.212Z" fill="white"/>
<path d="M778.289 162.982C779.376 166.704 781.886 169.569 785.076 171.266C786.851 168.143 787.386 164.346 786.299 160.624C785.212 156.902 782.702 154.037 779.512 152.34C777.776 155.496 777.202 159.26 778.289 162.982Z" fill="white"/>
</svg>
