<svg width="41" height="40" viewBox="0 0 41 40" fill="none" xmlns="http://www.w3.org/2000/svg">
<path d="M24.9683 35.246C23.1868 34.4786 21.0765 34.3964 19.1579 35.1912C17.2394 35.986 15.7868 37.5208 15.0742 39.3297C16.8557 40.0971 18.9661 40.1794 20.8846 39.3845C22.8305 38.5897 24.2557 37.0549 24.9683 35.246Z" fill="#4A7755"/>
<path d="M17.5134 34.9171C18.0341 33.9304 18.089 32.8067 17.7601 31.8201C16.7734 32.1216 15.8964 32.8067 15.3756 33.7934C14.8549 34.7801 14.8001 35.9038 15.1289 36.8905C16.1156 36.589 16.9927 35.9038 17.5134 34.9171Z" fill="#4A7755"/>
<path d="M2.38445 24.7216C3.80964 25.8727 5.56372 26.3112 7.26298 26.1193C7.09854 24.4201 6.30372 22.803 4.87853 21.6519C3.45334 20.5008 1.69926 20.0623 0 20.2541C0.164445 21.9534 0.959262 23.5704 2.38445 24.7216Z" fill="#4A7755"/>
<path d="M5.17997 20.8023C6.08441 19.1578 6.33108 17.1845 5.72811 15.266C5.12515 13.3475 3.80959 11.8675 2.13774 11.0178C1.23329 12.6623 0.986622 14.6356 1.58959 16.5541C2.16514 18.4727 3.50811 19.9527 5.17997 20.8023Z" fill="#4A7755"/>
<path d="M6.38594 21.8163C6.57779 22.9126 7.20817 23.8171 8.0578 24.3926C8.66076 23.5704 8.93484 22.5015 8.74299 21.4052C8.55113 20.3089 7.92076 19.4045 7.07113 18.8289C6.46816 19.6511 6.19409 20.72 6.38594 21.8163Z" fill="#4A7755"/>
<path d="M10.9629 37.7949C11.7852 36.9179 12.2785 35.7393 12.2237 34.4512C12.1689 33.163 11.5933 32.0119 10.6889 31.2171C9.94887 31.9845 9.48294 33.026 9.42813 34.1497C9.01701 33.8756 8.55109 33.6838 8.05775 33.6016C7.89331 34.506 8.05775 35.4927 8.63331 36.2875C9.20887 37.1371 10.0585 37.6579 10.9629 37.7949Z" fill="#4A7755"/>
<path d="M27.1059 37.9046C28.2571 38.206 29.5452 38.0416 30.6415 37.3838C31.7378 36.726 32.4504 35.6571 32.7245 34.4786C31.683 34.2046 30.5593 34.3142 29.5452 34.8075C29.5726 34.3142 29.5178 33.7934 29.3534 33.3275C28.4763 33.6016 27.7089 34.232 27.2704 35.1364C27.243 35.1912 27.243 35.2186 27.2156 35.2734C26.9415 34.6705 26.4756 34.2046 25.9274 33.9305C25.5711 34.5883 25.4615 35.3831 25.6808 36.1505C25.9 36.9727 26.4208 37.5757 27.1059 37.9046Z" fill="#4A7755"/>
<path d="M28.1475 6.87926C28.0379 6.63259 27.9283 6.35851 27.7638 6.11185C27.0786 5.01555 25.9823 4.30295 24.8038 4.08369C24.5297 5.26222 24.6942 6.52296 25.3794 7.61926C26.0645 8.71556 27.1608 9.42815 28.3394 9.64741C28.5038 8.96222 28.5038 8.22222 28.3394 7.50963C28.5038 7.92074 28.7505 8.33185 29.0246 8.68815C29.9838 7.94815 30.669 6.85185 30.8334 5.53629C30.9979 4.24814 30.5868 2.9874 29.8194 2.05554C28.8601 2.79554 28.1749 3.89184 28.0105 5.2074C27.9557 5.78296 28.0105 6.35851 28.1475 6.87926Z" fill="#4A7755"/>
<path d="M13.2105 12.1414C13.6764 10.4148 13.4572 8.52366 12.4705 6.87921C11.4838 5.23476 9.92161 4.13847 8.19493 3.75476C7.72901 5.48143 7.94827 7.37255 8.93494 9.01699C9.8942 10.634 11.4838 11.7303 13.2105 12.1414Z" fill="#4A7755"/>
<path d="M6.35866 13.7312C8.11273 14.8549 10.1409 15.129 12.032 14.6905C11.6483 12.7993 10.5246 11.0727 8.77051 9.94897C7.01644 8.82526 4.98828 8.55119 3.09717 8.98971C3.50828 10.8808 4.60458 12.6075 6.35866 13.7312Z" fill="#4A7755"/>
<path d="M14.7452 17.486C14.5808 18.2808 14.6356 19.0756 14.8549 19.7882C14.5808 20.0897 14.3615 20.3912 14.1697 20.7475C15.403 21.5149 16.9378 21.789 18.4452 21.3779C19.9527 20.9942 21.1586 20.0075 21.8712 18.7467C20.6378 17.9793 19.103 17.7053 17.5956 18.1164C17.5134 18.1438 17.4586 18.1712 17.3764 18.1712C17.3764 18.1164 17.4038 18.089 17.4038 18.0341C17.6778 16.8008 17.3764 15.5675 16.7186 14.5808C15.7593 15.2112 15.0193 16.2253 14.7452 17.486Z" fill="#4A7755"/>
<path d="M37.9594 23.3512C38.0142 22.1453 37.6579 20.9668 37.0275 20.0075C35.849 20.7749 34.9445 21.9808 34.5882 23.4608C34.0127 22.7757 33.2727 22.3097 32.4504 22.0631C32.0667 23.1868 32.149 24.4475 32.7245 25.5712C33.3001 26.6949 34.2867 27.4623 35.383 27.7912C35.383 27.7912 35.383 27.7912 35.383 27.8186H35.4105C36.589 27.7638 37.7401 27.2431 38.5623 26.2838C39.3845 25.3246 39.7682 24.1186 39.6586 22.9401C39.0831 22.9127 38.5075 23.0771 37.9594 23.3512Z" fill="#4A7755"/>
<path d="M18.1712 26.8594C17.3764 25.626 16.1705 24.8038 14.8275 24.5023C14.8275 24.5023 14.8275 24.4749 14.8001 24.4749C14.8001 24.4749 14.8001 24.4749 14.7727 24.4749H14.7453C13.3749 24.6668 12.0867 25.3794 11.1823 26.5853C10.3053 27.7912 10.0038 29.2438 10.223 30.6142C10.8534 30.532 11.4838 30.3127 12.0593 30.0112C12.0593 31.6009 12.6349 33.1083 13.5942 34.3142C15.0193 33.2179 16.0334 31.5734 16.2801 29.6549C16.2801 29.6275 16.2801 29.6275 16.2801 29.6001C16.9927 30.2853 17.8697 30.7238 18.8016 30.9157C19.1579 29.6001 18.966 28.1201 18.1712 26.8594Z" fill="#4A7755"/>
<path d="M32.6149 9.29109C32.3957 9.61998 32.2038 9.97628 32.0942 10.3326C32.0119 9.6748 31.7927 9.07183 31.5186 8.49628C30.1482 9.15405 29.0519 10.3326 28.5038 11.8674C27.9831 13.4296 28.1475 15.0193 28.8327 16.3896C30.6142 17.157 32.7245 17.2393 34.6431 16.4444C36.589 15.6496 38.0142 14.1148 38.7268 12.3059C37.3564 11.7304 35.8216 11.5385 34.3142 11.84C34.5882 11.5933 34.8349 11.3192 35.0542 10.9904C35.8216 9.86665 36.0683 8.49628 35.7942 7.26294C34.5608 7.45479 33.4097 8.16739 32.6149 9.29109Z" fill="#4A7755"/>
<path d="M13.2103 6.96151C13.1829 7.78373 13.5118 8.55114 14.0326 9.09929C14.6081 8.57855 14.9644 7.83855 14.9918 7.01632C15.0192 6.1941 14.6903 5.42669 14.1696 4.87854C13.6214 5.39928 13.2377 6.13928 13.2103 6.96151Z" fill="#4A7755"/>
<path d="M22.4741 32.3134C23.2689 31.1623 23.5155 29.7645 23.2689 28.5038C21.9807 28.723 20.7748 29.4356 19.98 30.5868C19.1852 31.7379 18.9385 33.1356 19.1852 34.3964C20.4459 34.2045 21.6518 33.4919 22.4741 32.3134Z" fill="#4A7755"/>
<path d="M24.338 31.409C25.4891 31.1075 26.5305 30.4223 27.298 29.4357C27.4898 29.792 27.7091 30.0934 27.9557 30.3949C28.7506 29.6823 29.2987 28.6408 29.3261 27.4897C29.3809 26.3386 28.9424 25.2423 28.2024 24.4749C27.2705 24.7216 26.4209 25.2149 25.7083 25.9001C25.7905 25.5712 25.818 25.2423 25.7905 24.9134C25.1328 24.9683 24.5024 25.2697 24.0365 25.8453C23.5979 26.3934 23.4061 27.0786 23.4883 27.7364C23.8994 27.709 24.3105 27.572 24.6668 27.3253C24.0639 28.6134 23.9542 30.0934 24.338 31.409Z" fill="#4A7755"/>
<path d="M34.9445 20.9941C34.6704 19.843 33.9852 18.8289 32.8889 18.1712C31.82 17.5134 30.5593 17.3764 29.4355 17.6778C29.7096 18.829 30.3948 19.843 31.4911 20.5008C32.56 21.1586 33.8207 21.2956 34.9445 20.9941Z" fill="#4A7755"/>
<path d="M38.5076 14.4163C37.9594 15.1837 37.6853 16.1703 37.8772 17.1844C38.0691 18.1985 38.6446 19.0481 39.4394 19.5689C39.9876 18.8015 40.2617 17.8148 40.0698 16.8007C39.8779 15.7866 39.3024 14.937 38.5076 14.4163Z" fill="#4A7755"/>
<path d="M35.3007 30.943C35.2733 31.3542 35.3555 31.7653 35.4926 32.149C36.2874 31.8749 37 31.3267 37.3837 30.5045C37.7674 29.6823 37.7948 28.7778 37.5207 27.983C36.7259 28.2571 36.0133 28.8053 35.6296 29.6275V29.6549C35.6022 29.5453 35.5748 29.4356 35.52 29.326C35.2733 28.7778 34.8348 28.3667 34.314 28.1475C34.0948 28.6682 34.0674 29.2712 34.314 29.8193C34.5059 30.3401 34.8622 30.6964 35.3007 30.943Z" fill="#4A7755"/>
<path d="M36.9178 10.9631C37.3563 10.689 37.6304 10.2779 37.7126 9.81197C37.2467 9.70234 36.7534 9.75716 36.3148 10.0312C35.8763 10.3053 35.6022 10.7164 35.52 11.1823C35.9859 11.292 36.5067 11.2372 36.9178 10.9631Z" fill="#4A7755"/>
<path d="M37.7949 19.514C37.7401 20.117 37.9593 20.7474 38.3979 21.2407C38.8364 21.734 39.4393 22.0081 40.0697 22.0081C40.1245 21.4052 39.9053 20.7748 39.4668 20.2814C39.0008 19.7881 38.3979 19.5414 37.7949 19.514Z" fill="#4A7755"/>
<path d="M26.6675 9.72961C26.4757 10.1955 26.4483 10.7437 26.6675 11.2644C26.8868 11.7852 27.2705 12.1415 27.7638 12.3333C27.9557 11.8674 27.9831 11.3192 27.7638 10.7985C27.5446 10.2778 27.1609 9.92147 26.6675 9.72961Z" fill="#4A7755"/>
<path d="M3.45334 26.2838C3.17927 25.8452 2.71334 25.5164 2.16519 25.3793C1.61704 25.2697 1.06889 25.3793 0.630371 25.6808C0.904446 26.1193 1.37037 26.4482 1.91852 26.5852C2.46667 26.6949 3.01482 26.5578 3.45334 26.2838Z" fill="#4A7755"/>
<path d="M13.7038 39.0008C14.2246 38.4253 14.4987 37.6579 14.4438 36.8356C14.389 36.0134 14.0053 35.3008 13.4298 34.8075C12.909 35.3831 12.6349 36.1505 12.6898 36.9727C12.7172 37.7675 13.1283 38.5075 13.7038 39.0008Z" fill="#4A7755"/>
<path d="M0.877093 19.3223C1.34302 19.706 1.91858 19.843 2.49413 19.7882C2.43932 19.2401 2.16524 18.6919 1.69932 18.3082C1.23339 17.9245 0.657832 17.7875 0.0822754 17.8423C0.13709 18.4178 0.411166 18.9386 0.877093 19.3223Z" fill="#4A7755"/>
<path d="M17.8148 14.6082C17.9519 14.1697 17.9245 13.7038 17.6778 13.2653C17.4311 12.8268 17.0474 12.5527 16.6089 12.4156C16.4719 12.8542 16.4993 13.3201 16.7459 13.7586C16.9926 14.1971 17.4037 14.4986 17.8148 14.6082Z" fill="#4A7755"/>
<path d="M6.05711 8.1126C6.55044 8.33186 7.09859 8.33186 7.59193 8.14001C7.72897 7.64667 7.67415 7.09852 7.40008 6.6326C7.126 6.16667 6.66008 5.83778 6.16674 5.72815C6.05711 6.11185 6.08452 6.52297 6.22155 6.93408C5.81044 6.82445 5.39933 6.87926 5.01562 7.0163C5.18007 7.45482 5.53637 7.86593 6.05711 8.1126Z" fill="#4A7755"/>
<path d="M20.9118 6.02971C20.8844 5.34453 20.5829 4.71415 20.117 4.27563C19.6785 4.74156 19.4044 5.37193 19.4318 6.05712C19.4592 6.74231 19.7607 7.37268 20.2266 7.8112C20.6651 7.37268 20.9392 6.74231 20.9118 6.02971Z" fill="#4A7755"/>
<path d="M24.3926 33.766C25.1052 33.3823 25.5985 32.752 25.7904 32.0394C25.0778 31.8201 24.283 31.8475 23.5704 32.2312C22.8578 32.6149 22.3645 33.2453 22.1726 33.9579C22.8852 34.1771 23.68 34.1497 24.3926 33.766Z" fill="#4A7755"/>
<path d="M30.8881 31.1075C30.8881 30.7512 30.8059 30.4223 30.5867 30.0934C30.3126 29.7097 29.9289 29.4905 29.4904 29.4357C29.4081 29.8468 29.4904 30.3127 29.7644 30.669C29.7918 30.7238 29.8192 30.7512 29.8741 30.7786C29.5178 30.7238 29.1341 30.7238 28.7778 30.7786C27.7637 30.9431 26.9415 31.4912 26.3933 32.2586C27.1333 32.8342 28.12 33.1083 29.1341 32.9438C29.5726 32.889 29.9563 32.7246 30.3126 32.5327C30.1755 32.9164 30.1481 33.3001 30.2578 33.6838C30.6963 33.5742 31.1074 33.2727 31.3541 32.8342C31.6007 32.3957 31.6281 31.9023 31.5185 31.4638C31.2992 31.3268 31.1074 31.1897 30.8881 31.1075Z" fill="#4A7755"/>
<path d="M26.3113 37.8497C25.5713 37.603 24.7491 37.6578 24.0091 38.0415C23.2691 38.4252 22.7483 39.083 22.5291 39.8504C23.2691 40.0971 24.0913 40.0423 24.8313 39.6586C25.5713 39.2749 26.092 38.5897 26.3113 37.8497Z" fill="#4A7755"/>
<path d="M21.9259 16.6364C21.8163 17.1845 21.9259 17.7875 22.2822 18.2808C22.6385 18.7741 23.1593 19.0756 23.7074 19.1578C23.8171 18.6097 23.7074 18.0067 23.3511 17.5134C22.9948 17.0201 22.4741 16.7186 21.9259 16.6364Z" fill="#4A7755"/>
<path d="M21.46 28.5038C21.5971 27.709 21.46 26.8593 21.0215 26.1193C21.1311 26.1467 21.2134 26.1467 21.323 26.1741C22.0904 26.2564 22.8304 26.0097 23.3786 25.5438C22.94 24.9682 22.2823 24.5845 21.4874 24.5023C20.8571 24.4475 20.2541 24.5845 19.7334 24.9134C19.3771 24.7215 19.0208 24.5845 18.6097 24.5297C18.4452 25.4067 18.6371 26.3386 19.1852 27.106C19.7608 27.9008 20.583 28.3667 21.46 28.5038Z" fill="#4A7755"/>
<path d="M19.1304 13.9778C18.4178 15.0193 18.1437 16.2526 18.2534 17.4311C19.6237 17.3489 20.9941 16.7185 21.9534 15.5948C22.3097 15.1837 22.5837 14.7178 22.803 14.2244C22.7482 14.663 22.803 15.1289 22.9949 15.5948C23.2963 16.3348 23.8719 16.8556 24.5571 17.157C24.8586 16.4719 24.886 15.7045 24.5845 14.9645C24.283 14.2519 23.7349 13.7311 23.0771 13.4296C23.2141 12.8541 23.2689 12.2511 23.2141 11.6481C22.2 11.703 21.2408 12.0593 20.3911 12.6896C20.3089 12.5252 20.2267 12.3607 20.1171 12.1963C19.5963 11.4563 18.8015 10.9904 17.9793 10.8807C17.8148 11.703 17.9793 12.6074 18.5274 13.3474C18.6645 13.5667 18.8837 13.7859 19.1304 13.9778Z" fill="#4A7755"/>
<path d="M8.55106 18.774C8.60588 19.377 8.82514 19.9525 9.15403 20.4459C9.89403 19.9525 10.4696 19.1577 10.6614 18.2259C10.8533 17.294 10.634 16.3348 10.1133 15.5948C9.67477 15.8962 9.29106 16.2799 9.01699 16.7459C8.98958 16.6911 8.96217 16.6362 8.90736 16.5814C8.38662 15.8414 7.5918 15.3755 6.76958 15.2659C6.60513 16.0881 6.76958 16.9925 7.31773 17.7325C7.61921 18.1985 8.05773 18.5274 8.55106 18.774Z" fill="#4A7755"/>
<path d="M21.926 20.2541C22.3645 20.8297 23.0223 21.2134 23.8171 21.2956C24.5023 21.3778 25.1601 21.186 25.7083 20.8023C26.0646 21.0215 26.4483 21.1586 26.8594 21.2134C27.0238 20.3912 26.8594 19.4867 26.3112 18.7467C25.7905 18.0067 24.9957 17.5408 24.1734 17.4312C24.0364 18.226 24.1734 19.0482 24.6394 19.7882C24.4201 19.706 24.2008 19.6512 23.9816 19.6237C23.2142 19.5689 22.4742 19.8156 21.926 20.2541Z" fill="#4A7755"/>
<path d="M33.6837 7.53708C34.2319 7.12596 34.5608 6.55041 34.6704 5.92004C34.1223 5.81041 33.5193 5.92004 32.9986 6.22152V6.19411C33.1356 5.45411 32.9437 4.71411 32.5326 4.13855C31.9571 4.52225 31.5186 5.15263 31.3815 5.89263C31.2445 6.63263 31.4363 7.37263 31.8474 7.94819C32.4778 8.08523 33.1356 7.94819 33.6837 7.53708Z" fill="#4A7755"/>
<path d="M36.918 19.4594C37.2743 18.9386 37.4387 18.2809 37.3291 17.6231C37.192 16.9379 36.8083 16.3897 36.2876 16.0334C35.9587 16.4994 35.7943 17.0749 35.8491 17.6779C35.8491 17.6779 35.8491 17.6779 35.8217 17.6505C35.2187 17.212 34.4787 17.0475 33.7661 17.1846C33.8757 17.8697 34.232 18.5275 34.8624 18.9935C35.4928 19.432 36.2328 19.5964 36.918 19.4594Z" fill="#4A7755"/>
<path d="M28.2023 1.42517C27.5994 1.42517 27.0238 1.64443 26.5853 2.11036C26.1468 2.57628 25.9275 3.17925 25.9549 3.75481C26.5579 3.75481 27.1334 3.53555 27.572 3.06962C28.0105 2.6311 28.2023 2.02814 28.2023 1.42517Z" fill="#4A7755"/>
<path d="M17.897 0.164429C17.3763 0.164429 16.8556 0.356281 16.4445 0.767393C16.0333 1.17851 15.8689 1.69925 15.8689 2.21999C16.3896 2.21999 16.9104 2.02814 17.3215 1.61702C17.7326 1.20591 17.9245 0.685171 17.897 0.164429Z" fill="#4A7755"/>
<path d="M24.0639 3.72742C24.6668 3.53556 25.1876 3.09704 25.489 2.49408C25.7905 1.89112 25.8179 1.20593 25.5987 0.602964C25.0505 0.767409 24.5846 1.15111 24.2557 1.64445V1.61704C24.0364 0.904446 23.5157 0.32889 22.8853 0C22.5564 0.630372 22.4468 1.37037 22.6661 2.08297C22.9401 2.85038 23.4335 3.39853 24.0639 3.72742Z" fill="#4A7755"/>
<path d="M11.7305 3.91928C11.7031 4.3852 11.7579 4.85113 11.9223 5.28965C12.7446 5.01558 13.4846 4.44002 13.8957 3.59039C13.8957 3.59039 13.8957 3.56298 13.9231 3.56298C14.1972 4.24817 14.7179 4.79632 15.3483 5.0978C15.732 4.41261 15.8416 3.59039 15.5675 2.76816C15.2935 1.94594 14.7453 1.34297 14.0601 0.986677C13.1831 0.904455 12.2786 1.15112 11.566 1.75409C10.8534 2.35705 10.4423 3.20668 10.3601 4.08372C10.826 4.11113 11.292 4.05631 11.7305 3.91928Z" fill="#4A7755"/>
<path d="M20.8572 11.4289C21.4327 11.0452 21.8712 10.4422 22.0083 9.70222C22.1453 8.96222 21.9809 8.24963 21.5698 7.67407C21.049 8.00296 20.6653 8.5237 20.4735 9.15408V9.12667C20.0349 8.44148 19.3223 7.97555 18.5823 7.83852C18.4179 8.57852 18.5275 9.40074 18.9661 10.0859C19.4046 10.8533 20.0898 11.2919 20.8572 11.4289Z" fill="#4A7755"/>
<path d="M4.05641 31.4912C4.90604 31.2171 5.64604 30.5867 6.05715 29.7097C6.46827 28.8326 6.49567 27.8734 6.16678 27.0512C5.42678 26.7223 4.57715 26.6675 3.78233 26.9689C2.98752 27.2704 2.38455 27.9008 2.05566 28.6408C2.71344 28.9423 3.45344 29.0245 4.19345 28.8052C4.19345 28.8052 4.19345 28.8326 4.16604 28.8326C3.75493 29.7097 3.72752 30.6415 4.05641 31.4912Z" fill="#4A7755"/>
</svg>
