<svg width="382" height="345" viewBox="0 0 382 345" fill="none" xmlns="http://www.w3.org/2000/svg">
<g clip-path="url(#clip0)">
<path d="M13.6077 275.639L0 309.746H5.57425L9.18112 300.235H23.2807L26.8876 309.746H32.4618L18.8541 275.803H13.6077V275.639ZM10.9845 295.644L15.0833 284.986L15.903 282.69C15.903 282.526 16.067 282.198 16.2309 281.706C16.3948 282.198 16.5588 282.526 16.5588 282.69L17.3785 284.986L21.4773 295.644H10.9845Z" fill="white"/>
<path d="M41.315 280.559H51.8077V309.746H57.054V280.559H67.5468V275.639H41.315V280.559Z" fill="white"/>
<path d="M109.354 291.053L110.173 288.921L111.157 286.134V309.746H116.239V275.639H110.665L99.1888 304.499L87.5485 275.639H81.9742V309.746H87.0566V286.134L88.0403 288.921L88.8601 291.053L96.5657 309.746H101.648L109.354 291.053Z" fill="white"/>
<path d="M148.701 274.983C143.947 274.983 139.848 276.623 136.569 280.067C133.29 283.346 131.651 287.609 131.651 292.692C131.651 297.776 133.29 302.039 136.569 305.318C139.848 308.598 143.783 310.402 148.701 310.402C153.456 310.402 157.554 308.762 160.833 305.318C164.112 302.039 165.752 297.776 165.752 292.692C165.752 287.609 164.112 283.346 160.833 280.067C157.391 276.787 153.456 274.983 148.701 274.983ZM156.899 302.039C154.767 304.499 151.98 305.646 148.537 305.646C145.094 305.646 142.471 304.499 140.176 302.039C138.045 299.579 136.897 296.464 136.897 292.692C136.897 288.921 138.045 285.642 140.176 283.346C142.307 280.886 145.094 279.739 148.537 279.739C151.98 279.739 154.603 280.886 156.899 283.346C159.03 285.806 160.178 288.921 160.178 292.692C160.178 296.628 159.194 299.743 156.899 302.039Z" fill="white"/>
<path d="M197.23 279.739C201.657 279.739 205.264 282.034 207.723 286.789L211.821 283.838C210.674 281.214 208.706 279.083 206.247 277.443C203.624 275.803 200.673 274.983 197.394 274.983C192.639 274.983 188.541 276.623 185.262 280.067C181.983 283.51 180.343 287.609 180.343 292.692C180.343 297.776 181.983 302.039 185.098 305.318C188.213 308.598 192.312 310.238 197.23 310.238C200.837 310.238 203.624 309.582 205.919 308.106C208.215 306.63 210.182 304.335 211.985 301.383L207.887 298.596C205.427 303.351 201.821 305.646 197.23 305.646C193.951 305.646 191.164 304.335 188.869 301.875C186.737 299.415 185.59 296.3 185.59 292.692C185.59 289.085 186.737 285.97 189.033 283.51C191.328 281.05 193.951 279.739 197.23 279.739Z" fill="white"/>
<path d="M246.579 279.083H246.251V275.803H240.84V279.083H240.512C236.742 279.083 233.463 280.395 230.676 282.854C227.888 285.314 226.577 288.593 226.577 292.857C226.577 297.12 227.888 300.235 230.676 302.859C233.463 305.318 236.742 306.63 240.512 306.63H240.84V309.91H246.251V306.63H246.579C250.349 306.63 253.628 305.318 256.415 302.859C259.203 300.399 260.514 297.12 260.514 292.857C260.514 288.593 259.203 285.478 256.415 282.854C253.628 280.231 250.349 279.083 246.579 279.083ZM240.84 301.875H240.349C237.889 301.875 235.758 301.055 234.118 299.415C232.479 297.776 231.659 295.48 231.659 292.693C231.659 289.741 232.479 287.609 234.118 285.97C235.758 284.33 237.889 283.51 240.349 283.51H240.84V301.875ZM252.809 299.415C251.169 301.055 249.038 301.875 246.579 301.875H246.087V283.346H246.579C249.038 283.346 251.169 284.166 252.809 285.806C254.448 287.445 255.268 289.741 255.268 292.529C255.432 295.644 254.612 297.94 252.809 299.415Z" fill="white"/>
<path d="M281.664 294.496H297.403V289.741H281.664V280.395H298.714V275.639H276.417V309.746H298.878V304.99H281.664V294.496Z" fill="white"/>
<path d="M338.39 278.591C336.094 276.623 333.143 275.639 329.536 275.639H314.617V309.582H319.864V297.284H329.536C333.307 297.284 336.258 296.3 338.39 294.332C340.685 292.365 341.669 289.741 341.669 286.462C341.669 283.182 340.685 280.559 338.39 278.591ZM334.619 291.053C333.307 292.201 331.668 292.693 329.209 292.693H319.864V280.395H329.209C331.504 280.395 333.307 280.886 334.619 282.034C335.93 283.182 336.422 284.658 336.422 286.626C336.422 288.593 335.93 290.069 334.619 291.053Z" fill="white"/>
<path d="M368.392 275.639H363.146L349.538 309.582H355.112L358.719 300.071H372.819L376.426 309.582H382L368.392 275.639ZM360.359 295.644L364.458 284.986L365.277 282.69C365.277 282.526 365.441 282.198 365.605 281.706C365.769 282.198 365.933 282.526 365.933 282.69L366.753 284.986L370.852 295.644H360.359Z" fill="white"/>
<path d="M115.912 332.702H113.616L109.026 337.949V332.702H107.222V337.949L102.632 332.702H100.5L104.763 337.457L99.5168 344.672H101.648L105.911 338.769L107.222 340.245V344.672H109.026V340.245L110.337 338.769L114.6 344.672H116.731L111.485 337.457L115.912 332.702Z" fill="white"/>
<path d="M120.502 342.049V332.702H118.535V344.672H120.666L126.568 335.162V344.672H128.372V332.702H126.404L120.502 342.049Z" fill="white"/>
<path d="M132.306 342.212C132.306 342.54 132.142 342.704 132.142 342.868C131.979 343.032 131.815 343.032 131.651 343.032C131.487 343.032 131.323 343.032 131.159 342.868L130.831 344.508C131.323 344.672 131.651 344.672 131.979 344.672C132.634 344.672 133.126 344.508 133.454 344.18C133.782 343.852 134.11 343.36 134.11 342.54L134.93 334.178H139.684V344.508H141.488V332.538H133.126L132.306 342.212Z" fill="white"/>
<path d="M153.62 333.03C152.636 332.538 151.652 332.374 150.669 332.374C149.685 332.374 148.701 332.538 147.718 333.03C146.734 333.522 146.078 334.178 145.422 335.162C144.767 336.145 144.439 337.293 144.439 338.605C144.439 339.917 144.767 341.065 145.422 342.049C146.078 343.032 146.898 343.688 147.718 344.18C148.701 344.672 149.685 344.836 150.669 344.836C151.652 344.836 152.636 344.672 153.62 344.18C154.603 343.688 155.259 343.032 155.915 342.049C156.571 341.065 156.899 339.917 156.899 338.605C156.899 337.293 156.571 336.145 155.915 335.162C155.423 334.178 154.603 333.522 153.62 333.03ZM153.784 342.049C152.964 342.868 151.98 343.36 150.669 343.36C149.357 343.36 148.373 342.868 147.554 342.049C146.734 341.229 146.242 340.081 146.242 338.769C146.242 337.457 146.734 336.309 147.554 335.49C148.373 334.67 149.357 334.178 150.669 334.178C151.98 334.178 152.964 334.67 153.784 335.49C154.603 336.309 155.095 337.457 155.095 338.769C155.095 339.917 154.603 341.065 153.784 342.049Z" fill="white"/>
<path d="M161.653 342.049V332.702H159.85V344.672H161.981L167.883 335.162V344.672H169.687V332.702H167.555L161.653 342.049Z" fill="white"/>
<path d="M163.785 328.439H162.309C162.309 329.259 162.473 329.751 162.965 330.242C163.457 330.734 163.948 330.898 164.768 330.898C165.588 330.898 166.08 330.734 166.572 330.242C167.064 329.751 167.227 329.095 167.227 328.439H165.752C165.752 329.095 165.424 329.423 164.768 329.423C164.112 329.423 163.785 329.095 163.785 328.439Z" fill="white"/>
<path d="M188.705 332.702H186.573L181.983 337.949V332.702H180.015V344.672H181.983V340.409L183.294 338.933L187.393 344.672H189.524L184.606 337.457L188.705 332.702Z" fill="white"/>
<path d="M199.033 333.03C198.05 332.538 197.066 332.374 196.082 332.374C195.099 332.374 194.115 332.538 193.131 333.03C192.148 333.522 191.492 334.178 190.836 335.162C190.18 336.145 189.852 337.293 189.852 338.605C189.852 339.917 190.18 341.065 190.836 342.049C191.492 343.032 192.312 343.688 193.131 344.18C194.115 344.672 195.099 344.836 196.082 344.836C197.066 344.836 198.05 344.672 199.033 344.18C200.017 343.688 200.673 343.032 201.329 342.049C201.985 341.065 202.312 339.917 202.312 338.605C202.312 337.293 201.985 336.145 201.329 335.162C200.837 334.178 200.017 333.522 199.033 333.03ZM199.197 342.049C198.378 342.868 197.394 343.36 196.082 343.36C194.771 343.36 193.787 342.868 192.967 342.049C192.148 341.229 191.656 340.081 191.656 338.769C191.656 337.457 192.148 336.309 192.967 335.49C193.787 334.67 194.771 334.178 196.082 334.178C197.394 334.178 198.378 334.67 199.197 335.49C200.017 336.309 200.509 337.457 200.509 338.769C200.509 339.917 200.017 341.065 199.197 342.049Z" fill="white"/>
<path d="M211.166 343.032L207.395 332.702H205.264V344.672H207.067V336.309L210.182 344.672H212.149L215.264 336.309V344.672H217.232V332.702H215.1L211.166 343.032Z" fill="white"/>
<path d="M220.675 344.672H222.642V334.342H228.38V344.672H230.348V332.702H220.675V344.672Z" fill="white"/>
<path d="M234.118 342.212C234.118 342.54 233.954 342.704 233.954 342.868C233.791 343.032 233.627 343.032 233.463 343.032C233.299 343.032 233.135 343.032 232.971 342.868L232.643 344.508C233.135 344.672 233.463 344.672 233.791 344.672C234.446 344.672 234.938 344.508 235.266 344.18C235.594 343.852 235.922 343.36 235.922 342.54L236.742 334.178H241.496V344.508H243.3V332.538H234.938L234.118 342.212Z" fill="white"/>
<path d="M252.317 332.374C250.677 332.374 249.202 333.03 248.054 334.178C246.906 335.326 246.251 336.965 246.251 338.769C246.251 340.573 246.906 342.049 248.054 343.36C249.202 344.508 250.677 345.164 252.317 345.164C254.776 345.164 256.579 344.016 257.727 341.721L256.415 340.901C255.924 341.721 255.432 342.376 254.776 342.868C254.12 343.36 253.3 343.524 252.317 343.524C251.169 343.524 250.185 343.032 249.366 342.212C248.546 341.393 248.218 340.245 248.218 339.097H258.055V338.441C258.055 336.637 257.563 335.162 256.415 334.178C255.596 332.866 254.12 332.374 252.317 332.374ZM248.382 337.457C248.546 336.473 249.038 335.49 249.694 334.834C250.349 334.178 251.169 333.85 252.317 333.85C253.3 333.85 254.12 334.178 254.94 334.834C255.76 335.49 256.088 336.309 256.252 337.457H248.382Z" fill="white"/>
<path d="M269.695 332.702H267.564L262.973 337.949V332.702H261.006V344.672H262.973V340.409L264.285 338.933L268.384 344.672H270.515L265.597 337.457L269.695 332.702Z" fill="white"/>
<path d="M279.368 342.704C278.712 343.196 277.893 343.36 277.073 343.36C275.761 343.36 274.778 342.868 273.958 342.049C273.138 341.229 272.81 340.081 272.81 338.769C272.81 337.457 273.138 336.309 273.958 335.49C274.778 334.67 275.761 334.178 277.073 334.178C278.876 334.178 280.188 334.998 281.008 336.637L282.483 335.654C281.991 334.67 281.336 333.85 280.516 333.194C279.532 332.702 278.549 332.374 277.237 332.374C275.597 332.374 274.122 333.03 272.974 334.178C271.827 335.326 271.171 336.965 271.171 338.769C271.171 340.573 271.827 342.049 272.974 343.36C274.122 344.508 275.597 345.164 277.401 345.164C279.86 345.164 281.664 344.016 282.811 341.721L281.5 340.901C280.516 341.557 280.024 342.212 279.368 342.704Z" fill="white"/>
<path d="M220.347 210.706C209.69 206.115 197.066 205.623 185.59 210.378C174.113 215.133 165.424 224.316 161.161 235.138C171.818 239.729 184.442 240.221 195.918 235.466C207.559 230.711 216.084 221.528 220.347 210.706Z" fill="white"/>
<path d="M175.753 208.738C178.868 202.835 179.196 196.112 177.228 190.209C171.326 192.013 166.08 196.112 162.965 202.015C159.85 207.918 159.522 214.641 161.489 220.544C167.391 218.74 172.638 214.641 175.753 208.738Z" fill="white"/>
<path d="M85.2532 147.74C93.7786 154.627 104.271 157.25 114.436 156.103C113.452 145.936 108.698 136.262 100.173 129.375C91.6472 122.488 81.1545 119.865 70.9897 121.012C71.9734 131.179 76.7279 140.853 85.2532 147.74Z" fill="white"/>
<path d="M101.976 124.292C107.386 114.453 108.862 102.647 105.255 91.1692C101.648 79.6911 93.7786 70.8365 83.7777 65.7534C78.3674 75.5918 76.8919 87.3978 80.4987 98.876C83.9417 110.354 91.9751 119.209 101.976 124.292Z" fill="white"/>
<path d="M109.19 130.359C110.337 136.918 114.108 142.329 119.191 145.772C122.797 140.853 124.437 134.458 123.289 127.899C122.142 121.34 118.371 115.929 113.288 112.486C109.682 117.405 108.042 123.8 109.19 130.359Z" fill="white"/>
<path d="M136.569 225.955C141.488 220.708 144.439 213.657 144.111 205.951C143.783 198.244 140.34 191.357 134.93 186.602C130.503 191.193 127.716 197.424 127.388 204.147C124.929 202.507 122.142 201.359 119.191 200.867C118.207 206.278 119.191 212.182 122.633 216.937C126.076 222.02 131.159 225.135 136.569 225.955Z" fill="white"/>
<path d="M233.135 226.611C240.021 228.415 247.726 227.431 254.284 223.496C260.842 219.56 265.105 213.165 266.744 206.115C260.514 204.475 253.792 205.131 247.726 208.082C247.89 205.131 247.562 202.015 246.579 199.228C241.332 200.867 236.742 204.639 234.118 210.05C233.955 210.378 233.955 210.542 233.791 210.87C232.151 207.262 229.364 204.475 226.085 202.835C223.954 206.77 223.298 211.526 224.609 216.117C225.921 221.036 229.036 224.644 233.135 226.611Z" fill="white"/>
<path d="M239.365 40.9934C238.709 39.5176 238.053 37.8779 237.07 36.4021C232.971 29.8432 226.413 25.5799 219.363 24.2681C217.724 31.3189 218.707 38.8617 222.806 45.4206C226.905 51.9796 233.463 56.2429 240.512 57.5547C241.496 53.4553 241.496 49.028 240.512 44.7647C241.496 47.2243 242.972 49.6839 244.611 51.8156C250.349 47.3883 254.448 40.8294 255.432 32.9587C256.415 25.2519 253.956 17.7091 249.366 12.134C243.627 16.5613 239.529 23.1202 238.545 30.991C238.217 34.4344 238.545 37.8779 239.365 40.9934Z" fill="white"/>
<path d="M150.013 72.4763C152.8 62.1459 151.488 50.8318 145.586 40.9934C139.684 31.155 130.339 24.596 120.01 22.3004C117.223 32.6307 118.535 43.9449 124.437 53.7833C130.175 63.4577 139.684 70.0167 150.013 72.4763Z" fill="white"/>
<path d="M109.026 81.9867C119.518 88.7096 131.651 90.3494 142.963 87.7258C140.668 76.4116 133.946 66.0813 123.453 59.3584C112.961 52.6355 100.828 50.9958 89.5159 53.6193C91.9751 64.9335 98.5331 75.2638 109.026 81.9867Z" fill="white"/>
<path d="M159.194 104.451C158.21 109.206 158.538 113.962 159.85 118.225C158.21 120.029 156.899 121.832 155.751 123.964C163.129 128.555 172.31 130.195 181.327 127.735C190.344 125.44 197.558 119.537 201.821 111.994C194.443 107.403 185.262 105.763 176.245 108.223C175.753 108.386 175.425 108.55 174.933 108.55C174.933 108.223 175.097 108.059 175.097 107.731C176.736 100.352 174.933 92.973 170.998 87.0699C165.26 90.8413 160.833 96.9084 159.194 104.451Z" fill="white"/>
<path d="M298.058 139.541C298.386 132.327 296.255 125.276 292.484 119.537C285.434 124.128 280.024 131.343 277.893 140.197C274.45 136.098 270.023 133.31 265.105 131.835C262.809 138.558 263.301 146.1 266.744 152.823C270.187 159.546 276.089 164.137 282.647 166.105C282.647 166.105 282.647 166.105 282.647 166.269H282.811C289.861 165.941 296.747 162.826 301.665 157.087C306.584 151.347 308.879 144.133 308.223 137.082C304.78 136.918 301.337 137.902 298.058 139.541Z" fill="white"/>
<path d="M179.688 160.53C174.933 153.151 167.719 148.232 159.686 146.428C159.686 146.428 159.686 146.264 159.522 146.264C159.522 146.264 159.522 146.264 159.358 146.264H159.194C150.997 147.412 143.291 151.675 137.881 158.89C132.634 166.105 130.831 174.796 132.142 182.994C135.913 182.502 139.684 181.191 143.127 179.387C143.127 188.897 146.57 197.916 152.308 205.131C160.833 198.572 166.9 188.733 168.375 177.255C168.375 177.091 168.375 177.091 168.375 176.927C172.638 181.027 177.884 183.65 183.458 184.798C185.59 176.927 184.442 168.073 179.688 160.53Z" fill="white"/>
<path d="M266.088 55.4231C264.777 57.3908 263.629 59.5224 262.973 61.6541C262.482 57.7187 261.17 54.1113 259.53 50.6679C251.333 54.6032 244.775 61.6541 241.496 70.8366C238.381 80.1831 239.365 89.6935 243.464 97.8922C254.12 102.483 266.744 102.975 278.221 98.2201C289.861 93.4649 298.386 84.2824 302.649 73.4602C294.452 70.0167 285.27 68.8689 276.253 70.6726C277.893 69.1968 279.368 67.5571 280.68 65.5894C285.27 58.8665 286.746 50.6679 285.106 43.2891C277.729 44.4369 270.843 48.7002 266.088 55.4231Z" fill="white"/>
<path d="M150.013 41.4852C149.849 46.4044 151.816 50.9957 154.931 54.2752C158.374 51.1597 160.506 46.7324 160.67 41.8132C160.833 36.894 158.866 32.3027 155.751 29.0233C152.472 32.1388 150.177 36.566 150.013 41.4852Z" fill="white"/>
<path d="M205.427 193.161C210.182 186.274 211.657 177.911 210.182 170.368C202.476 171.68 195.263 175.943 190.508 182.83C185.754 189.717 184.278 198.08 185.754 205.623C193.295 204.475 200.509 200.212 205.427 193.161Z" fill="white"/>
<path d="M216.576 187.75C223.462 185.946 229.692 181.847 234.282 175.943C235.43 178.075 236.742 179.879 238.217 181.683C242.972 177.419 246.251 171.188 246.415 164.301C246.742 157.414 244.119 150.856 239.693 146.264C234.118 147.74 229.036 150.692 224.773 154.791C225.265 152.823 225.429 150.856 225.265 148.888C221.33 149.216 217.56 151.02 214.773 154.463C212.149 157.742 211.002 161.842 211.494 165.777C213.953 165.613 216.412 164.793 218.543 163.318C214.937 171.024 214.281 179.879 216.576 187.75Z" fill="white"/>
<path d="M280.024 125.44C278.385 118.553 274.286 112.486 267.728 108.55C261.334 104.615 253.792 103.795 247.07 105.599C248.71 112.486 252.809 118.553 259.367 122.488C265.761 126.423 273.302 127.243 280.024 125.44Z" fill="white"/>
<path d="M301.337 86.0861C298.058 90.6774 296.419 96.5804 297.567 102.647C298.714 108.714 302.157 113.798 306.912 116.913C310.191 112.322 311.83 106.419 310.682 100.352C309.535 94.2848 306.092 89.2016 301.337 86.0861Z" fill="white"/>
<path d="M282.155 184.962C281.991 187.422 282.483 189.881 283.303 192.177C288.058 190.537 292.32 187.258 294.616 182.338C296.911 177.419 297.075 172.008 295.435 167.253C290.681 168.893 286.418 172.172 284.123 177.091V177.255C283.959 176.599 283.795 175.944 283.467 175.288C281.991 172.008 279.368 169.549 276.253 168.237C274.942 171.352 274.778 174.96 276.253 178.239C277.401 181.355 279.532 183.486 282.155 184.962Z" fill="white"/>
<path d="M291.828 65.4254C294.451 63.7857 296.091 61.3261 296.583 58.5385C293.796 57.8826 290.845 58.2106 288.221 59.8503C285.598 61.49 283.959 63.9496 283.467 66.7372C286.254 67.3931 289.369 67.0651 291.828 65.4254Z" fill="white"/>
<path d="M297.075 116.585C296.747 120.192 298.058 123.964 300.682 126.915C303.305 129.867 306.912 131.507 310.682 131.507C311.01 127.899 309.699 124.128 307.076 121.176C304.288 118.225 300.682 116.749 297.075 116.585Z" fill="white"/>
<path d="M230.512 58.0466C229.364 60.8341 229.2 64.1136 230.512 67.2291C231.823 70.3446 234.119 72.4762 237.07 73.624C238.217 70.8365 238.381 67.557 237.07 64.4415C235.758 61.326 233.463 59.1944 230.512 58.0466Z" fill="white"/>
<path d="M91.6472 157.087C90.0077 154.463 87.2206 152.495 83.9416 151.675C80.6627 151.02 77.3837 151.675 74.7605 153.479C76.4 156.103 79.1871 158.07 82.4661 158.89C85.7451 159.546 89.024 158.726 91.6472 157.087Z" fill="white"/>
<path d="M152.964 233.17C156.079 229.727 157.718 225.136 157.391 220.216C157.063 215.297 154.767 211.034 151.324 208.082C148.209 211.526 146.57 216.117 146.898 221.036C147.062 225.791 149.521 230.219 152.964 233.17Z" fill="white"/>
<path d="M76.2361 115.437C79.0232 117.733 82.4661 118.553 85.909 118.225C85.5811 114.945 83.9416 111.666 81.1545 109.37C78.3674 107.075 74.9245 106.255 71.4816 106.583C71.8094 110.026 73.4489 113.142 76.2361 115.437Z" fill="white"/>
<path d="M177.556 87.2339C178.376 84.6103 178.212 81.8228 176.736 79.1992C175.261 76.5756 172.966 74.9359 170.342 74.116C169.523 76.7396 169.687 79.5271 171.162 82.1507C172.638 84.7743 175.097 86.578 177.556 87.2339Z" fill="white"/>
<path d="M107.222 48.3722C110.173 49.684 113.452 49.684 116.403 48.5362C117.223 45.5846 116.895 42.3052 115.256 39.5176C113.616 36.7301 110.829 34.7624 107.878 34.1065C107.222 36.4021 107.386 38.8617 108.206 41.3213C105.747 40.6654 103.288 40.9934 100.992 41.8133C101.976 44.4368 104.107 46.8964 107.222 48.3722Z" fill="white"/>
<path d="M196.082 35.9101C195.918 31.8108 194.115 28.0394 191.328 25.4158C188.705 28.2034 187.065 31.9748 187.229 36.0741C187.393 40.1734 189.197 43.9448 191.984 46.5684C194.607 43.9448 196.246 40.1734 196.082 35.9101Z" fill="white"/>
<path d="M216.904 201.851C221.167 199.556 224.118 195.784 225.265 191.521C221.003 190.209 216.248 190.373 211.985 192.669C207.723 194.964 204.772 198.736 203.624 202.999C207.887 204.311 212.641 204.147 216.904 201.851Z" fill="white"/>
<path d="M255.76 185.946C255.76 183.814 255.268 181.847 253.956 179.879C252.317 177.583 250.021 176.271 247.398 175.943C246.906 178.403 247.398 181.191 249.038 183.322C249.202 183.65 249.366 183.814 249.694 183.978C247.562 183.65 245.267 183.65 243.136 183.978C237.07 184.962 232.151 188.241 228.872 192.833C233.299 196.276 239.201 197.916 245.267 196.932C247.89 196.604 250.185 195.62 252.317 194.472C251.497 196.768 251.333 199.064 251.989 201.359C254.612 200.703 257.071 198.9 258.547 196.276C260.022 193.653 260.186 190.701 259.531 188.078C258.219 187.258 257.071 186.438 255.76 185.946Z" fill="white"/>
<path d="M228.38 226.283C223.954 224.808 219.035 225.136 214.609 227.431C210.182 229.727 207.067 233.662 205.755 238.253C210.182 239.729 215.1 239.401 219.527 237.106C223.954 234.81 227.069 230.711 228.38 226.283Z" fill="white"/>
<path d="M202.149 99.3679C201.493 102.647 202.149 106.255 204.28 109.206C206.411 112.158 209.526 113.962 212.805 114.453C213.461 111.174 212.805 107.567 210.674 104.615C208.542 101.664 205.427 99.8598 202.149 99.3679Z" fill="white"/>
<path d="M199.361 170.368C200.181 165.613 199.361 160.53 196.738 156.103C197.394 156.267 197.886 156.267 198.542 156.431C203.132 156.923 207.559 155.447 210.838 152.659C208.215 149.216 204.28 146.92 199.525 146.428C195.755 146.1 192.148 146.92 189.033 148.888C186.901 147.74 184.77 146.92 182.311 146.592C181.327 151.839 182.475 157.415 185.754 162.006C189.197 166.761 194.115 169.549 199.361 170.368Z" fill="white"/>
<path d="M185.426 83.4625C181.163 89.6935 179.524 97.0723 180.179 104.123C188.377 103.631 196.574 99.8598 202.312 93.1369C204.444 90.6773 206.083 87.8897 207.395 84.9382C207.067 87.5618 207.395 90.3493 208.542 93.1369C210.346 97.5642 213.789 100.68 217.888 102.483C219.691 98.384 219.855 93.7928 218.052 89.3655C216.248 85.1022 212.969 81.9867 209.034 80.183C209.854 76.7396 210.182 73.1321 209.854 69.5247C203.788 69.8527 198.05 71.9843 192.967 75.7557C192.476 74.7719 191.984 73.788 191.328 72.8042C188.213 68.3769 183.458 65.5894 178.54 64.9335C177.556 69.8527 178.54 75.2638 181.819 79.6911C182.639 81.0029 183.95 82.3147 185.426 83.4625Z" fill="white"/>
<path d="M122.142 112.158C122.47 115.765 123.781 119.209 125.748 122.16C130.175 119.209 133.618 114.453 134.766 108.878C135.913 103.303 134.602 97.5642 131.487 93.1369C128.863 94.9406 126.568 97.2363 124.929 100.024C124.765 99.6959 124.601 99.3679 124.273 99.04C121.158 94.6127 116.403 91.8251 111.485 91.1693C110.501 96.0884 111.485 101.5 114.764 105.927C116.567 108.714 119.191 110.682 122.142 112.158Z" fill="white"/>
<path d="M202.149 121.012C204.772 124.456 208.706 126.751 213.461 127.243C217.56 127.735 221.494 126.587 224.773 124.292C226.905 125.604 229.2 126.423 231.659 126.751C232.643 121.832 231.659 116.421 228.38 111.994C225.265 107.567 220.511 104.779 215.592 104.123C214.773 108.878 215.592 113.798 218.379 118.225C217.068 117.733 215.756 117.405 214.445 117.241C209.854 116.913 205.427 118.389 202.149 121.012Z" fill="white"/>
<path d="M272.482 44.9288C275.761 42.4692 277.729 39.0257 278.385 35.2543C275.106 34.5984 271.499 35.2543 268.384 37.058V36.8941C269.203 32.4668 268.056 28.0395 265.597 24.5961C262.154 26.8917 259.53 30.6631 258.711 35.0904C257.891 39.5176 259.039 43.9449 261.498 47.3884C265.269 48.2082 269.203 47.3884 272.482 44.9288Z" fill="white"/>
<path d="M291.828 116.257C293.96 113.142 294.943 109.206 294.288 105.271C293.468 101.172 291.172 97.8921 288.057 95.7605C286.09 98.548 285.106 101.991 285.434 105.599C285.434 105.599 285.434 105.599 285.27 105.435C281.663 102.811 277.237 101.828 272.974 102.647C273.63 106.747 275.761 110.682 279.532 113.47C283.303 116.093 287.73 117.077 291.828 116.257Z" fill="white"/>
<path d="M239.693 8.36267C236.086 8.36267 232.643 9.67446 230.02 12.462C227.397 15.2496 226.085 18.857 226.249 22.3004C229.856 22.3004 233.299 20.9886 235.922 18.2011C238.545 15.5775 239.693 11.9701 239.693 8.36267Z" fill="white"/>
<path d="M178.048 0.819885C174.933 0.819885 171.818 1.9677 169.359 4.4273C166.9 6.8869 165.916 10.0024 165.916 13.1179C169.031 13.1179 172.146 11.9701 174.605 9.51047C177.064 7.05087 178.212 3.93538 178.048 0.819885Z" fill="white"/>
<path d="M214.936 22.1364C218.543 20.9886 221.658 18.3651 223.462 14.7576C225.265 11.1502 225.429 7.05089 224.118 3.44347C220.839 4.42731 218.052 6.72294 216.084 9.67446V9.51049C214.773 5.24718 211.658 1.80374 207.887 -0.16394C205.919 3.60745 205.264 8.03473 206.575 12.298C208.215 16.8893 211.166 20.1688 214.936 22.1364Z" fill="white"/>
<path d="M141.16 23.2842C140.996 26.0718 141.324 28.8593 142.307 31.4829C147.226 29.8432 151.652 26.3997 154.112 21.3165C154.112 21.3165 154.112 21.1526 154.275 21.1526C155.915 25.2519 159.03 28.5314 162.801 30.3351C165.096 26.2357 165.752 21.3165 164.112 16.3973C162.473 11.4781 159.194 7.87073 155.095 5.73907C149.849 5.24715 144.439 6.72291 140.176 10.3303C135.913 13.9377 133.454 19.0209 132.962 24.2681C135.749 24.432 138.536 24.1041 141.16 23.2842Z" fill="white"/>
<path d="M195.754 68.2129C199.197 65.9173 201.821 62.3099 202.64 57.8826C203.46 53.4553 202.476 49.192 200.017 45.7486C196.902 47.7163 194.607 50.8318 193.459 54.6032V54.4392C190.836 50.3399 186.573 47.5523 182.147 46.7324C181.163 51.1597 181.819 56.0789 184.442 60.1782C187.065 64.7695 191.164 67.3931 195.754 68.2129Z" fill="white"/>
<path d="M95.2541 188.242C100.336 186.602 104.763 182.83 107.222 177.583C109.682 172.336 109.845 166.597 107.878 161.678C103.451 159.71 98.3691 159.382 93.6146 161.186C88.8601 162.99 85.2532 166.761 83.2858 171.188C87.2206 172.992 91.6472 173.484 96.0738 172.172C96.0738 172.172 96.0738 172.336 95.9099 172.336C93.4506 177.583 93.2867 183.158 95.2541 188.242Z" fill="white"/>
</g>
<defs>
<clipPath id="clip0">
<rect width="382" height="345" fill="white"/>
</clipPath>
</defs>
</svg>
