<svg width="220" height="199" viewBox="0 0 220 199" fill="none" xmlns="http://www.w3.org/2000/svg">
<g clip-path="url(#clip0)">
<path d="M7.83691 158.721L0 178.361H3.2103L5.28755 172.884H13.4077L15.485 178.361H18.6953L10.8584 158.815H7.83691V158.721ZM6.32618 170.24L8.6867 164.103L9.1588 162.781C9.1588 162.687 9.25322 162.498 9.34764 162.215C9.44206 162.498 9.53648 162.687 9.53648 162.781L10.0086 164.103L12.3691 170.24H6.32618Z" fill="#4A7755"/>
<path d="M23.7939 161.554H29.8369V178.361H32.8583V161.554H38.9012V158.721H23.7939V161.554Z" fill="#4A7755"/>
<path d="M62.9787 167.597L63.4508 166.369L64.0173 164.764V178.361H66.9444V158.721H63.7341L57.1246 175.339L50.4208 158.721H47.2104V178.361H50.1375V164.764L50.704 166.369L51.1761 167.597L55.6139 178.361H58.5409L62.9787 167.597Z" fill="#4A7755"/>
<path d="M85.6396 158.343C82.9014 158.343 80.5409 159.288 78.6524 161.27C76.764 163.159 75.8198 165.614 75.8198 168.541C75.8198 171.468 76.764 173.923 78.6524 175.811C80.5409 177.7 82.8069 178.738 85.6396 178.738C88.3778 178.738 90.7383 177.794 92.6267 175.811C94.5151 173.923 95.4593 171.468 95.4593 168.541C95.4593 165.614 94.5151 163.159 92.6267 161.27C90.6439 159.382 88.3778 158.343 85.6396 158.343ZM90.3606 173.923C89.1331 175.339 87.528 176 85.5451 176C83.5623 176 82.0516 175.339 80.7297 173.923C79.5022 172.506 78.8413 170.712 78.8413 168.541C78.8413 166.369 79.5022 164.481 80.7297 163.159C81.9572 161.743 83.5623 161.082 85.5451 161.082C87.528 161.082 89.0387 161.743 90.3606 163.159C91.5881 164.575 92.249 166.369 92.249 168.541C92.249 170.807 91.6825 172.601 90.3606 173.923Z" fill="#4A7755"/>
<path d="M113.588 161.082C116.137 161.082 118.215 162.403 119.631 165.142L121.992 163.442C121.331 161.931 120.198 160.704 118.781 159.76C117.271 158.815 115.571 158.343 113.683 158.343C110.944 158.343 108.584 159.288 106.695 161.27C104.807 163.253 103.863 165.614 103.863 168.541C103.863 171.468 104.807 173.923 106.601 175.811C108.395 177.7 110.756 178.644 113.588 178.644C115.665 178.644 117.271 178.266 118.592 177.416C119.914 176.567 121.047 175.245 122.086 173.545L119.725 171.94C118.309 174.678 116.232 176 113.588 176C111.7 176 110.095 175.245 108.773 173.828C107.545 172.412 106.884 170.618 106.884 168.541C106.884 166.464 107.545 164.67 108.867 163.253C110.189 161.837 111.7 161.082 113.588 161.082Z" fill="#4A7755"/>
<path d="M142.009 160.704H141.82V158.815H138.704V160.704H138.515C136.343 160.704 134.455 161.459 132.85 162.876C131.245 164.292 130.489 166.18 130.489 168.635C130.489 171.09 131.245 172.884 132.85 174.395C134.455 175.811 136.343 176.567 138.515 176.567H138.704V178.455H141.82V176.567H142.009C144.18 176.567 146.069 175.811 147.674 174.395C149.279 172.979 150.034 171.09 150.034 168.635C150.034 166.18 149.279 164.386 147.674 162.876C146.069 161.365 144.18 160.704 142.009 160.704ZM138.704 173.828H138.421C137.004 173.828 135.777 173.356 134.833 172.412C133.888 171.468 133.416 170.146 133.416 168.541C133.416 166.841 133.888 165.614 134.833 164.67C135.777 163.725 137.004 163.253 138.421 163.253H138.704V173.828ZM145.597 172.412C144.652 173.356 143.425 173.828 142.009 173.828H141.725V163.159H142.009C143.425 163.159 144.652 163.631 145.597 164.575C146.541 165.519 147.013 166.841 147.013 168.446C147.107 170.24 146.635 171.562 145.597 172.412Z" fill="#4A7755"/>
<path d="M162.215 169.579H171.279V166.841H162.215V161.459H172.035V158.721H159.193V178.361H172.129V175.622H162.215V169.579Z" fill="#4A7755"/>
<path d="M194.884 160.421C193.562 159.288 191.863 158.721 189.786 158.721H181.193V178.266H184.215V171.185H189.786C191.957 171.185 193.657 170.618 194.884 169.485C196.206 168.352 196.773 166.841 196.773 164.953C196.773 163.064 196.206 161.554 194.884 160.421ZM192.713 167.597C191.957 168.258 191.013 168.541 189.597 168.541H184.215V161.459H189.597C190.919 161.459 191.957 161.743 192.713 162.403C193.468 163.064 193.751 163.914 193.751 165.047C193.751 166.18 193.468 167.03 192.713 167.597Z" fill="#4A7755"/>
<path d="M212.163 158.721H209.142L201.305 178.266H204.515L206.592 172.79H214.712L216.79 178.266H220L212.163 158.721ZM207.536 170.24L209.897 164.103L210.369 162.781C210.369 162.687 210.464 162.498 210.558 162.215C210.652 162.498 210.747 162.687 210.747 162.781L211.219 164.103L213.579 170.24H207.536Z" fill="#4A7755"/>
<path d="M66.7555 191.579H65.4336L62.7899 194.601V191.579H61.7512V194.601L59.1075 191.579H57.88L60.3349 194.318L57.3135 198.472H58.5409L60.9959 195.073L61.7512 195.923V198.472H62.7899V195.923L63.5452 195.073L66.0002 198.472H67.2276L64.2062 194.318L66.7555 191.579Z" fill="#4A7755"/>
<path d="M69.3992 196.961V191.579H68.2661V198.472H69.4936L72.8927 192.996V198.472H73.9314V191.579H72.7983L69.3992 196.961Z" fill="#4A7755"/>
<path d="M76.1974 197.056C76.1974 197.245 76.103 197.339 76.103 197.433C76.0086 197.528 75.9142 197.528 75.8198 197.528C75.7253 197.528 75.6309 197.528 75.5365 197.433L75.3477 198.378C75.6309 198.472 75.8198 198.472 76.0086 198.472C76.3863 198.472 76.6695 198.378 76.8584 198.189C77.0472 198 77.2361 197.717 77.2361 197.245L77.7082 192.429H80.4464V198.378H81.485V191.485H76.6695L76.1974 197.056Z" fill="#4A7755"/>
<path d="M88.4721 191.768C87.9056 191.485 87.3391 191.391 86.7726 191.391C86.206 191.391 85.6395 191.485 85.073 191.768C84.5065 192.052 84.1288 192.429 83.7511 192.996C83.3734 193.562 83.1846 194.223 83.1846 194.979C83.1846 195.734 83.3734 196.395 83.7511 196.961C84.1288 197.528 84.6009 197.906 85.073 198.189C85.6395 198.472 86.206 198.567 86.7726 198.567C87.3391 198.567 87.9056 198.472 88.4721 198.189C89.0386 197.906 89.4163 197.528 89.794 196.961C90.1717 196.395 90.3605 195.734 90.3605 194.979C90.3605 194.223 90.1717 193.562 89.794 192.996C89.5107 192.429 89.0386 192.052 88.4721 191.768ZM88.5665 196.961C88.0944 197.434 87.5279 197.717 86.7726 197.717C86.0172 197.717 85.4507 197.434 84.9786 196.961C84.5065 196.489 84.2232 195.828 84.2232 195.073C84.2232 194.318 84.5065 193.657 84.9786 193.185C85.4507 192.712 86.0172 192.429 86.7726 192.429C87.5279 192.429 88.0944 192.712 88.5665 193.185C89.0386 193.657 89.3219 194.318 89.3219 195.073C89.3219 195.734 89.0386 196.395 88.5665 196.961Z" fill="#4A7755"/>
<path d="M93.0987 196.961V191.579H92.0601V198.472H93.2875L96.6867 192.996V198.472H97.7253V191.579H96.4978L93.0987 196.961Z" fill="#4A7755"/>
<path d="M94.3264 189.125H93.4766C93.4766 189.597 93.571 189.88 93.8542 190.163C94.1375 190.446 94.4208 190.541 94.8929 190.541C95.365 190.541 95.6482 190.446 95.9315 190.163C96.2148 189.88 96.3092 189.502 96.3092 189.125H95.4594C95.4594 189.502 95.2706 189.691 94.8929 189.691C94.5152 189.691 94.3264 189.502 94.3264 189.125Z" fill="#4A7755"/>
<path d="M108.678 191.579H107.451L104.807 194.601V191.579H103.674V198.472H104.807V196.017L105.562 195.167L107.923 198.472H109.15L106.318 194.318L108.678 191.579Z" fill="#4A7755"/>
<path d="M114.626 191.768C114.06 191.485 113.493 191.391 112.927 191.391C112.36 191.391 111.794 191.485 111.227 191.768C110.661 192.052 110.283 192.429 109.905 192.996C109.528 193.562 109.339 194.223 109.339 194.979C109.339 195.734 109.528 196.395 109.905 196.961C110.283 197.528 110.755 197.906 111.227 198.189C111.794 198.472 112.36 198.567 112.927 198.567C113.493 198.567 114.06 198.472 114.626 198.189C115.193 197.906 115.571 197.528 115.948 196.961C116.326 196.395 116.515 195.734 116.515 194.979C116.515 194.223 116.326 193.562 115.948 192.996C115.665 192.429 115.193 192.052 114.626 191.768ZM114.721 196.961C114.249 197.434 113.682 197.717 112.927 197.717C112.171 197.717 111.605 197.434 111.133 196.961C110.661 196.489 110.377 195.828 110.377 195.073C110.377 194.318 110.661 193.657 111.133 193.185C111.605 192.712 112.171 192.429 112.927 192.429C113.682 192.429 114.249 192.712 114.721 193.185C115.193 193.657 115.476 194.318 115.476 195.073C115.476 195.734 115.193 196.395 114.721 196.961Z" fill="#4A7755"/>
<path d="M121.614 197.528L119.442 191.579H118.214V198.472H119.253V193.657L121.047 198.472H122.18L123.974 193.657V198.472H125.107V191.579H123.88L121.614 197.528Z" fill="#4A7755"/>
<path d="M127.09 198.472H128.223V192.524H131.528V198.472H132.661V191.579H127.09V198.472Z" fill="#4A7755"/>
<path d="M134.833 197.056C134.833 197.245 134.738 197.339 134.738 197.433C134.644 197.528 134.549 197.528 134.455 197.528C134.361 197.528 134.266 197.528 134.172 197.433L133.983 198.378C134.266 198.472 134.455 198.472 134.644 198.472C135.022 198.472 135.305 198.378 135.494 198.189C135.682 198 135.871 197.717 135.871 197.245L136.343 192.429H139.082V198.378H140.12V191.485H135.305L134.833 197.056Z" fill="#4A7755"/>
<path d="M145.313 191.391C144.369 191.391 143.519 191.768 142.858 192.429C142.198 193.09 141.82 194.034 141.82 195.073C141.82 196.112 142.198 196.961 142.858 197.717C143.519 198.378 144.369 198.755 145.313 198.755C146.73 198.755 147.768 198.094 148.429 196.773L147.674 196.3C147.391 196.773 147.107 197.15 146.73 197.434C146.352 197.717 145.88 197.811 145.313 197.811C144.652 197.811 144.086 197.528 143.614 197.056C143.142 196.584 142.953 195.923 142.953 195.262H148.618V194.884C148.618 193.846 148.335 192.996 147.674 192.429C147.202 191.674 146.352 191.391 145.313 191.391ZM143.047 194.318C143.142 193.751 143.425 193.185 143.803 192.807C144.18 192.429 144.652 192.24 145.313 192.24C145.88 192.24 146.352 192.429 146.824 192.807C147.296 193.185 147.485 193.657 147.579 194.318H143.047Z" fill="#4A7755"/>
<path d="M155.322 191.579H154.094L151.45 194.601V191.579H150.317V198.472H151.45V196.017L152.206 195.167L154.566 198.472H155.794L152.961 194.318L155.322 191.579Z" fill="#4A7755"/>
<path d="M160.893 197.339C160.515 197.622 160.043 197.717 159.571 197.717C158.816 197.717 158.249 197.434 157.777 196.961C157.305 196.489 157.116 195.828 157.116 195.073C157.116 194.318 157.305 193.657 157.777 193.185C158.249 192.712 158.816 192.429 159.571 192.429C160.61 192.429 161.365 192.901 161.837 193.846L162.687 193.279C162.404 192.712 162.026 192.24 161.554 191.863C160.987 191.579 160.421 191.391 159.665 191.391C158.721 191.391 157.871 191.768 157.211 192.429C156.55 193.09 156.172 194.034 156.172 195.073C156.172 196.112 156.55 196.961 157.211 197.717C157.871 198.378 158.721 198.755 159.76 198.755C161.176 198.755 162.215 198.094 162.876 196.773L162.12 196.3C161.554 196.678 161.271 197.056 160.893 197.339Z" fill="#4A7755"/>
<path d="M126.901 121.331C120.764 118.687 113.494 118.403 106.884 121.142C100.275 123.88 95.2704 129.167 92.8154 135.399C98.9528 138.043 106.223 138.326 112.833 135.588C119.536 132.85 124.446 127.562 126.901 121.331Z" fill="#4A7755"/>
<path d="M101.219 120.197C103.013 116.798 103.202 112.927 102.069 109.528C98.6696 110.567 95.6482 112.927 93.8542 116.326C92.0602 119.725 91.8713 123.597 93.0044 126.996C96.4035 125.957 99.425 123.597 101.219 120.197Z" fill="#4A7755"/>
<path d="M49.0989 85.073C54.0087 89.0387 60.0517 90.5494 65.9057 89.8884C65.3392 84.0344 62.601 78.4635 57.6911 74.4979C52.7813 70.5322 46.7384 69.0215 40.8843 69.6824C41.4508 75.5365 44.189 81.1073 49.0989 85.073Z" fill="#4A7755"/>
<path d="M58.7298 71.5708C61.8457 65.9056 62.6955 59.1073 60.6182 52.4979C58.541 45.8884 54.0088 40.7897 48.2491 37.8627C45.1333 43.5279 44.2835 50.3262 46.3607 56.9356C48.3436 63.5451 52.9702 68.6438 58.7298 71.5708Z" fill="#4A7755"/>
<path d="M62.8842 75.0644C63.5452 78.8412 65.7168 81.9571 68.6439 83.9399C70.7211 81.1073 71.6653 77.4249 71.0044 73.6481C70.3434 69.8712 68.1718 66.7554 65.2447 64.7725C63.1675 67.6051 62.2233 71.2875 62.8842 75.0644Z" fill="#4A7755"/>
<path d="M78.6523 130.112C81.485 127.09 83.1845 123.03 82.9957 118.592C82.8068 114.155 80.824 110.189 77.7081 107.451C75.1588 110.094 73.5536 113.682 73.3648 117.554C71.9485 116.609 70.3433 115.949 68.6438 115.665C68.0772 118.781 68.6438 122.18 70.6266 124.918C72.6094 127.846 75.5365 129.64 78.6523 130.112Z" fill="#4A7755"/>
<path d="M134.266 130.489C138.232 131.528 142.669 130.961 146.446 128.695C150.223 126.429 152.678 122.747 153.622 118.687C150.034 117.743 146.163 118.12 142.669 119.82C142.764 118.12 142.575 116.326 142.009 114.721C138.987 115.665 136.343 117.837 134.833 120.953C134.738 121.142 134.738 121.236 134.644 121.425C133.7 119.348 132.094 117.743 130.206 116.798C128.978 119.064 128.601 121.803 129.356 124.446C130.112 127.279 131.906 129.356 134.266 130.489Z" fill="#4A7755"/>
<path d="M137.854 23.6052C137.476 22.7554 137.099 21.8112 136.532 20.9614C134.172 17.1845 130.395 14.7296 126.335 13.9742C125.39 18.0343 125.957 22.3777 128.318 26.1545C130.678 29.9313 134.455 32.3863 138.515 33.1416C139.081 30.7811 139.081 28.2318 138.515 25.7768C139.081 27.1931 139.931 28.6094 140.875 29.8369C144.18 27.2876 146.541 23.5107 147.107 18.9785C147.674 14.5408 146.257 10.1974 143.614 6.98712C140.309 9.53648 137.948 13.3133 137.382 17.8455C137.193 19.8283 137.382 21.8112 137.854 23.6052Z" fill="#4A7755"/>
<path d="M86.3949 41.7339C88 35.7854 87.2447 29.2704 83.8455 23.6051C80.4464 17.9399 75.0644 14.1631 69.1159 12.8412C67.5108 18.7897 68.2661 25.3047 71.6653 30.9699C74.97 36.5408 80.4464 40.3176 86.3949 41.7339Z" fill="#4A7755"/>
<path d="M62.7898 47.2103C68.8327 51.0816 75.8198 52.0258 82.3348 50.515C81.0129 44 77.1417 38.0515 71.0988 34.1803C65.0559 30.309 58.0687 29.3648 51.5537 30.8756C52.97 37.3906 56.7468 43.3391 62.7898 47.2103Z" fill="#4A7755"/>
<path d="M91.6825 60.1459C91.116 62.8841 91.3049 65.6223 92.0602 68.0772C91.116 69.1159 90.3607 70.1545 89.6997 71.382C93.9486 74.0257 99.2362 74.97 104.429 73.5536C109.622 72.2318 113.777 68.8326 116.232 64.4893C111.983 61.8455 106.695 60.9013 101.502 62.3176C101.219 62.412 101.03 62.5064 100.747 62.5064C100.747 62.3176 100.841 62.2232 100.841 62.0343C101.786 57.7854 100.747 53.5365 98.4808 50.1373C95.1761 52.309 92.6267 55.8026 91.6825 60.1459Z" fill="#4A7755"/>
<path d="M171.657 80.3519C171.846 76.1974 170.618 72.1374 168.446 68.8326C164.386 71.4764 161.27 75.6309 160.043 80.7296C158.06 78.3691 155.511 76.764 152.678 75.9142C151.356 79.7854 151.64 84.1288 153.622 88C155.605 91.8713 159.004 94.515 162.781 95.6481C162.781 95.6481 162.781 95.6481 162.781 95.7425H162.876C166.936 95.5537 170.901 93.7597 173.734 90.455C176.567 87.1502 177.888 82.9957 177.511 78.9356C175.528 78.8412 173.545 79.4077 171.657 80.3519Z" fill="#4A7755"/>
<path d="M103.485 92.4378C100.747 88.1889 96.5923 85.3563 91.9657 84.3176C91.9657 84.3176 91.9657 84.2232 91.8713 84.2232C91.8713 84.2232 91.8713 84.2232 91.7768 84.2232H91.6824C86.9614 84.8842 82.5236 87.3391 79.4077 91.4936C76.3863 95.6481 75.3476 100.652 76.103 105.373C78.2747 105.09 80.4464 104.335 82.4292 103.296C82.4292 108.773 84.412 113.966 87.7168 118.12C92.6266 114.343 96.1202 108.678 96.97 102.069C96.97 101.974 96.97 101.974 96.97 101.88C99.4249 104.24 102.446 105.751 105.657 106.412C106.884 101.88 106.223 96.7812 103.485 92.4378Z" fill="#4A7755"/>
<path d="M153.244 31.9142C152.489 33.0472 151.828 34.2747 151.45 35.5022C151.167 33.2361 150.412 31.1588 149.468 29.176C144.747 31.4421 140.97 35.5022 139.081 40.7897C137.287 46.1717 137.854 51.6481 140.214 56.3691C146.352 59.0129 153.622 59.2962 160.232 56.558C166.935 53.8198 171.845 48.5322 174.3 42.3005C169.579 40.3176 164.292 39.6567 159.099 40.6953C160.043 39.8455 160.893 38.9013 161.648 37.7683C164.292 33.897 165.141 29.176 164.197 24.9271C159.948 25.588 155.983 28.0429 153.244 31.9142Z" fill="#4A7755"/>
<path d="M86.3946 23.8884C86.3002 26.7211 87.4333 29.3648 89.2272 31.2532C91.2101 29.4592 92.4375 26.9099 92.532 24.0773C92.6264 21.2447 91.4933 18.6009 89.6993 16.7125C87.8109 18.5065 86.4891 21.0558 86.3946 23.8884Z" fill="#4A7755"/>
<path d="M118.309 111.227C121.047 107.262 121.897 102.446 121.047 98.103C116.609 98.8584 112.455 101.313 109.717 105.279C106.978 109.245 106.129 114.06 106.978 118.403C111.322 117.743 115.476 115.288 118.309 111.227Z" fill="#4A7755"/>
<path d="M124.729 108.112C128.695 107.073 132.283 104.712 134.927 101.313C135.588 102.541 136.343 103.579 137.193 104.618C139.931 102.163 141.819 98.5751 141.914 94.6095C142.103 90.6438 140.592 86.867 138.043 84.2232C134.832 85.073 131.905 86.7726 129.45 89.1331C129.734 88 129.828 86.867 129.734 85.7339C127.468 85.9228 125.296 86.9614 123.691 88.9442C122.18 90.8326 121.519 93.1932 121.802 95.4593C123.219 95.3648 124.635 94.8927 125.862 94.0429C123.785 98.4807 123.407 103.579 124.729 108.112Z" fill="#4A7755"/>
<path d="M161.271 72.2317C160.326 68.2661 157.966 64.7725 154.189 62.5064C150.507 60.2403 146.163 59.7682 142.292 60.8068C143.236 64.7725 145.597 68.2661 149.374 70.5322C153.056 72.7983 157.399 73.2704 161.271 72.2317Z" fill="#4A7755"/>
<path d="M173.545 49.5708C171.657 52.2146 170.712 55.6137 171.373 59.1073C172.034 62.6008 174.017 65.5279 176.755 67.3219C178.644 64.6781 179.588 61.279 178.927 57.7854C178.266 54.2918 176.283 51.3648 173.545 49.5708Z" fill="#4A7755"/>
<path d="M162.498 106.506C162.403 107.923 162.687 109.339 163.159 110.661C165.897 109.717 168.352 107.828 169.674 104.996C170.996 102.163 171.09 99.0472 170.146 96.309C167.408 97.2532 164.953 99.1416 163.631 101.974V102.069C163.536 101.691 163.442 101.313 163.253 100.936C162.403 99.0472 160.893 97.6309 159.099 96.8755C158.343 98.6695 158.249 100.747 159.099 102.635C159.759 104.429 160.987 105.657 162.498 106.506Z" fill="#4A7755"/>
<path d="M168.069 37.6738C169.58 36.7296 170.524 35.3133 170.807 33.7081C169.202 33.3304 167.502 33.5193 165.992 34.4635C164.481 35.4077 163.537 36.824 163.253 38.4292C164.859 38.8068 166.653 38.618 168.069 37.6738Z" fill="#4A7755"/>
<path d="M171.09 67.1331C170.901 69.2103 171.657 71.382 173.167 73.0816C174.678 74.7811 176.755 75.7253 178.927 75.7253C179.116 73.6481 178.36 71.4764 176.85 69.7768C175.245 68.0773 173.167 67.2275 171.09 67.1331Z" fill="#4A7755"/>
<path d="M132.755 33.4249C132.094 35.03 132 36.9184 132.755 38.7124C133.511 40.5064 134.833 41.7339 136.532 42.3948C137.193 40.7897 137.288 38.9013 136.532 37.1073C135.777 35.3133 134.455 34.0858 132.755 33.4249Z" fill="#4A7755"/>
<path d="M52.781 90.4549C51.8368 88.9442 50.2316 87.8112 48.3432 87.3391C46.4548 86.9614 44.5664 87.3391 43.0557 88.3777C43.9999 89.8884 45.605 91.0215 47.4934 91.4936C49.3818 91.8712 51.2703 91.3991 52.781 90.4549Z" fill="#4A7755"/>
<path d="M88.0945 134.266C89.8885 132.283 90.8327 129.64 90.6438 126.807C90.455 123.974 89.1331 121.519 87.1503 119.82C85.3563 121.803 84.4121 124.446 84.6009 127.279C84.6953 130.017 86.1117 132.567 88.0945 134.266Z" fill="#4A7755"/>
<path d="M43.9057 66.4721C45.5108 67.794 47.4937 68.2661 49.4765 68.0772C49.2877 66.1888 48.3435 64.3004 46.7383 62.9785C45.1332 61.6566 43.1503 61.1845 41.1675 61.3734C41.3563 63.3562 42.3005 65.1502 43.9057 66.4721Z" fill="#4A7755"/>
<path d="M102.257 50.2317C102.73 48.721 102.635 47.1159 101.785 45.6051C100.936 44.0944 99.6137 43.1502 98.103 42.6781C97.6309 44.1888 97.7253 45.794 98.5751 47.3047C99.4249 48.8154 100.841 49.8541 102.257 50.2317Z" fill="#4A7755"/>
<path d="M61.7511 27.8541C63.4506 28.6094 65.3391 28.6094 67.0386 27.9485C67.5107 26.2489 67.3219 24.3605 66.3777 22.7553C65.4335 21.1502 63.8283 20.0171 62.1288 19.6395C61.7511 20.9614 61.8455 22.3777 62.3176 23.794C60.9013 23.4163 59.485 23.6051 58.1631 24.0772C58.7296 25.588 59.9571 27.0043 61.7511 27.8541Z" fill="#4A7755"/>
<path d="M112.927 20.6781C112.833 18.3176 111.794 16.1459 110.189 14.6352C108.678 16.2403 107.734 18.412 107.828 20.7725C107.923 23.133 108.961 25.3047 110.566 26.8155C112.077 25.3047 113.021 23.133 112.927 20.6781Z" fill="#4A7755"/>
<path d="M124.919 116.232C127.374 114.91 129.073 112.738 129.734 110.283C127.279 109.528 124.541 109.622 122.086 110.944C119.631 112.266 117.931 114.438 117.271 116.893C119.725 117.648 122.464 117.554 124.919 116.232Z" fill="#4A7755"/>
<path d="M147.296 107.073C147.296 105.846 147.013 104.712 146.257 103.579C145.313 102.258 143.991 101.502 142.481 101.313C142.197 102.73 142.481 104.335 143.425 105.562C143.519 105.751 143.614 105.846 143.802 105.94C142.575 105.751 141.253 105.751 140.026 105.94C136.532 106.506 133.699 108.395 131.811 111.039C134.36 113.022 137.76 113.966 141.253 113.399C142.764 113.21 144.086 112.644 145.313 111.983C144.841 113.305 144.747 114.627 145.124 115.949C146.635 115.571 148.051 114.532 148.901 113.022C149.751 111.511 149.845 109.811 149.468 108.3C148.712 107.828 148.051 107.356 147.296 107.073Z" fill="#4A7755"/>
<path d="M131.528 130.3C128.979 129.451 126.146 129.64 123.597 130.961C121.047 132.283 119.253 134.549 118.498 137.193C121.047 138.043 123.88 137.854 126.429 136.532C128.979 135.21 130.773 132.85 131.528 130.3Z" fill="#4A7755"/>
<path d="M116.42 57.2189C116.043 59.1073 116.42 61.1845 117.648 62.8841C118.875 64.5837 120.669 65.6223 122.558 65.9056C122.935 64.0172 122.558 61.9399 121.33 60.2403C120.103 58.5408 118.309 57.5021 116.42 57.2189Z" fill="#4A7755"/>
<path d="M114.816 98.103C115.288 95.3648 114.816 92.4377 113.305 89.8884C113.683 89.9828 113.966 89.9828 114.344 90.0772C116.987 90.3605 119.537 89.5107 121.425 87.9055C119.914 85.9227 117.648 84.6008 114.91 84.3176C112.738 84.1287 110.661 84.6008 108.867 85.7339C107.64 85.0729 106.412 84.6008 104.996 84.412C104.429 87.4334 105.09 90.6437 106.979 93.2875C108.962 96.0257 111.794 97.6309 114.816 98.103Z" fill="#4A7755"/>
<path d="M106.79 48.0601C104.335 51.6481 103.39 55.897 103.768 59.9571C108.489 59.6738 113.21 57.5022 116.515 53.6309C117.742 52.2146 118.687 50.6094 119.442 48.9099C119.253 50.4206 119.442 52.0258 120.103 53.6309C121.141 56.1803 123.124 57.9743 125.485 59.0129C126.523 56.6524 126.618 54.0086 125.579 51.4592C124.541 49.0043 122.652 47.2103 120.386 46.1717C120.858 44.1888 121.047 42.1116 120.858 40.0343C117.365 40.2232 114.06 41.4507 111.133 43.6223C110.85 43.0558 110.566 42.4893 110.189 41.9228C108.395 39.3734 105.656 37.7682 102.824 37.3906C102.257 40.2232 102.824 43.3391 104.712 45.8884C105.184 46.6438 105.94 47.3992 106.79 48.0601Z" fill="#4A7755"/>
<path d="M70.3435 64.5837C70.5323 66.661 71.2877 68.6438 72.4207 70.3434C74.9701 68.6438 76.9529 65.9056 77.6139 62.6953C78.2748 59.485 77.5195 56.1803 75.7255 53.6309C74.2147 54.6695 72.8928 55.9914 71.9486 57.5966C71.8542 57.4077 71.7598 57.2189 71.571 57.0301C69.777 54.4807 67.0388 52.8755 64.2062 52.4979C63.6396 55.3305 64.2062 58.4464 66.0946 60.9957C67.1332 62.6009 68.6439 63.7339 70.3435 64.5837Z" fill="#4A7755"/>
<path d="M116.42 69.6824C117.931 71.6653 120.197 72.9871 122.935 73.2704C125.296 73.5537 127.562 72.8927 129.45 71.5708C130.678 72.3262 132 72.7983 133.416 72.9871C133.983 70.1545 133.416 67.0386 131.528 64.4893C129.734 61.9399 126.996 60.3348 124.163 59.9571C123.691 62.6953 124.163 65.5279 125.768 68.0773C125.013 67.794 124.257 67.6052 123.502 67.5107C120.858 67.3219 118.309 68.1717 116.42 69.6824Z" fill="#4A7755"/>
<path d="M156.927 25.8712C158.816 24.4549 159.949 22.4721 160.326 20.3004C158.438 19.9227 156.361 20.3004 154.567 21.3391V21.2446C155.039 18.6953 154.378 16.1459 152.962 14.1631C150.979 15.485 149.468 17.6566 148.996 20.206C148.524 22.7554 149.185 25.3047 150.601 27.2875C152.773 27.7597 155.039 27.2875 156.927 25.8712Z" fill="#4A7755"/>
<path d="M168.069 66.9442C169.296 65.1502 169.863 62.8841 169.485 60.6181C169.013 58.2575 167.691 56.3691 165.897 55.1417C164.764 56.7468 164.198 58.7296 164.386 60.8069C164.386 60.8069 164.386 60.8069 164.292 60.7125C162.215 59.2017 159.665 58.6352 157.21 59.1073C157.588 61.4678 158.816 63.7339 160.987 65.3391C163.159 66.8498 165.708 67.4163 168.069 66.9442Z" fill="#4A7755"/>
<path d="M138.043 4.81543C135.966 4.81543 133.983 5.57079 132.472 7.17594C130.961 8.7811 130.206 10.8583 130.3 12.8412C132.378 12.8412 134.36 12.0858 135.871 10.4807C137.382 8.96994 138.043 6.89268 138.043 4.81543Z" fill="#4A7755"/>
<path d="M102.541 0.472107C100.747 0.472107 98.9529 1.13305 97.5365 2.54936C96.1202 3.96567 95.5537 5.75966 95.5537 7.55365C97.3477 7.55365 99.1417 6.89271 100.558 5.4764C101.974 4.06009 102.635 2.2661 102.541 0.472107Z" fill="#4A7755"/>
<path d="M123.786 12.7468C125.863 12.0858 127.657 10.5751 128.695 8.49785C129.734 6.4206 129.828 4.06009 129.073 1.98283C127.185 2.54936 125.58 3.87124 124.447 5.57082V5.47639C123.691 3.02146 121.897 1.03863 119.726 -0.0944214C118.592 2.07725 118.215 4.62661 118.97 7.08154C119.914 9.72532 121.614 11.6137 123.786 12.7468Z" fill="#4A7755"/>
<path d="M81.2962 13.4077C81.2018 15.0129 81.3907 16.618 81.9572 18.1287C84.7898 17.1845 87.3392 15.2017 88.7555 12.2747C88.7555 12.2747 88.7555 12.1802 88.8499 12.1802C89.7941 14.5408 91.5881 16.4292 93.7598 17.4678C95.0817 15.1073 95.4593 12.2747 94.5151 9.44204C93.5709 6.60942 91.6825 4.53217 89.322 3.3047C86.3005 3.02144 83.1846 3.87122 80.7297 5.94848C78.2748 8.02573 76.8585 10.9528 76.5752 13.9742C78.1803 14.0686 79.7855 13.8798 81.2962 13.4077Z" fill="#4A7755"/>
<path d="M112.738 39.2789C114.721 37.957 116.232 35.8798 116.704 33.3304C117.176 30.7811 116.61 28.3262 115.193 26.3433C113.399 27.4764 112.077 29.2704 111.416 31.442V31.3476C109.906 28.9871 107.451 27.3819 104.901 26.9098C104.335 29.4592 104.713 32.2918 106.223 34.6523C107.734 37.2961 110.095 38.8068 112.738 39.2789Z" fill="#4A7755"/>
<path d="M54.8585 108.395C57.7856 107.451 60.3349 105.279 61.7512 102.257C63.1675 99.236 63.262 95.9313 62.1289 93.0987C59.5796 91.9657 56.6525 91.7768 53.9143 92.8154C51.1761 93.8541 49.0989 96.0257 47.9658 98.5751C50.2319 99.6137 52.7813 99.897 55.3306 99.1416C55.3306 99.1416 55.3306 99.236 55.2362 99.236C53.8199 102.257 53.7255 105.468 54.8585 108.395Z" fill="#4A7755"/>
</g>
<defs>
<clipPath id="clip0">
<rect width="220" height="198.661" fill="white"/>
</clipPath>
</defs>
</svg>
