<svg width="150" height="136" viewBox="0 0 150 136" fill="none" xmlns="http://www.w3.org/2000/svg">
<g clip-path="url(#clip0)">
<path d="M5.34335 108.219L0 121.609H2.18884L3.60515 117.875H9.14163L10.5579 121.609H12.7468L7.40343 108.283H5.34335V108.219ZM4.3133 116.073L5.92275 111.888L6.24464 110.987C6.24464 110.923 6.30901 110.794 6.37339 110.601C6.43777 110.794 6.50215 110.923 6.50215 110.987L6.82403 111.888L8.43348 116.073H4.3133Z" fill="white"/>
<path d="M16.2231 110.15H20.3433V121.609H22.4034V110.15H26.5236V108.219H16.2231V110.15Z" fill="white"/>
<path d="M42.94 114.27L43.2619 113.433L43.6482 112.339V121.609H45.6439V108.219H43.4551L38.9486 119.549L34.3778 108.219H32.189V121.609H34.1847V112.339L34.5709 113.433L34.8928 114.27L37.9186 121.609H39.9143L42.94 114.27Z" fill="white"/>
<path d="M58.3906 107.961C56.5236 107.961 54.9142 108.605 53.6266 109.957C52.3391 111.244 51.6953 112.918 51.6953 114.914C51.6953 116.909 52.3391 118.583 53.6266 119.871C54.9142 121.158 56.4593 121.867 58.3906 121.867C60.2575 121.867 61.867 121.223 63.1545 119.871C64.4421 118.583 65.0859 116.909 65.0859 114.914C65.0859 112.918 64.4421 111.244 63.1545 109.957C61.8026 108.669 60.2575 107.961 58.3906 107.961ZM61.6095 118.583C60.7726 119.549 59.6781 120 58.3262 120C56.9743 120 55.9442 119.549 55.043 118.583C54.206 117.618 53.7554 116.394 53.7554 114.914C53.7554 113.433 54.206 112.145 55.043 111.244C55.8799 110.279 56.9743 109.828 58.3262 109.828C59.6781 109.828 60.7082 110.279 61.6095 111.244C62.4464 112.21 62.897 113.433 62.897 114.914C62.897 116.459 62.5108 117.682 61.6095 118.583Z" fill="white"/>
<path d="M77.4463 109.828C79.1845 109.828 80.6008 110.729 81.5665 112.596L83.176 111.437C82.7253 110.407 81.9528 109.57 80.9871 108.927C79.9571 108.283 78.7983 107.961 77.5107 107.961C75.6438 107.961 74.0343 108.605 72.7468 109.957C71.4592 111.309 70.8154 112.918 70.8154 114.914C70.8154 116.909 71.4592 118.583 72.6824 119.871C73.9056 121.158 75.515 121.802 77.4463 121.802C78.8626 121.802 79.9571 121.545 80.8584 120.965C81.7596 120.386 82.5322 119.485 83.2403 118.326L81.6309 117.231C80.6652 119.098 79.2489 120 77.4463 120C76.1588 120 75.0644 119.485 74.1631 118.519C73.3262 117.553 72.8755 116.33 72.8755 114.914C72.8755 113.497 73.3262 112.274 74.2275 111.309C75.1287 110.343 76.1588 109.828 77.4463 109.828Z" fill="white"/>
<path d="M96.8238 109.571H96.695V108.283H94.5706V109.571H94.4418C92.9611 109.571 91.6736 110.086 90.5792 111.051C89.4847 112.017 88.9697 113.305 88.9697 114.978C88.9697 116.652 89.4847 117.875 90.5792 118.906C91.6736 119.871 92.9611 120.386 94.4418 120.386H94.5706V121.674H96.695V120.386H96.8238C98.3045 120.386 99.592 119.871 100.686 118.906C101.781 117.94 102.296 116.652 102.296 114.978C102.296 113.305 101.781 112.081 100.686 111.051C99.592 110.021 98.3045 109.571 96.8238 109.571ZM94.5706 118.519H94.3775C93.4118 118.519 92.5749 118.197 91.9311 117.554C91.2873 116.91 90.9654 116.009 90.9654 114.914C90.9654 113.755 91.2873 112.918 91.9311 112.275C92.5749 111.631 93.4118 111.309 94.3775 111.309H94.5706V118.519ZM99.2702 117.554C98.6264 118.197 97.7895 118.519 96.8238 118.519H96.6307V111.245H96.8238C97.7895 111.245 98.6264 111.566 99.2702 112.21C99.9139 112.854 100.236 113.755 100.236 114.85C100.3 116.073 99.9783 116.974 99.2702 117.554Z" fill="white"/>
<path d="M110.601 115.622H116.781V113.755H110.601V110.086H117.296V108.219H108.541V121.609H117.36V119.742H110.601V115.622Z" fill="white"/>
<path d="M132.875 109.378C131.974 108.605 130.815 108.219 129.399 108.219H123.541V121.545H125.601V116.717H129.399C130.88 116.717 132.038 116.33 132.875 115.558C133.777 114.785 134.163 113.755 134.163 112.468C134.163 111.18 133.777 110.15 132.875 109.378ZM131.395 114.27C130.88 114.721 130.236 114.914 129.27 114.914H125.601V110.086H129.27C130.171 110.086 130.88 110.279 131.395 110.729C131.91 111.18 132.103 111.76 132.103 112.532C132.103 113.305 131.91 113.884 131.395 114.27Z" fill="white"/>
<path d="M144.657 108.219H142.597L137.253 121.545H139.442L140.859 117.811H146.395L147.811 121.545H150L144.657 108.219ZM141.502 116.073L143.112 111.888L143.434 110.987C143.434 110.923 143.498 110.794 143.562 110.601C143.627 110.794 143.691 110.923 143.691 110.987L144.013 111.888L145.623 116.073H141.502Z" fill="white"/>
<path d="M45.5149 130.622H44.6136L42.8111 132.682V130.622H42.1029V132.682L40.3003 130.622H39.4634L41.1372 132.489L39.0771 135.322H39.9141L41.5879 133.004L42.1029 133.583V135.322H42.8111V133.583L43.3261 133.004L44.9999 135.322H45.8368L43.7767 132.489L45.5149 130.622Z" fill="white"/>
<path d="M47.3175 134.292V130.622H46.5449V135.322H47.3818L49.6994 131.588V135.322H50.4076V130.622H49.6351L47.3175 134.292Z" fill="white"/>
<path d="M51.9529 134.356C51.9529 134.485 51.8886 134.549 51.8886 134.613C51.8242 134.678 51.7598 134.678 51.6954 134.678C51.631 134.678 51.5667 134.678 51.5023 134.613L51.3735 135.257C51.5667 135.322 51.6954 135.322 51.8242 135.322C52.0817 135.322 52.2748 135.257 52.4036 135.128C52.5323 135 52.6611 134.807 52.6611 134.485L52.983 131.201H54.8499V135.257H55.5581V130.558H52.2748L51.9529 134.356Z" fill="white"/>
<path d="M60.3219 130.751C59.9357 130.558 59.5494 130.493 59.1631 130.493C58.7769 130.493 58.3906 130.558 58.0043 130.751C57.6181 130.944 57.3606 131.201 57.1031 131.588C56.8456 131.974 56.7168 132.424 56.7168 132.94C56.7168 133.455 56.8456 133.905 57.1031 134.291C57.3606 134.678 57.6825 134.935 58.0043 135.128C58.3906 135.321 58.7769 135.386 59.1631 135.386C59.5494 135.386 59.9357 135.321 60.3219 135.128C60.7082 134.935 60.9657 134.678 61.2232 134.291C61.4807 133.905 61.6095 133.455 61.6095 132.94C61.6095 132.424 61.4807 131.974 61.2232 131.588C61.0301 131.201 60.7082 130.944 60.3219 130.751ZM60.3863 134.291C60.0644 134.613 59.6782 134.806 59.1631 134.806C58.6481 134.806 58.2619 134.613 57.94 134.291C57.6181 133.97 57.4249 133.519 57.4249 133.004C57.4249 132.489 57.6181 132.038 57.94 131.716C58.2619 131.394 58.6481 131.201 59.1631 131.201C59.6782 131.201 60.0644 131.394 60.3863 131.716C60.7082 132.038 60.9013 132.489 60.9013 133.004C60.9013 133.455 60.7082 133.905 60.3863 134.291Z" fill="white"/>
<path d="M63.4762 134.292V130.622H62.7681V135.322H63.605L65.9226 131.588V135.322H66.6307V130.622H65.7938L63.4762 134.292Z" fill="white"/>
<path d="M64.3133 128.948H63.7339C63.7339 129.27 63.7983 129.463 63.9914 129.656C64.1845 129.85 64.3777 129.914 64.6996 129.914C65.0214 129.914 65.2146 129.85 65.4077 129.656C65.6008 129.463 65.6652 129.206 65.6652 128.948H65.0858C65.0858 129.206 64.9571 129.334 64.6996 129.334C64.442 129.334 64.3133 129.206 64.3133 128.948Z" fill="white"/>
<path d="M74.0985 130.622H73.2616L71.4591 132.682V130.622H70.6865V135.322H71.4591V133.648L71.9741 133.068L73.5835 135.322H74.4204L72.4891 132.489L74.0985 130.622Z" fill="white"/>
<path d="M78.1545 130.751C77.7682 130.558 77.3819 130.493 76.9957 130.493C76.6094 130.493 76.2231 130.558 75.8369 130.751C75.4506 130.944 75.1931 131.201 74.9356 131.588C74.6781 131.974 74.5493 132.424 74.5493 132.94C74.5493 133.455 74.6781 133.905 74.9356 134.291C75.1931 134.678 75.515 134.935 75.8369 135.128C76.2231 135.321 76.6094 135.386 76.9957 135.386C77.3819 135.386 77.7682 135.321 78.1545 135.128C78.5407 134.935 78.7982 134.678 79.0558 134.291C79.3133 133.905 79.442 133.455 79.442 132.94C79.442 132.424 79.3133 131.974 79.0558 131.588C78.8626 131.201 78.5407 130.944 78.1545 130.751ZM78.2188 134.291C77.897 134.613 77.5107 134.806 76.9957 134.806C76.4806 134.806 76.0944 134.613 75.7725 134.291C75.4506 133.97 75.2575 133.519 75.2575 133.004C75.2575 132.489 75.4506 132.038 75.7725 131.716C76.0944 131.394 76.4806 131.201 76.9957 131.201C77.5107 131.201 77.897 131.394 78.2188 131.716C78.5407 132.038 78.7339 132.489 78.7339 133.004C78.7339 133.455 78.5407 133.905 78.2188 134.291Z" fill="white"/>
<path d="M82.9187 134.678L81.438 130.622H80.6011V135.322H81.3092V132.038L82.5324 135.322H83.3049L84.5281 132.038V135.322H85.3006V130.622H84.4637L82.9187 134.678Z" fill="white"/>
<path d="M86.6523 135.322H87.4249V131.266H89.6781V135.322H90.4506V130.622H86.6523V135.322Z" fill="white"/>
<path d="M91.9315 134.356C91.9315 134.485 91.8671 134.549 91.8671 134.613C91.8027 134.678 91.7383 134.678 91.6739 134.678C91.6096 134.678 91.5452 134.678 91.4808 134.613L91.3521 135.257C91.5452 135.322 91.6739 135.322 91.8027 135.322C92.0602 135.322 92.2533 135.257 92.3821 135.128C92.5109 135 92.6396 134.807 92.6396 134.485L92.9615 131.201H94.8285V135.257H95.5366V130.558H92.2533L91.9315 134.356Z" fill="white"/>
<path d="M99.0773 130.493C98.4335 130.493 97.8541 130.751 97.4035 131.201C96.9528 131.652 96.6953 132.296 96.6953 133.004C96.6953 133.712 96.9528 134.291 97.4035 134.806C97.8541 135.257 98.4335 135.515 99.0773 135.515C100.043 135.515 100.751 135.064 101.202 134.163L100.687 133.841C100.494 134.163 100.3 134.42 100.043 134.613C99.7854 134.806 99.4635 134.871 99.0773 134.871C98.6266 134.871 98.2404 134.678 97.9185 134.356C97.5966 134.034 97.4678 133.583 97.4678 133.133H101.33V132.875C101.33 132.167 101.137 131.588 100.687 131.201C100.365 130.686 99.7854 130.493 99.0773 130.493ZM97.5322 132.489C97.5966 132.103 97.7897 131.716 98.0472 131.459C98.3048 131.201 98.6266 131.073 99.0773 131.073C99.4635 131.073 99.7854 131.201 100.107 131.459C100.429 131.716 100.558 132.038 100.622 132.489H97.5322Z" fill="white"/>
<path d="M105.901 130.622H105.064L103.262 132.682V130.622H102.489V135.322H103.262V133.648L103.777 133.068L105.386 135.322H106.223L104.292 132.489L105.901 130.622Z" fill="white"/>
<path d="M109.699 134.549C109.442 134.742 109.12 134.806 108.798 134.806C108.283 134.806 107.897 134.613 107.575 134.291C107.253 133.97 107.124 133.519 107.124 133.004C107.124 132.489 107.253 132.038 107.575 131.716C107.897 131.394 108.283 131.201 108.798 131.201C109.506 131.201 110.021 131.523 110.343 132.167L110.923 131.781C110.729 131.394 110.472 131.073 110.15 130.815C109.764 130.622 109.377 130.493 108.862 130.493C108.219 130.493 107.639 130.751 107.189 131.201C106.738 131.652 106.48 132.296 106.48 133.004C106.48 133.712 106.738 134.291 107.189 134.806C107.639 135.257 108.219 135.515 108.927 135.515C109.892 135.515 110.601 135.064 111.051 134.163L110.536 133.841C110.15 134.098 109.957 134.356 109.699 134.549Z" fill="white"/>
<path d="M86.5235 82.7253C82.339 80.9227 77.3819 80.7296 72.8755 82.5966C68.369 84.4635 64.957 88.0687 63.2832 92.3176C67.4678 94.1202 72.4248 94.3133 76.9313 92.4464C81.5021 90.5794 84.8497 86.9742 86.5235 82.7253Z" fill="white"/>
<path d="M69.0129 81.9524C70.2361 79.6348 70.3649 76.9953 69.5923 74.6777C67.2747 75.3859 65.2146 76.9953 63.9915 79.3129C62.7683 81.6305 62.6395 84.27 63.4121 86.5876C65.7297 85.8795 67.7898 84.27 69.0129 81.9524Z" fill="white"/>
<path d="M33.4763 58.004C36.824 60.7078 40.9442 61.7379 44.9356 61.2872C44.5493 57.2958 42.6824 53.4975 39.3347 50.7937C35.9871 48.0898 31.8669 47.0598 27.8755 47.5104C28.2618 51.5018 30.1287 55.3001 33.4763 58.004Z" fill="white"/>
<path d="M40.0428 48.7983C42.1672 44.9356 42.7466 40.3004 41.3303 35.794C39.914 31.2875 36.8239 27.8111 32.8968 25.8154C30.7724 29.6781 30.193 34.3133 31.6093 38.8197C32.9612 43.3262 36.1157 46.8025 40.0428 48.7983Z" fill="white"/>
<path d="M42.8755 51.1803C43.3262 53.7554 44.8068 55.8798 46.8026 57.2318C48.2189 55.3004 48.8626 52.7897 48.412 50.2146C47.9614 47.6395 46.4807 45.515 44.485 44.1631C43.0686 46.0944 42.4249 48.6051 42.8755 51.1803Z" fill="white"/>
<path d="M53.6266 88.7124C55.558 86.6523 56.7168 83.884 56.588 80.8583C56.4593 77.8325 55.1073 75.1287 52.9829 73.2617C51.2447 75.0643 50.1502 77.5106 50.0215 80.1501C49.0558 79.5064 47.9614 79.0557 46.8026 78.8626C46.4163 80.987 46.8026 83.3046 48.1545 85.1716C49.5065 87.1673 51.5022 88.3905 53.6266 88.7124Z" fill="white"/>
<path d="M91.5449 88.9698C94.2488 89.678 97.2745 89.2917 99.8496 87.7466C102.425 86.2016 104.099 83.6909 104.742 80.9226C102.296 80.2788 99.6565 80.5363 97.2745 81.6951C97.3389 80.5363 97.2101 79.3132 96.8239 78.2188C94.7638 78.8625 92.9612 80.3432 91.9312 82.4677C91.8668 82.5964 91.8668 82.6608 91.8024 82.7896C91.1587 81.3733 90.0642 80.2788 88.7767 79.6351C87.9398 81.1801 87.6823 83.0471 88.1973 84.8497C88.7123 86.781 89.9355 88.1973 91.5449 88.9698Z" fill="white"/>
<path d="M93.9915 16.0941C93.734 15.5147 93.4765 14.871 93.0902 14.2916C91.4808 11.7165 88.9057 10.0426 86.1374 9.52762C85.4937 12.2959 85.8799 15.2572 87.4894 17.8323C89.0988 20.4075 91.6739 22.0813 94.4422 22.5963C94.8284 20.9869 94.8284 19.2487 94.4422 17.5748C94.8284 18.5405 95.4078 19.5062 96.0516 20.3431C98.3048 18.6049 99.9143 16.0298 100.301 12.9396C100.687 9.91389 99.7211 6.95251 97.9186 4.76367C95.6653 6.50187 94.0559 9.07698 93.6696 12.1671C93.5409 13.519 93.6696 14.871 93.9915 16.0941Z" fill="white"/>
<path d="M58.9056 28.4545C60.0001 24.3987 59.485 19.9566 57.1674 16.0939C54.8498 12.2313 51.1803 9.65617 47.1245 8.75488C46.0301 12.8107 46.5451 17.2527 48.8627 21.1154C51.1159 24.9137 54.8498 27.4888 58.9056 28.4545Z" fill="white"/>
<path d="M42.8113 32.1887C46.9315 34.8282 51.6955 35.472 56.1375 34.4419C55.2362 29.9999 52.5967 25.9441 48.4766 23.3046C44.3564 20.6651 39.5925 20.0213 35.1504 21.0514C36.1161 25.4934 38.6912 29.5492 42.8113 32.1887Z" fill="white"/>
<path d="M62.5106 41.0086C62.1244 42.8756 62.2531 44.7425 62.7681 46.4163C62.1244 47.1245 61.6093 47.8326 61.1587 48.6696C64.0557 50.4721 67.6608 51.1159 71.2016 50.1502C74.7424 49.249 77.575 46.9314 79.2488 43.97C76.3518 42.1674 72.7467 41.5236 69.2059 42.4893C69.0128 42.5537 68.884 42.618 68.6909 42.618C68.6909 42.4893 68.7553 42.4249 68.7553 42.2962C69.399 39.3992 68.6909 36.5022 67.1458 34.1846C64.8926 35.6653 63.1544 38.0472 62.5106 41.0086Z" fill="white"/>
<path d="M117.039 54.7857C117.167 51.9531 116.33 49.1849 114.85 46.9316C112.081 48.7342 109.957 51.5668 109.12 55.0432C107.768 53.4338 106.03 52.3394 104.099 51.76C103.197 54.3995 103.39 57.3608 104.742 60.0003C106.094 62.6398 108.412 64.4424 110.987 65.2149C110.987 65.2149 110.987 65.2149 110.987 65.2793H111.051C113.82 65.1505 116.524 63.9274 118.455 61.6741C120.386 59.4209 121.288 56.5883 121.03 53.8201C119.678 53.7557 118.326 54.1419 117.039 54.7857Z" fill="white"/>
<path d="M70.558 63.0257C68.6911 60.1287 65.8585 58.1973 62.704 57.4892C62.704 57.4892 62.704 57.4248 62.6396 57.4248C62.6396 57.4248 62.6396 57.4248 62.5752 57.4248H62.5108C59.2919 57.8754 56.2662 59.5493 54.1417 62.3819C52.0816 65.2145 51.3735 68.6265 51.8885 71.8454C53.3692 71.6523 54.8499 71.1373 56.2018 70.4291C56.2018 74.163 57.5537 77.7038 59.807 80.5364C63.1546 77.9613 65.5366 74.0986 66.116 69.5922C66.116 69.5278 66.116 69.5278 66.116 69.4634C67.7898 71.0729 69.8499 72.1029 72.0387 72.5536C72.8756 69.4634 72.425 65.987 70.558 63.0257Z" fill="white"/>
<path d="M104.485 21.76C103.97 22.5326 103.519 23.3695 103.262 24.2064C103.069 22.6613 102.554 21.245 101.91 19.8931C98.6911 21.4382 96.116 24.2064 94.8284 27.8115C93.6052 31.4811 93.9915 35.215 95.6009 38.4339C99.7855 40.2364 104.743 40.4296 109.249 38.5626C113.82 36.6957 117.167 33.0905 118.841 28.8416C115.622 27.4897 112.017 27.039 108.476 27.7472C109.12 27.1678 109.7 26.524 110.215 25.7515C112.017 23.112 112.597 19.8931 111.953 16.9961C109.056 17.4467 106.352 19.1206 104.485 21.76Z" fill="white"/>
<path d="M58.9056 16.2872C58.8412 18.2186 59.6137 20.0211 60.8369 21.3087C62.1888 20.0855 63.0257 18.3473 63.0901 16.416C63.1545 14.4847 62.382 12.6821 61.1588 11.3945C59.8713 12.6177 58.97 14.3559 58.9056 16.2872Z" fill="white"/>
<path d="M80.6652 75.8372C82.5322 73.1333 83.1116 69.85 82.5322 66.8887C79.5064 67.4037 76.6738 69.0775 74.8069 71.7814C72.9399 74.4852 72.3605 77.7685 72.9399 80.7299C75.9013 80.2792 78.7339 78.6054 80.6652 75.8372Z" fill="white"/>
<path d="M85.0428 73.7124C87.7467 73.0042 90.193 71.3948 91.9956 69.0772C92.4462 69.9141 92.9613 70.6222 93.5406 71.3304C95.4076 69.6566 96.6952 67.2102 96.7595 64.5063C96.8883 61.8025 95.8582 59.2274 94.12 57.4248C91.9312 58.0042 89.9355 59.163 88.2617 60.7724C88.4548 59.9999 88.5192 59.2274 88.4548 58.4549C86.9097 58.5836 85.4291 59.2918 84.3346 60.6437C83.3046 61.9312 82.854 63.5407 83.0471 65.0857C84.0128 65.0214 84.9784 64.6995 85.8153 64.1201C84.399 67.1458 84.1415 70.6222 85.0428 73.7124Z" fill="white"/>
<path d="M109.957 49.2489C109.313 46.5451 107.704 44.1631 105.129 42.618C102.618 41.0729 99.6566 40.7511 97.0171 41.4592C97.6609 44.1631 99.2703 46.5451 101.845 48.0901C104.356 49.6352 107.318 49.9571 109.957 49.2489Z" fill="white"/>
<path d="M118.326 33.7979C117.039 35.6004 116.395 37.918 116.846 40.3C117.296 42.682 118.648 44.6777 120.515 45.9009C121.803 44.0983 122.446 41.7807 121.996 39.3987C121.545 37.0167 120.193 35.021 118.326 33.7979Z" fill="white"/>
<path d="M110.794 72.6178C110.73 73.5835 110.923 74.5491 111.245 75.4504C113.112 74.8067 114.786 73.5191 115.687 71.5878C116.588 69.6564 116.653 67.532 116.009 65.665C114.142 66.3088 112.468 67.5964 111.567 69.5277V69.5921C111.502 69.3346 111.438 69.0771 111.309 68.8195C110.73 67.532 109.7 66.5663 108.477 66.0513C107.962 67.2745 107.897 68.6908 108.477 69.9783C108.927 71.2015 109.764 72.0384 110.794 72.6178Z" fill="white"/>
<path d="M114.592 25.6866C115.622 25.0428 116.266 24.0772 116.459 22.9827C115.365 22.7252 114.206 22.854 113.176 23.4978C112.146 24.1415 111.502 25.1072 111.309 26.2016C112.404 26.4591 113.627 26.3304 114.592 25.6866Z" fill="white"/>
<path d="M116.652 45.7725C116.524 47.1888 117.039 48.6695 118.069 49.8283C119.099 50.9871 120.515 51.6308 121.996 51.6308C122.124 50.2145 121.609 48.7338 120.579 47.575C119.485 46.4162 118.069 45.8368 116.652 45.7725Z" fill="white"/>
<path d="M90.5149 22.7891C90.0642 23.8835 89.9998 25.171 90.5149 26.3942C91.0299 27.6174 91.9312 28.4543 93.09 28.9049C93.5406 27.8105 93.605 26.523 93.09 25.2998C92.575 24.0766 91.6737 23.2397 90.5149 22.7891Z" fill="white"/>
<path d="M35.9873 61.6742C35.3436 60.6442 34.2492 59.8716 32.9616 59.5497C31.674 59.2922 30.3865 59.5497 29.3564 60.2579C30.0002 61.2879 31.0946 62.0605 32.3822 62.3824C33.6698 62.6399 34.9573 62.318 35.9873 61.6742Z" fill="white"/>
<path d="M60.0642 91.5451C61.2874 90.1932 61.9312 88.3906 61.8024 86.4593C61.6736 84.5279 60.7724 82.8541 59.4204 81.6953C58.1972 83.0472 57.5535 84.8498 57.6822 86.7811C57.7466 88.6481 58.7123 90.3863 60.0642 91.5451Z" fill="white"/>
<path d="M29.9358 45.322C31.0302 46.2233 32.3822 46.5451 33.7341 46.4164C33.6053 45.1288 32.9616 43.8413 31.8671 42.94C30.7727 42.0387 29.4208 41.7168 28.0688 41.8456C28.1976 43.1975 28.8414 44.4207 29.9358 45.322Z" fill="white"/>
<path d="M69.7211 34.2488C70.043 33.2188 69.9786 32.1244 69.3992 31.0943C68.8198 30.0643 67.9186 29.4205 66.8885 29.0986C66.5666 30.1287 66.631 31.2231 67.2104 32.2531C67.7898 33.2832 68.7555 33.9913 69.7211 34.2488Z" fill="white"/>
<path d="M42.1031 18.9915C43.2619 19.5065 44.5494 19.5065 45.7082 19.0559C46.0301 17.8971 45.9014 16.6095 45.2576 15.5151C44.6138 14.4207 43.5194 13.6481 42.3606 13.3906C42.1031 14.2919 42.1675 15.2576 42.4894 16.2232C41.5237 15.9657 40.558 16.0945 39.6567 16.4164C40.043 17.4464 40.8799 18.4121 42.1031 18.9915Z" fill="white"/>
<path d="M76.9959 14.0987C76.9316 12.4892 76.2234 11.0086 75.129 9.97852C74.099 11.0729 73.4552 12.5536 73.5196 14.1631C73.5839 15.7725 74.2921 17.2532 75.3865 18.2832C76.4165 17.2532 77.0603 15.7725 76.9959 14.0987Z" fill="white"/>
<path d="M85.1716 79.2485C86.8455 78.3472 88.0042 76.8665 88.4549 75.1927C86.7811 74.6777 84.9141 74.742 83.2403 75.6433C81.5665 76.5446 80.4077 78.0253 79.957 79.6991C81.6309 80.2142 83.4978 80.1498 85.1716 79.2485Z" fill="white"/>
<path d="M100.429 73.0042C100.429 72.1673 100.236 71.3947 99.7209 70.6222C99.0771 69.7209 98.1758 69.2059 97.1458 69.0771C96.9526 70.0428 97.1458 71.1372 97.7895 71.9741C97.8539 72.1029 97.9183 72.1673 98.0471 72.2317C97.2102 72.1029 96.3089 72.1029 95.472 72.2317C93.09 72.6179 91.1586 73.9055 89.8711 75.7081C91.6093 77.06 93.9269 77.7038 96.3089 77.3175C97.3389 77.1887 98.2402 76.8025 99.0771 76.3518C98.7552 77.2531 98.6908 78.1544 98.9484 79.0557C99.9784 78.7982 100.944 78.09 101.523 77.06C102.103 76.0299 102.167 74.8711 101.91 73.8411C101.395 73.5192 100.944 73.1973 100.429 73.0042Z" fill="white"/>
<path d="M89.6781 88.8415C87.9399 88.2621 86.0085 88.3908 84.2703 89.2921C82.5321 90.1934 81.309 91.7385 80.7939 93.5411C82.5321 94.1205 84.4635 93.9917 86.2017 93.0904C87.9399 92.1891 89.1631 90.5797 89.6781 88.8415Z" fill="white"/>
<path d="M79.3778 39.0127C79.1203 40.3002 79.3778 41.7166 80.2147 42.8754C81.0516 44.0342 82.2748 44.7423 83.5624 44.9354C83.8199 43.6479 83.5624 42.2316 82.7254 41.0728C81.8885 39.914 80.6654 39.2058 79.3778 39.0127Z" fill="white"/>
<path d="M78.2831 66.8886C78.605 65.0217 78.2831 63.026 77.2531 61.2878C77.5106 61.3522 77.7037 61.3522 77.9612 61.4165C79.7638 61.6097 81.502 61.0303 82.7895 59.9359C81.7595 58.5839 80.2144 57.6826 78.3475 57.4895C76.8668 57.3607 75.4505 57.6826 74.2273 58.4552C73.3904 58.0045 72.5535 57.6826 71.5878 57.5539C71.2015 59.614 71.6522 61.8028 72.9397 63.6054C74.2917 65.4723 76.223 66.5668 78.2831 66.8886Z" fill="white"/>
<path d="M72.8111 32.7678C71.1373 35.2142 70.4935 38.1112 70.751 40.8794C73.9699 40.6863 77.1888 39.2056 79.442 36.5661C80.2789 35.6005 80.9227 34.506 81.4377 33.3472C81.309 34.3773 81.4377 35.4717 81.8884 36.5661C82.5965 38.3043 83.9484 39.5275 85.5579 40.2357C86.266 38.6262 86.3304 36.8236 85.6223 35.0854C84.9141 33.4116 83.6266 32.1884 82.0815 31.4803C82.4034 30.1284 82.5321 28.712 82.4034 27.2957C80.0214 27.4245 77.7682 28.2614 75.7725 29.7421C75.5793 29.3558 75.3862 28.9696 75.1287 28.5833C73.9055 26.8451 72.0386 25.7507 70.1073 25.4932C69.721 27.4245 70.1073 29.549 71.3948 31.2872C71.7167 31.8022 72.2317 32.3172 72.8111 32.7678Z" fill="white"/>
<path d="M47.9612 44.0343C48.09 45.4506 48.605 46.8025 49.3775 47.9613C51.1157 46.8025 52.4677 44.9356 52.9183 42.7467C53.3689 40.5579 52.8539 38.3047 51.6307 36.5665C50.6007 37.2746 49.6994 38.1759 49.0556 39.2703C48.9913 39.1416 48.9269 39.0128 48.7981 38.8841C47.575 37.1459 45.708 36.0515 43.7767 35.7939C43.3904 37.7253 43.7767 39.8497 45.0642 41.5879C45.7724 42.6824 46.8024 43.4549 47.9612 44.0343Z" fill="white"/>
<path d="M79.3779 47.5108C80.408 48.8627 81.953 49.764 83.82 49.9571C85.4294 50.1503 86.9745 49.6996 88.2621 48.7983C89.099 49.3134 90.0002 49.6353 90.9659 49.764C91.3522 47.8327 90.9659 45.7082 89.6784 43.97C88.4552 42.2318 86.5882 41.1374 84.6569 40.8799C84.335 42.7468 84.6569 44.6782 85.7513 46.4164C85.2363 46.2232 84.7213 46.0945 84.2063 46.0301C82.4037 45.9013 80.6655 46.4807 79.3779 47.5108Z" fill="white"/>
<path d="M106.996 17.6391C108.283 16.6734 109.056 15.3215 109.313 13.8408C108.026 13.5833 106.609 13.8408 105.386 14.549V14.4846C105.708 12.7464 105.257 11.0082 104.292 9.65625C102.94 10.5575 101.91 12.0382 101.588 13.7764C101.266 15.5146 101.717 17.2528 102.682 18.6048C104.163 18.9266 105.708 18.6048 106.996 17.6391Z" fill="white"/>
<path d="M114.592 45.6439C115.429 44.4207 115.816 42.8756 115.558 41.3306C115.236 39.7211 114.335 38.4336 113.112 37.5967C112.339 38.6911 111.953 40.043 112.082 41.4593C112.082 41.4593 112.082 41.4593 112.017 41.395C110.601 40.3649 108.863 39.9787 107.189 40.3005C107.446 41.91 108.283 43.455 109.764 44.5495C111.245 45.5795 112.983 45.9658 114.592 45.6439Z" fill="white"/>
<path d="M94.1203 3.2832C92.704 3.2832 91.3521 3.79822 90.322 4.89265C89.292 5.98707 88.7769 7.40338 88.8413 8.75531C90.2576 8.75531 91.6096 8.24028 92.6396 7.14586C93.6697 6.11582 94.1203 4.69951 94.1203 3.2832Z" fill="white"/>
<path d="M69.9143 0.322266C68.6912 0.322266 67.468 0.772909 66.5023 1.73857C65.5367 2.70424 65.1504 3.92742 65.1504 5.15059C66.3736 5.15059 67.5967 4.69995 68.5624 3.73428C69.5281 2.76862 69.9787 1.54544 69.9143 0.322266Z" fill="white"/>
<path d="M84.3989 8.69091C85.8152 8.24027 87.0383 7.21023 87.7465 5.79392C88.4547 4.37761 88.519 2.76816 88.004 1.35186C86.7165 1.73812 85.622 2.63941 84.8495 3.79821V3.73383C84.3345 2.06001 83.1113 0.708079 81.6306 -0.0644531C80.8581 1.41623 80.6006 3.15443 81.1156 4.82825C81.7594 6.63083 82.9182 7.91838 84.3989 8.69091Z" fill="white"/>
<path d="M55.4293 9.1413C55.365 10.2357 55.4937 11.3301 55.88 12.3602C57.8113 11.7164 59.5495 10.3645 60.5152 8.36876C60.5152 8.36876 60.5152 8.30439 60.5796 8.30439C61.2233 9.91383 62.4465 11.2014 63.9272 11.9095C64.8285 10.3001 65.086 8.36876 64.4422 6.43743C63.7984 4.5061 62.5109 3.08979 60.9014 2.25288C58.8414 2.05975 56.7169 2.63915 55.0431 4.05546C53.3692 5.47177 52.4036 7.46748 52.2104 9.52756C53.3049 9.59194 54.3993 9.46318 55.4293 9.1413Z" fill="white"/>
<path d="M76.8669 26.7807C78.2188 25.8794 79.2488 24.4631 79.5707 22.7249C79.8926 20.9867 79.5064 19.3129 78.5407 17.9609C77.3175 18.7335 76.4162 19.9566 75.9656 21.4373V21.373C74.9355 19.7635 73.2617 18.6691 71.5235 18.3472C71.1373 20.0854 71.3948 22.0167 72.4248 23.6262C73.4548 25.4287 75.0643 26.4588 76.8669 26.7807Z" fill="white"/>
<path d="M37.4032 73.9059C39.3989 73.2621 41.1371 71.7814 42.1027 69.7214C43.0684 67.6613 43.1328 65.408 42.3603 63.4767C40.6221 62.7042 38.6264 62.5754 36.7594 63.2836C34.8925 63.9917 33.4761 65.4724 32.7036 67.2106C34.2487 67.9188 35.9869 68.1119 37.7251 67.5969C37.7251 67.5969 37.7251 67.6613 37.6607 67.6613C36.695 69.7213 36.6306 71.9102 37.4032 73.9059Z" fill="white"/>
</g>
<defs>
<clipPath id="clip0">
<rect width="150" height="135.451" fill="white"/>
</clipPath>
</defs>
</svg>
