<svg width="58" height="70" viewBox="0 0 58 70" fill="none" xmlns="http://www.w3.org/2000/svg">
<path d="M57.2727 28.6364C57.2727 50.9091 28.6364 70 28.6364 70C28.6364 70 0 50.9091 0 28.6364C1.13172e-07 21.0415 3.01704 13.7578 8.3874 8.3874C13.7578 3.01704 21.0415 0 28.6364 0C36.2312 0 43.515 3.01704 48.8853 8.3874C54.2557 13.7578 57.2727 21.0415 57.2727 28.6364Z" fill="#4A7755"/>
<path d="M32.2924 41.2216C30.9872 40.6594 29.4412 40.5991 28.0357 41.1814C26.6302 41.7637 25.566 42.8881 25.0439 44.2133C26.3491 44.7755 27.8951 44.8357 29.3006 44.2535C30.7262 43.6712 31.7703 42.5468 32.2924 41.2216Z" fill="white"/>
<path d="M26.8309 40.9808C27.2124 40.258 27.2525 39.4347 27.0116 38.7119C26.2888 38.9328 25.6462 39.4347 25.2648 40.1576C24.8833 40.8804 24.8431 41.7036 25.084 42.4265C25.8069 42.2056 26.4494 41.7036 26.8309 40.9808Z" fill="white"/>
<path d="M15.7468 33.5108C16.7909 34.3541 18.076 34.6753 19.3209 34.5348C19.2004 33.2899 18.6181 32.1052 17.574 31.2619C16.5299 30.4186 15.2449 30.0974 14 30.2379C14.1205 31.4828 14.7028 32.6675 15.7468 33.5108Z" fill="white"/>
<path d="M17.795 30.6398C18.4576 29.4351 18.6383 27.9894 18.1965 26.5839C17.7548 25.1784 16.791 24.0941 15.5662 23.4717C14.9036 24.6764 14.7229 26.1221 15.1647 27.5276C15.5863 28.9331 16.5702 30.0173 17.795 30.6398Z" fill="white"/>
<path d="M18.6776 31.3819C18.8182 32.1851 19.28 32.8477 19.9024 33.2693C20.3442 32.667 20.5449 31.8839 20.4044 31.0808C20.2638 30.2776 19.802 29.615 19.1796 29.1934C18.7379 29.7957 18.5371 30.5788 18.6776 31.3819Z" fill="white"/>
<path d="M22.031 43.0874C22.6334 42.4449 22.9948 41.5815 22.9546 40.6378C22.9145 39.6941 22.4928 38.8508 21.8302 38.2686C21.2881 38.8308 20.9468 39.5937 20.9066 40.417C20.6054 40.2162 20.2641 40.0756 19.9027 40.0154C19.7822 40.678 19.9027 41.4008 20.3243 41.9831C20.746 42.6056 21.3684 42.9871 22.031 43.0874Z" fill="white"/>
<path d="M33.8587 43.1695C34.702 43.3904 35.6457 43.2699 36.4489 42.7881C37.252 42.3062 37.7741 41.5231 37.9749 40.6597C37.2119 40.4589 36.3886 40.5392 35.6457 40.9007C35.6658 40.5392 35.6256 40.1577 35.5052 39.8164C34.8627 40.0172 34.3005 40.479 33.9792 41.1416C33.9591 41.1818 33.9591 41.2018 33.939 41.242C33.7383 40.8003 33.3969 40.4589 32.9953 40.2581C32.7343 40.74 32.654 41.3223 32.8146 41.8845C32.9753 42.4869 33.3568 42.9286 33.8587 43.1695Z" fill="white"/>
<path d="M34.6201 20.4391C34.5398 20.2584 34.4595 20.0576 34.339 19.8769C33.837 19.0738 33.0339 18.5517 32.1705 18.3911C31.9697 19.2545 32.0902 20.1781 32.5921 20.9812C33.0941 21.7844 33.8973 22.3064 34.7606 22.4671C34.8811 21.9651 34.8811 21.423 34.7606 20.9009C34.8811 21.2021 35.0618 21.5033 35.2626 21.7643C35.9654 21.2222 36.4673 20.419 36.5878 19.4553C36.7083 18.5116 36.4071 17.5879 35.8449 16.9053C35.1421 17.4474 34.6402 18.2505 34.5197 19.2143C34.4795 19.636 34.5197 20.0576 34.6201 20.4391Z" fill="white"/>
<path d="M23.6787 24.2945C24.02 23.0295 23.8594 21.6441 23.1366 20.4394C22.4137 19.2346 21.2693 18.4315 20.0043 18.1504C19.663 19.4153 19.8236 20.8008 20.5464 22.0055C21.2492 23.1901 22.4137 23.9933 23.6787 24.2945Z" fill="white"/>
<path d="M18.6589 25.4599C19.9439 26.2831 21.4298 26.4839 22.8152 26.1627C22.5341 24.7772 21.7109 23.5123 20.4258 22.689C19.1408 21.8658 17.655 21.665 16.2695 21.9863C16.5707 23.3717 17.3739 24.6367 18.6589 25.4599Z" fill="white"/>
<path d="M24.8025 28.2113C24.682 28.7936 24.7222 29.3759 24.8828 29.898C24.682 30.1188 24.5214 30.3397 24.3809 30.6007C25.2844 31.1629 26.4088 31.3637 27.5131 31.0625C28.6175 30.7814 29.5009 30.0586 30.023 29.135C29.1194 28.5728 27.995 28.372 26.8907 28.6732C26.8305 28.6932 26.7903 28.7133 26.7301 28.7133C26.7301 28.6732 26.7501 28.6531 26.7501 28.6129C26.9509 27.7094 26.7301 26.8058 26.2482 26.083C25.5454 26.5448 25.0033 27.2877 24.8025 28.2113Z" fill="white"/>
<path d="M41.8087 32.5072C41.8488 31.6238 41.5878 30.7604 41.126 30.0576C40.2626 30.6198 39.6 31.5033 39.339 32.5875C38.9173 32.0856 38.3752 31.7442 37.7728 31.5635C37.4917 32.3867 37.552 33.3104 37.9736 34.1336C38.3953 34.9568 39.1181 35.519 39.9213 35.76C39.9213 35.76 39.9213 35.76 39.9213 35.78H39.9413C40.8047 35.7399 41.648 35.3584 42.2504 34.6556C42.8527 33.9529 43.1338 33.0694 43.0535 32.206C42.6319 32.186 42.2102 32.3064 41.8087 32.5072Z" fill="white"/>
<path d="M27.3121 35.0769C26.7299 34.1734 25.8464 33.571 24.8625 33.3502C24.8625 33.3502 24.8625 33.3301 24.8425 33.3301C24.8425 33.3301 24.8425 33.3301 24.8224 33.3301H24.8023C23.7984 33.4706 22.8547 33.9927 22.1921 34.8761C21.5496 35.7596 21.3287 36.8238 21.4893 37.8277C21.9511 37.7675 22.4129 37.6068 22.8346 37.386C22.8346 38.5505 23.2562 39.6549 23.959 40.5383C25.0031 39.7352 25.746 38.5305 25.9267 37.125C25.9267 37.1049 25.9267 37.1049 25.9267 37.0848C26.4488 37.5868 27.0913 37.908 27.774 38.0486C28.035 37.0848 27.8944 36.0005 27.3121 35.0769Z" fill="white"/>
<path d="M37.8931 22.2056C37.7325 22.4465 37.5919 22.7075 37.5116 22.9685C37.4514 22.4867 37.2907 22.0449 37.09 21.6233C36.086 22.1052 35.2829 22.9685 34.8813 24.0929C34.4998 25.2374 34.6203 26.402 35.1222 27.4059C36.4274 27.9681 37.9734 28.0284 39.3789 27.4461C40.8045 26.8638 41.8486 25.7394 42.3707 24.4142C41.3667 23.9926 40.2423 23.852 39.138 24.0729C39.3388 23.8922 39.5195 23.6914 39.6801 23.4504C40.2423 22.6272 40.423 21.6233 40.2222 20.7197C39.3187 20.8603 38.4754 21.3823 37.8931 22.2056Z" fill="white"/>
<path d="M23.6779 20.4996C23.6578 21.102 23.8988 21.6642 24.2803 22.0658C24.7019 21.6843 24.963 21.1421 24.983 20.5398C25.0031 19.9374 24.7622 19.3752 24.3807 18.9736C23.9791 19.3551 23.698 19.8973 23.6779 20.4996Z" fill="white"/>
<path d="M30.4644 39.0732C31.0467 38.2299 31.2274 37.2058 31.0467 36.2822C30.103 36.4429 29.2195 36.9649 28.6372 37.8082C28.0549 38.6515 27.8742 39.6755 28.0549 40.5991C28.9786 40.4586 29.862 39.9366 30.4644 39.0732Z" fill="white"/>
<path d="M31.8299 38.41C32.6732 38.1891 33.4362 37.6872 33.9984 36.9643C34.139 37.2253 34.2996 37.4462 34.4803 37.6671C35.0626 37.145 35.4642 36.382 35.4842 35.5387C35.5244 34.6954 35.2031 33.8923 34.661 33.3301C33.9783 33.5108 33.3559 33.8722 32.8338 34.3742C32.8941 34.1332 32.9142 33.8923 32.8941 33.6513C32.4122 33.6915 31.9504 33.9124 31.609 34.334C31.2878 34.7356 31.1472 35.2376 31.2075 35.7194C31.5086 35.6994 31.8098 35.599 32.0709 35.4183C31.6291 36.362 31.5488 37.4462 31.8299 38.41Z" fill="white"/>
<path d="M39.6003 30.7803C39.3995 29.937 38.8975 29.1941 38.0944 28.7122C37.3113 28.2303 36.3877 28.1299 35.5645 28.3508C35.7652 29.1941 36.2672 29.937 37.0704 30.4189C37.8534 30.9008 38.777 31.0012 39.6003 30.7803Z" fill="white"/>
<path d="M42.2111 25.9609C41.8095 26.5231 41.6088 27.246 41.7493 27.9889C41.8899 28.7318 42.3115 29.3542 42.8938 29.7357C43.2954 29.1735 43.4962 28.4507 43.3556 27.7078C43.2151 26.9649 42.7934 26.3424 42.2111 25.9609Z" fill="white"/>
<path d="M39.8622 38.0689C39.8421 38.3701 39.9023 38.6713 40.0027 38.9524C40.585 38.7516 41.1071 38.35 41.3882 37.7476C41.6693 37.1453 41.6893 36.4827 41.4885 35.9004C40.9063 36.1012 40.3842 36.5028 40.1031 37.1051V37.1252C40.083 37.0449 40.063 36.9646 40.0228 36.8842C39.8421 36.4827 39.5208 36.1815 39.1393 36.0209C38.9787 36.4024 38.9586 36.8441 39.1393 37.2457C39.2799 37.6272 39.5409 37.8882 39.8622 38.0689Z" fill="white"/>
<path d="M41.0455 23.4309C41.3668 23.2301 41.5675 22.9289 41.6278 22.5876C41.2864 22.5073 40.925 22.5475 40.6038 22.7482C40.2825 22.949 40.0817 23.2502 40.0215 23.5915C40.3628 23.6719 40.7443 23.6317 41.0455 23.4309Z" fill="white"/>
<path d="M41.6887 29.6953C41.6485 30.137 41.8092 30.5989 42.1304 30.9603C42.4517 31.3217 42.8934 31.5225 43.3552 31.5225C43.3954 31.0807 43.2347 30.6189 42.9135 30.2575C42.5721 29.8961 42.1304 29.7154 41.6887 29.6953Z" fill="white"/>
<path d="M33.5354 22.5283C33.3949 22.8697 33.3748 23.2712 33.5354 23.6527C33.6961 24.0342 33.9772 24.2952 34.3386 24.4358C34.4791 24.0945 34.4992 23.6929 34.3386 23.3114C34.178 22.9299 33.8968 22.6689 33.5354 22.5283Z" fill="white"/>
<path d="M16.53 34.6549C16.3292 34.3337 15.9879 34.0927 15.5863 33.9924C15.1847 33.912 14.7832 33.9924 14.4619 34.2132C14.6627 34.5345 15.004 34.7754 15.4056 34.8758C15.8072 34.9561 16.2088 34.8557 16.53 34.6549Z" fill="white"/>
<path d="M24.0395 43.9724C24.421 43.5508 24.6218 42.9886 24.5816 42.3862C24.5414 41.7839 24.2603 41.2618 23.8387 40.9004C23.4572 41.322 23.2564 41.8842 23.2966 42.4866C23.3166 43.0689 23.6178 43.611 24.0395 43.9724Z" fill="white"/>
<path d="M14.6423 29.5556C14.9837 29.8367 15.4053 29.9371 15.827 29.897C15.7868 29.4954 15.586 29.0938 15.2447 28.8127C14.9034 28.5316 14.4817 28.4312 14.0601 28.4714C14.1002 28.893 14.301 29.2745 14.6423 29.5556Z" fill="white"/>
<path d="M27.0515 26.1014C27.1519 25.7802 27.1318 25.4388 26.9511 25.1176C26.7704 24.7963 26.4893 24.5955 26.168 24.4951C26.0676 24.8164 26.0877 25.1577 26.2684 25.479C26.4491 25.8002 26.7503 26.0211 27.0515 26.1014Z" fill="white"/>
<path d="M18.4378 21.3435C18.7992 21.5042 19.2008 21.5042 19.5622 21.3636C19.6626 21.0022 19.6224 20.6006 19.4217 20.2593C19.2209 19.9179 18.8795 19.677 18.5181 19.5967C18.4378 19.8778 18.4579 20.179 18.5583 20.4801C18.2571 20.3998 17.9559 20.44 17.6748 20.5404C17.7953 20.8616 18.0563 21.1628 18.4378 21.3435Z" fill="white"/>
<path d="M29.3195 19.8173C29.2994 19.3153 29.0786 18.8535 28.7372 18.5322C28.416 18.8736 28.2152 19.3354 28.2353 19.8373C28.2553 20.3393 28.4762 20.8011 28.8175 21.1224C29.1388 20.8011 29.3396 20.3393 29.3195 19.8173Z" fill="white"/>
<path d="M31.87 40.1374C32.3921 39.8563 32.7535 39.3944 32.894 38.8724C32.372 38.7118 31.7897 38.7318 31.2677 39.0129C30.7456 39.294 30.3842 39.7559 30.2437 40.2779C30.7657 40.4385 31.348 40.4185 31.87 40.1374Z" fill="white"/>
<path d="M36.6288 38.1887C36.6288 37.9276 36.5686 37.6867 36.408 37.4458C36.2072 37.1647 35.9261 37.004 35.6048 36.9639C35.5446 37.265 35.6048 37.6064 35.8056 37.8674C35.8257 37.9076 35.8458 37.9276 35.8859 37.9477C35.6249 37.9076 35.3438 37.9076 35.0828 37.9477C34.3399 38.0682 33.7375 38.4698 33.3359 39.032C33.8781 39.4536 34.6009 39.6544 35.3438 39.5339C35.6651 39.4938 35.9462 39.3733 36.2072 39.2328C36.1068 39.5139 36.0867 39.795 36.167 40.0761C36.4883 39.9958 36.7895 39.7749 36.9702 39.4536C37.1509 39.1324 37.171 38.7709 37.0907 38.4497C36.93 38.3493 36.7895 38.2489 36.6288 38.1887Z" fill="white"/>
<path d="M33.2757 43.1281C32.7336 42.9474 32.1313 42.9876 31.5891 43.2687C31.047 43.5498 30.6655 44.0316 30.5049 44.5939C31.047 44.7746 31.6494 44.7344 32.1915 44.4533C32.7336 44.1722 33.1151 43.6702 33.2757 43.1281Z" fill="white"/>
<path d="M30.064 27.5879C29.9837 27.9895 30.064 28.4312 30.325 28.7926C30.586 29.154 30.9675 29.3749 31.3691 29.4351C31.4494 29.0336 31.3691 28.5918 31.1081 28.2304C30.8471 27.869 30.4656 27.6481 30.064 27.5879Z" fill="white"/>
<path d="M29.7212 36.2809C29.8216 35.6986 29.7212 35.0762 29.3999 34.5341C29.4803 34.5541 29.5405 34.5541 29.6208 34.5742C30.183 34.6345 30.7251 34.4538 31.1267 34.1124C30.8054 33.6908 30.3236 33.4097 29.7413 33.3494C29.2795 33.3093 28.8377 33.4097 28.4562 33.6506C28.1952 33.5101 27.9342 33.4097 27.633 33.3695C27.5125 34.012 27.6531 34.6947 28.0547 35.2569C28.4763 35.8392 29.0787 36.1805 29.7212 36.2809Z" fill="white"/>
<path d="M28.0143 25.639C27.4923 26.402 27.2915 27.3055 27.3718 28.1689C28.3758 28.1087 29.3797 27.6469 30.0824 26.8237C30.3435 26.5225 30.5443 26.1811 30.7049 25.8197C30.6647 26.141 30.7049 26.4823 30.8454 26.8237C31.0663 27.3658 31.488 27.7473 31.9899 27.9681C32.2108 27.4662 32.2309 26.904 32.01 26.3618C31.7891 25.8398 31.3876 25.4583 30.9057 25.2374C31.0061 24.8158 31.0462 24.3741 31.0061 23.9323C30.2632 23.9725 29.5604 24.2335 28.938 24.6953C28.8777 24.5748 28.8175 24.4544 28.7372 24.3339C28.3557 23.7918 27.7734 23.4504 27.171 23.3701C27.0506 23.9725 27.171 24.6351 27.5726 25.1772C27.673 25.3378 27.8336 25.4985 28.0143 25.639Z" fill="white"/>
<path d="M20.2647 29.1531C20.3049 29.5948 20.4655 30.0165 20.7065 30.3779C21.2486 30.0165 21.6702 29.4342 21.8108 28.7515C21.9513 28.0688 21.7907 27.3661 21.4092 26.824C21.0879 27.0448 20.8068 27.3259 20.6061 27.6673C20.586 27.6271 20.5659 27.5869 20.5257 27.5468C20.1443 27.0047 19.562 26.6633 18.9596 26.583C18.8391 27.1854 18.9596 27.848 19.3612 28.3901C19.582 28.7314 19.9033 28.9724 20.2647 29.1531Z" fill="white"/>
<path d="M30.063 30.239C30.3842 30.6607 30.8661 30.9418 31.4484 31.002C31.9504 31.0622 32.4323 30.9217 32.8339 30.6406C33.0949 30.8012 33.376 30.9016 33.6772 30.9418C33.7976 30.3394 33.6772 29.6768 33.2756 29.1347C32.8941 28.5926 32.3118 28.2512 31.7094 28.1709C31.609 28.7532 31.7094 29.3555 32.0508 29.8977C31.8901 29.8374 31.7295 29.7973 31.5689 29.7772C31.0067 29.737 30.4646 29.9177 30.063 30.239Z" fill="white"/>
<path d="M38.6768 20.9214C39.0783 20.6202 39.3193 20.1986 39.3996 19.7368C38.998 19.6564 38.5563 19.7368 38.1748 19.9576V19.9375C38.2752 19.3954 38.1346 18.8533 37.8335 18.4316C37.4118 18.7127 37.0905 19.1746 36.9901 19.7167C36.8898 20.2588 37.0303 20.8009 37.3315 21.2226C37.7933 21.323 38.2752 21.2226 38.6768 20.9214Z" fill="white"/>
<path d="M41.0454 29.6553C41.3064 29.2738 41.4269 28.792 41.3466 28.3101C41.2462 27.8081 40.9651 27.4065 40.5836 27.1455C40.3426 27.4868 40.2222 27.9085 40.2623 28.3502C40.2623 28.3502 40.2623 28.3502 40.2422 28.3302C39.8005 28.0089 39.2584 27.8884 38.7363 27.9888C38.8166 28.4908 39.0777 28.9727 39.5395 29.314C40.0013 29.6353 40.5434 29.7557 41.0454 29.6553Z" fill="white"/>
<path d="M34.6618 16.4443C34.2201 16.4443 33.7984 16.605 33.4772 16.9463C33.1559 17.2876 32.9953 17.7294 33.0153 18.151C33.4571 18.151 33.8787 17.9904 34.2 17.6491C34.5213 17.3278 34.6618 16.8861 34.6618 16.4443Z" fill="white"/>
<path d="M27.1108 15.5195C26.7293 15.5195 26.3478 15.6601 26.0467 15.9613C25.7455 16.2624 25.625 16.6439 25.625 17.0254C26.0065 17.0254 26.388 16.8849 26.6892 16.5837C26.9904 16.2825 27.1309 15.901 27.1108 15.5195Z" fill="white"/>
<path d="M31.6286 18.1301C32.0703 17.9896 32.4518 17.6683 32.6727 17.2266C32.8935 16.7848 32.9136 16.2829 32.753 15.8411C32.3514 15.9616 32.0101 16.2427 31.7691 16.6041V16.5841C31.6085 16.062 31.227 15.6404 30.7652 15.3994C30.5243 15.8612 30.4439 16.4033 30.6046 16.9254C30.8054 17.4876 31.1668 17.8892 31.6286 18.1301Z" fill="white"/>
<path d="M22.5933 18.272C22.5732 18.6133 22.6134 18.9547 22.7338 19.2759C23.3362 19.0751 23.8783 18.6535 24.1795 18.031C24.1795 18.031 24.1795 18.011 24.1996 18.011C24.4004 18.5129 24.7819 18.9145 25.2437 19.1354C25.5248 18.6334 25.6051 18.031 25.4043 17.4287C25.2035 16.8263 24.8019 16.3846 24.3 16.1236C23.6575 16.0633 22.9949 16.244 22.4728 16.6858C21.9508 17.1275 21.6496 17.7499 21.5894 18.3925C21.9307 18.4125 22.272 18.3724 22.5933 18.272Z" fill="white"/>
<path d="M29.2793 23.7723C29.7009 23.4912 30.0222 23.0494 30.1226 22.5073C30.223 21.9652 30.1025 21.4431 29.8013 21.0215C29.4198 21.2624 29.1387 21.6439 28.9982 22.1057V22.0857C28.6769 21.5837 28.1549 21.2424 27.6127 21.142C27.4923 21.6841 27.5726 22.2864 27.8938 22.7884C28.2151 23.3506 28.7171 23.6719 29.2793 23.7723Z" fill="white"/>
<path d="M16.9711 38.4688C17.5936 38.268 18.1357 37.8062 18.4369 37.1637C18.738 36.5212 18.7581 35.8184 18.5172 35.2161C17.9751 34.9751 17.3526 34.935 16.7703 35.1558C16.188 35.3767 15.7463 35.8385 15.5054 36.3806C15.9873 36.6015 16.5294 36.6617 17.0715 36.5011C17.0715 36.5011 17.0715 36.5212 17.0514 36.5212C16.7503 37.1637 16.7302 37.8464 16.9711 38.4688Z" fill="white"/>
</svg>
