<svg width="41" height="50" viewBox="0 0 41 50" fill="none" xmlns="http://www.w3.org/2000/svg">
<path d="M40.9091 20.4545C40.9091 36.3636 20.4545 50 20.4545 50C20.4545 50 0 36.3636 0 20.4545C8.0837e-08 15.0297 2.15503 9.82697 5.991 5.991C9.82697 2.15503 15.0297 0 20.4545 0C25.8794 0 31.0821 2.15503 34.9181 5.991C38.7541 9.82697 40.9091 15.0297 40.9091 20.4545Z" fill="#4A7755"/>
<g clip-path="url(#clip0)">
<path d="M30.9583 28.0282C30.9583 27.1901 30.4208 26.4755 29.6725 26.2101V19.5582L31 19.0276L19.9858 14.6252L9 19.0276L14.2 21.1114V24.1708C14.2 25.1139 14.8612 25.9639 16.0618 26.5643C17.1207 27.0938 18.5144 27.3853 19.9861 27.3853C21.4577 27.3853 22.8514 27.0938 23.9103 26.5643C25.1109 25.9639 25.7721 25.114 25.7721 24.1708V21.1172L28.3866 20.0722V26.2101C27.6383 26.4755 27.1008 27.1901 27.1008 28.0282C27.1008 28.795 27.5506 29.4585 28.2001 29.7692L27.1338 32.9681L28.3536 33.3747L29.0295 31.3471L29.7054 33.3747L30.9253 32.9681L29.859 29.7692C30.5084 29.4585 30.9583 28.7949 30.9583 28.0282ZM24.4864 24.1708C24.4864 25.0812 22.5618 26.0995 19.9861 26.0995C17.4104 26.0995 15.4858 25.0812 15.4858 24.1708V21.6266L19.9858 23.43L24.4864 21.631V24.1708H24.4864ZM19.9864 22.045L12.4566 19.0276L19.9864 16.0102L27.5356 19.0276L19.9864 22.045ZM29.0295 28.6711C28.6751 28.6711 28.3866 28.3827 28.3866 28.0282C28.3866 27.6737 28.6751 27.3853 29.0295 27.3853C29.384 27.3853 29.6724 27.6737 29.6724 28.0282C29.6724 28.3827 29.384 28.6711 29.0295 28.6711Z" fill="white"/>
</g>
<defs>
<clipPath id="clip0">
<rect width="22" height="22" fill="white" transform="translate(9 13)"/>
</clipPath>
</defs>
</svg>
