<svg width="41" height="50" viewBox="0 0 41 50" fill="none" xmlns="http://www.w3.org/2000/svg">
<path d="M40.9091 20.4545C40.9091 36.3636 20.4545 50 20.4545 50C20.4545 50 0 36.3636 0 20.4545C8.0837e-08 15.0297 2.15503 9.82697 5.991 5.991C9.82697 2.15503 15.0297 0 20.4545 0C25.8794 0 31.0821 2.15503 34.9181 5.991C38.7541 9.82697 40.9091 15.0297 40.9091 20.4545Z" fill="#4A7755"/>
<path d="M27.2175 14.7825C25.4232 12.9882 23.0375 12 20.5 12C17.9625 12 15.5768 12.9882 13.7825 14.7825C11.9882 16.5768 11 18.9625 11 21.5C11 24.0375 11.9882 26.4232 13.7825 28.2175C15.5768 30.0118 17.9625 31 20.5 31C23.0375 31 25.4232 30.0118 27.2175 28.2175C29.0118 26.4232 30 24.0375 30 21.5C30 18.9625 29.0118 16.5768 27.2175 14.7825ZM20.5 29.5156C16.0802 29.5156 12.4844 25.9198 12.4844 21.5C12.4844 17.0802 16.0802 13.4844 20.5 13.4844C24.9198 13.4844 28.5156 17.0802 28.5156 21.5C28.5156 25.9198 24.9198 29.5156 20.5 29.5156Z" fill="white"/>
<path d="M24.6931 22.605C24.6905 22.6129 24.4223 23.4075 23.7647 24.1782C22.9277 25.159 21.8593 25.6563 20.5891 25.6563C19.3098 25.6563 18.2069 25.153 17.3111 24.1607C16.609 23.3828 16.2991 22.582 16.2969 22.5764L14.9062 23.0956C14.9218 23.1372 15.2971 24.1269 16.1685 25.1096C17.3466 26.4383 18.8752 27.1406 20.5891 27.1406C22.3114 27.1406 23.8141 26.4327 24.9346 25.0935C25.7628 24.1036 26.0911 23.1063 26.1047 23.0643L24.6931 22.605Z" fill="white"/>
<path d="M17.2344 19.8716C17.8902 19.8716 18.4219 19.3399 18.4219 18.6841C18.4219 18.0282 17.8902 17.4966 17.2344 17.4966C16.5785 17.4966 16.0469 18.0282 16.0469 18.6841C16.0469 19.3399 16.5785 19.8716 17.2344 19.8716Z" fill="white"/>
<path d="M23.7656 19.8716C24.4215 19.8716 24.9531 19.3399 24.9531 18.6841C24.9531 18.0282 24.4215 17.4966 23.7656 17.4966C23.1098 17.4966 22.5781 18.0282 22.5781 18.6841C22.5781 19.3399 23.1098 19.8716 23.7656 19.8716Z" fill="white"/>
</svg>
