<svg width="58" height="70" viewBox="0 0 58 70" fill="none" xmlns="http://www.w3.org/2000/svg">
<path d="M57.2727 28.6364C57.2727 50.9091 28.6364 70 28.6364 70C28.6364 70 0 50.9091 0 28.6364C1.13172e-07 21.0415 3.01704 13.7578 8.3874 8.3874C13.7578 3.01704 21.0415 0 28.6364 0C36.2312 0 43.515 3.01704 48.8853 8.3874C54.2557 13.7578 57.2727 21.0415 57.2727 28.6364Z" fill="#4A7755"/>
<path d="M12.6001 25.0771L13.9757 27.3367L16.5944 25.7432V43.4004H40.4012V25.7426L43.0199 27.3361L44.3955 25.0764L28.4978 15.4004L12.6001 25.0771ZM37.756 40.7552H19.2396V24.1323L28.4978 18.4967L37.756 24.1323V40.7552Z" fill="white"/>
<path d="M26.5115 27.4384C26.5115 26.3428 25.6199 25.4512 24.5243 25.4512C23.4287 25.4512 22.5371 26.3428 22.5371 27.4384C22.5371 28.534 23.4287 29.4256 24.5243 29.4256C25.6199 29.4256 26.5115 28.534 26.5115 27.4384Z" fill="white"/>
<path d="M30.4849 35.3876C30.4849 36.4832 31.3765 37.3748 32.4721 37.3748C33.5677 37.3748 34.4593 36.4832 34.4593 35.3876C34.4593 34.292 33.5677 33.4004 32.4721 33.4004C31.3765 33.4004 30.4849 34.292 30.4849 35.3876Z" fill="white"/>
<path d="M33.4095 28.3752L25.4607 36.3241L23.5874 34.4508L31.5362 26.502L33.4095 28.3752Z" fill="white"/>
</svg>
