<svg width="41" height="50" viewBox="0 0 41 50" fill="none" xmlns="http://www.w3.org/2000/svg">
<path d="M40.9091 20.4545C40.9091 36.3636 20.4545 50 20.4545 50C20.4545 50 0 36.3636 0 20.4545C8.0837e-08 15.0297 2.15503 9.82697 5.991 5.991C9.82697 2.15503 15.0297 0 20.4545 0C25.8794 0 31.0821 2.15503 34.9181 5.991C38.7541 9.82697 40.9091 15.0297 40.9091 20.4545Z" fill="#4A7755"/>
<path d="M29.5165 18.8346H28.1326L24.5151 12.5039L22.8232 13.4707L25.8882 18.8346H15.6027L18.6687 13.4707L16.9759 12.5039L13.3583 18.8346H11.9745C11.8247 18.8348 11.6769 18.8695 11.5427 18.9359C11.4084 19.0024 11.2913 19.0989 11.2004 19.2179C11.1094 19.3369 11.0471 19.4753 11.0183 19.6223C10.9894 19.7693 10.9948 19.9209 11.034 20.0655L13.7618 30.0684C13.8752 30.4804 14.1205 30.8439 14.4603 31.1032C14.8 31.3625 15.2153 31.5032 15.6427 31.5039H25.8493C26.7244 31.5039 27.4982 30.9143 27.7302 30.0664L30.4579 20.0645C30.4976 19.9199 30.5033 19.7681 30.4746 19.6209C30.4458 19.4737 30.3835 19.3352 30.2923 19.2161C30.2012 19.097 30.0837 19.0006 29.9491 18.9344C29.8145 18.8683 29.6665 18.8341 29.5165 18.8346ZM25.8483 29.5548H15.6427L13.2511 20.7838H28.2398L25.8483 29.5548Z" fill="white" stroke="#4A7755" stroke-width="0.2"/>
<path d="M17.8218 22.7329H19.7709V27.6057H17.8218V22.7329ZM21.72 22.7329H23.6691V27.6057H21.72V22.7329Z" fill="white" stroke="#4A7755" stroke-width="0.2"/>
</svg>
