<svg width="41" height="50" viewBox="0 0 41 50" fill="none" xmlns="http://www.w3.org/2000/svg">
<path d="M40.9091 20.4545C40.9091 36.3636 20.4545 50 20.4545 50C20.4545 50 0 36.3636 0 20.4545C8.0837e-08 15.0297 2.15503 9.82697 5.991 5.991C9.82697 2.15503 15.0297 0 20.4545 0C25.8794 0 31.0821 2.15503 34.9181 5.991C38.7541 9.82697 40.9091 15.0297 40.9091 20.4545Z" fill="#4A7755"/>
<path d="M20.5 12C15.2578 12 11 16.2578 11 21.5C11 26.7422 15.2578 31 20.5 31C25.7422 31 30 26.7422 30 21.5C30 16.2578 25.7422 12 20.5 12ZM20.5 30.1759C15.7157 30.1759 11.8241 26.2843 11.8241 21.5C11.8241 16.7157 15.7157 12.8241 20.5 12.8241C25.2843 12.8241 29.1759 16.7157 29.1759 21.5C29.1759 26.2843 25.2843 30.1759 20.5 30.1759Z" fill="white" stroke="white" stroke-width="0.5"/>
<path d="M25.4443 19.4399H22.5599V16.5556C22.5599 16.3267 22.3768 16.1436 22.1479 16.1436H18.8515C18.6226 16.1436 18.4395 16.3267 18.4395 16.5556V19.4399H15.5551C15.3262 19.4399 15.1431 19.6231 15.1431 19.852V23.1484C15.1431 23.3773 15.3262 23.5604 15.5551 23.5604H18.4395V26.4448C18.4395 26.6737 18.6226 26.8568 18.8515 26.8568H22.1479C22.3768 26.8568 22.5599 26.6737 22.5599 26.4448V23.5604H25.4443C25.6732 23.5604 25.8563 23.3773 25.8563 23.1484V19.852C25.8334 19.6231 25.6503 19.4399 25.4443 19.4399ZM25.0551 22.7363H25.0322H22.1479C21.919 22.7363 21.7358 22.9195 21.7358 23.1484V26.0327H19.2635V23.1484C19.2635 22.9195 19.0804 22.7363 18.8515 22.7363H15.9672V20.264H18.8515C19.0804 20.264 19.2635 20.0809 19.2635 19.852V16.9677H21.7587V19.852C21.7587 20.0809 21.9419 20.264 22.1708 20.264H25.0551V22.7363Z" fill="white" stroke="white" stroke-width="0.5"/>
</svg>
