<svg width="153" height="32" viewBox="0 0 153 32" fill="none" xmlns="http://www.w3.org/2000/svg">
<path d="M140.992 31.7546C138.715 31.8696 136.666 30.5273 134.656 29.4535C133.403 28.8016 131.772 28.8016 130.823 27.536C129.42 27.4209 128.243 26.5772 126.953 26.0786C124.715 25.2349 122.514 24.1611 120.617 22.4353C117.696 19.7507 114.167 17.8332 110.828 15.7239C109.235 14.7268 107.869 13.3845 106.048 12.8092C105.63 12.6942 105.289 12.3874 104.871 12.2723C104.188 12.1189 103.847 12.1956 104.416 13.001C104.568 13.2311 104.378 13.768 104.34 14.1515C104.226 16.1074 104.947 17.2196 106.844 18.14C107.11 18.2551 107.3 18.6002 107.527 18.6386C108.058 18.7536 108.21 19.0988 107.945 19.4056C107.679 19.7124 107.186 19.7891 106.806 19.9808C106.351 18.9837 105.175 19.5973 104.454 18.907C103.847 18.3318 103.202 17.7565 102.785 17.1045C101.95 15.7622 100.318 15.4171 99.4457 14.1515C98.5351 14.3049 97.5866 14.42 96.7139 14.6884C96.1069 14.8802 95.5378 15.2637 94.9686 15.5705C94.7789 15.6472 94.5892 15.6855 94.3995 15.7622C94.5892 15.8389 94.7789 15.954 94.9686 16.0307C96.8278 16.9895 98.0798 18.6002 99.294 20.2493C99.4457 20.4411 99.4078 20.7862 99.3319 21.0547C99.294 21.1314 98.8766 21.2081 98.7248 21.1314C96.9037 20.211 94.703 20.4027 92.9577 19.2138C91.8954 18.4852 90.6812 17.9866 89.6568 17.2196C88.253 16.1841 86.963 14.9952 85.5971 13.8447C83.8518 12.3874 82.0306 11.0067 80.3991 9.43435C79.5644 8.62898 78.8814 7.55515 78.3502 6.48133C77.819 5.36915 76.9084 4.75554 75.9599 4.14192C75.5425 3.87347 75.1631 3.48996 74.7078 3.2982C74.2905 3.10645 73.9869 2.60788 73.2661 3.2215C70.8757 5.29245 68.8648 7.63185 67.0436 10.2014C65.1845 12.7709 63.553 15.5321 60.973 17.488C60.4418 17.8715 60.1003 18.4852 59.645 18.9837C58.8862 19.7891 58.1274 20.6712 57.2547 21.3615C56.4579 22.0134 55.5853 22.6271 54.6367 23.0873C53.5364 23.6625 52.4741 24.2761 51.1082 24.0844C50.577 24.0077 50.0079 24.1994 49.4767 24.2761C49.7802 23.7392 50.2355 23.279 50.3873 22.7038C50.6908 21.5916 51.5635 21.0163 52.3603 20.326C54.7126 18.2551 57.0271 16.1458 59.3794 14.0365C59.4553 13.9598 59.4933 13.8447 59.5691 13.7296C59.4553 13.6529 59.3036 13.5762 59.1897 13.5379C58.7344 13.4612 58.2412 13.4995 57.8238 13.3845C56.1544 13.0393 54.7506 13.4612 53.4985 14.6501C53.0053 15.1103 52.2464 15.3404 51.5635 15.6088C50.2735 16.1458 48.9835 16.6443 47.8831 17.6031C46.9346 18.4468 45.6067 18.5235 44.4305 18.6769C43.7096 18.7536 43.1784 18.7536 42.799 19.559C42.5334 20.1342 41.8504 20.5561 41.3193 20.978C41.1295 21.1314 40.7881 21.1314 40.4845 21.1697C40.3328 21.1697 40.181 21.093 40.0672 21.093C40.1431 20.9396 40.1431 20.7095 40.2569 20.6328C41.5848 19.4823 42.761 18.14 44.089 17.1045C46.024 15.5705 47.9211 13.768 50.4632 13.1927C51.222 13.0393 51.867 12.4257 52.55 12.0039C52.6258 11.9655 52.6258 11.582 52.55 11.582C51.867 11.3135 51.1841 11.0834 50.4632 10.8917C50.0079 10.7766 49.5905 10.7383 49.5146 11.4669C49.4767 11.7354 48.7937 11.8888 48.4143 12.0806C47.1243 12.7709 45.7584 13.3461 44.5822 14.3049C43.3681 15.2637 41.8884 15.6855 40.4087 16.0307C39.8395 16.1841 39.1566 16.2608 38.8151 16.606C37.0319 18.4852 34.4518 19.2138 32.8583 21.4382C32.1753 22.3586 30.8094 22.8955 29.6712 23.3174C27.6223 24.0077 25.915 25.2733 24.1317 26.3855C22.6141 27.3059 21.1723 28.303 19.5029 28.8399C18.2128 29.2618 17.1125 30.2205 15.7087 30.3356C15.2155 30.3739 14.6843 30.4506 14.191 30.4506C14.1152 30.4506 14.0013 30.1055 14.0013 30.0671C15.4431 28.9166 16.8849 27.7661 18.3267 26.6156C19.5787 25.6184 21.2482 25.3116 22.1588 23.7392C22.6899 22.8572 23.7523 22.1668 24.9664 22.0518C25.1182 22.0518 25.3079 21.745 25.3079 21.5916C25.3079 21.4382 25.1182 21.2081 24.9664 21.1314C23.942 20.6328 22.8417 20.2493 21.8552 19.674C21.362 19.3672 21.1343 19.4439 20.679 19.674C19.2752 20.326 18.1749 21.3615 17.0367 22.3586C15.4431 23.7392 13.6599 24.5446 11.4972 24.0844C10.3589 23.8543 9.4104 24.2761 8.34803 24.7747C6.79243 25.5034 5.42653 26.7306 3.5674 26.6923C3.03621 27.4209 2.69474 26.0786 2.08768 26.5772C1.67032 26.9607 1.06325 27.1141 0.570014 27.4593C0.190598 27.7277 0.114714 27.651 0.0767724 27.1908C0.000889227 26.0019 0.721779 25.4267 1.67032 24.9665C5.31271 23.279 8.9551 21.5149 12.7493 20.211C13.5081 19.9425 14.191 19.4439 14.7981 18.907C16.1261 17.8332 17.5678 16.9128 19.1234 16.1458C20.6411 15.4171 21.8932 15.3404 23.5626 16.0691C25.27 16.8361 26.9015 17.6798 28.4191 18.8687C29.0641 19.3672 30.2024 19.2522 30.6577 18.5619C31.6442 17.1045 32.7824 15.8773 34.5277 15.3404C34.6795 15.302 34.7933 15.1486 34.8692 15.0336C36.4248 13.4612 38.2839 12.5024 40.4466 12.0422C41.8125 11.7738 42.9887 10.8917 44.1269 10.1247C45.4928 9.20424 47.1623 8.93578 48.3384 7.6702C48.9835 6.97989 49.932 7.2867 50.6529 7.63185C51.905 8.16877 53.0811 8.85908 54.2953 9.43435C55.5473 10.0096 56.7615 10.6232 58.0894 10.9684C58.9621 11.1985 59.7589 11.4286 60.4039 12.1573C60.6315 12.4257 61.0109 12.6942 61.3145 12.6558C61.7318 12.6175 62.1492 12.3874 62.4907 12.1189C63.8565 11.0451 65.2604 10.0096 66.0951 8.43722C67.0436 6.63473 68.5992 5.36915 69.8893 3.83511C70.3446 3.2982 70.9137 2.87634 71.4069 2.37778C71.8622 1.91757 72.3555 1.49571 72.7349 0.997147C73.9111 -0.536889 75.4287 -0.0766784 76.9464 0.115076C77.3637 0.920445 78.1605 0.651989 78.8055 0.728691C80.1335 0.882094 81.3097 1.45736 82.4859 2.03262C84.4968 2.99139 86.3938 4.21862 88.6703 4.60213C89.4292 4.71719 90.2639 5.13904 90.9468 5.75266C92.0471 6.78813 93.5269 7.24834 94.8927 7.93866C95.4239 8.20712 96.1069 8.24547 96.4863 8.59063C97.321 9.396 98.4593 9.4727 99.256 9.20424C100.205 8.89743 101.039 9.08919 101.912 9.08919C102.443 9.08919 103.05 9.35764 103.505 9.20424C104.264 8.89743 104.947 8.24547 105.744 8.55227C107.224 9.08919 108.703 9.66445 110.031 10.5082C112.611 12.0806 115.078 13.8063 117.582 15.5321C119.062 16.5676 120.503 17.6798 121.945 18.792C122.476 19.1755 122.628 20.0959 123.425 20.0959C124.791 20.1343 126.119 20.6328 127.485 20.211C129.533 19.5973 131.62 19.0221 133.669 18.4852C135.111 18.1017 136.553 17.6414 138.032 17.4113C140.119 17.1045 142.168 17.5264 143.496 19.2138C145.355 21.5149 147.973 22.7421 150.174 24.5446C150.325 24.6597 150.553 24.7747 150.743 24.8514C151.464 25.1966 152.071 25.6951 152.336 26.5005C151.464 26.3854 150.553 26.4238 149.718 26.117C148.846 25.8102 148.049 25.2733 147.328 24.698C146.531 24.0844 145.355 24.0077 144.862 22.8955C144.748 22.6654 144.217 22.5887 143.875 22.5504C142.547 22.3586 141.144 22.512 140.157 21.2848C140.081 21.2081 139.854 21.2464 139.74 21.2081C139.133 21.0547 138.867 21.3231 138.981 21.8984C139.322 23.3941 139.474 23.6242 141.333 25.1199C141.94 25.6184 141.978 25.8485 141.409 26.1937C140.764 26.5389 140.195 26.8073 139.36 26.3855C137.956 25.6951 136.932 24.698 136.059 23.4708C135.642 22.8572 135.073 22.6271 134.352 22.5504C132.948 22.4353 131.544 22.3203 130.254 23.0873C130.065 23.2023 129.799 23.279 129.571 23.3557C129.761 23.5858 129.951 23.931 130.178 24.046C134.618 25.7718 138.677 28.1879 142.585 30.9109C142.813 31.0643 143.079 31.1793 143.306 31.3711C143.42 31.4478 143.496 31.6012 143.61 31.7162C143.496 31.7929 143.344 31.908 143.23 31.908C142.585 31.908 141.902 31.8313 140.992 31.7546Z" fill="#E6E6E6"/>
</svg>
