<svg width="385" height="311" viewBox="0 0 385 311" fill="none" xmlns="http://www.w3.org/2000/svg">
<g clip-path="url(#clip0)">
<path d="M67.2363 292.854C66.3175 293.014 65.5185 293.334 64.6795 293.733C64.5597 293.773 64.32 293.693 64.2401 293.573C64.1602 293.494 64.2001 293.214 64.28 293.134C64.8393 292.574 65.5584 292.254 65.878 291.455C65.918 291.335 65.918 291.215 65.9579 291.095C65.8381 291.095 65.7182 291.055 65.6383 291.055C65.4386 291.095 65.1989 291.135 65.0391 291.215C63.6009 292.055 62.2026 292.974 61.2038 294.333C61.0041 294.613 60.6046 294.773 60.245 294.972C59.486 295.452 58.647 295.772 58.0478 296.371C57.4485 297.011 56.8093 297.61 56.1302 298.21C56.0503 298.25 56.0503 298.45 56.0902 298.53C56.1302 298.61 56.25 298.65 56.4098 298.809C56.6096 298.69 56.8093 298.53 57.049 298.37C57.4485 298.09 57.888 297.57 58.2875 297.57C59.6058 297.61 60.4847 296.491 61.7232 296.371C62.682 295.412 64.0004 295.212 65.1989 294.693C66.0378 294.333 66.9966 294.133 67.6358 293.374C67.9554 293.014 68.315 292.694 68.6745 292.374C68.1152 292.334 67.7157 292.774 67.2363 292.854Z" fill="#E6E6E6"/>
<path d="M45.4231 298.65C44.4244 299.209 43.4656 299.809 42.5068 300.448C41.5879 301.048 40.749 301.727 39.7103 302.127C38.5517 302.607 37.6728 303.486 36.754 304.285C36.5941 304.445 36.5542 304.805 36.5542 305.045C36.5542 305.165 36.8738 305.245 37.1135 305.404C37.4331 305.285 37.7128 305.165 38.0324 305.125C39.3108 304.885 40.2696 304.046 41.2683 303.366C42.4269 302.607 43.3457 301.487 44.6241 300.888C45.2633 300.568 45.6628 299.929 45.9824 299.289C46.0623 299.129 45.9824 298.85 45.9425 298.65C45.8226 298.61 45.5829 298.57 45.4231 298.65Z" fill="#E6E6E6"/>
<path d="M16.6994 302.886C16.18 303.206 15.7006 303.606 15.1014 303.526C14.3024 303.366 13.6232 303.686 12.9441 304.006C11.6657 304.605 10.3473 305.165 9.02894 305.764C8.94904 305.804 8.86914 305.964 8.86914 306.044C8.90909 306.164 8.98899 306.364 9.06889 306.404C9.22869 306.484 9.38849 306.444 9.58824 306.484C9.58824 306.524 9.62819 306.604 9.62819 306.643C10.7867 306.284 11.9853 306.044 13.0639 305.524C13.783 305.205 14.3823 304.845 15.2212 304.925C15.5808 304.965 15.9403 304.805 16.2999 304.685C16.8192 304.565 17.0989 303.846 17.778 304.125C17.778 304.125 18.0577 303.806 18.0577 303.606C18.0577 302.806 17.3785 302.447 16.6994 302.886Z" fill="#E6E6E6"/>
<path d="M123.526 306.643C122.487 305.724 121.169 305.244 120.09 304.365C119.89 304.205 119.651 303.965 119.411 303.965C119.091 303.925 118.772 304.085 118.452 304.125C118.492 304.365 118.492 304.645 118.612 304.845C119.491 306.044 119.771 306.324 121.049 307.003C121.568 307.283 122.048 307.563 122.487 308.002C122.807 308.322 123.286 308.482 123.526 308.642C123.845 308.682 123.965 308.722 124.045 308.682C124.285 308.602 124.525 308.442 124.764 308.322C124.684 308.162 124.604 307.962 124.485 307.802C124.165 307.403 123.885 306.963 123.526 306.643Z" fill="#E6E6E6"/>
<path d="M6.51188 300.009C5.71288 300.368 4.79402 300.088 4.03497 300.648C3.59552 301.008 2.95631 301.208 2.43696 301.208C1.51811 301.208 0.878904 301.687 0.279651 302.247C0.159801 302.367 0 302.646 0 302.686C0.199751 302.886 0.439452 303.126 0.639203 303.126C1.27841 303.126 1.91761 303.086 2.51686 302.846C4.15482 302.287 5.79278 301.647 7.39079 301.008C7.51064 300.968 7.59054 300.768 7.75034 300.528C7.31088 300.368 6.75158 299.889 6.51188 300.009Z" fill="#E6E6E6"/>
<path d="M89.3689 298.57C88.2902 298.29 87.9706 297.211 87.0917 296.811C86.8121 295.732 85.8932 295.732 85.0543 295.692C84.9344 295.692 84.7347 295.812 84.6947 295.892C84.6548 296.012 84.7347 296.251 84.8146 296.331C85.0143 296.491 85.254 296.611 85.4538 296.771C86.6523 297.85 88.1304 298.65 89.0892 300.009C89.4088 300.448 89.8083 300.688 90.2877 300.648C90.4475 300.648 90.5674 300.688 90.6872 300.688C90.847 300.648 91.0468 300.648 91.1267 300.528C91.2066 300.408 91.1666 300.168 91.0468 300.089C90.4875 299.569 90.0081 298.73 89.3689 298.57Z" fill="#E6E6E6"/>
<path d="M76.3848 295.772C75.8255 295.132 75.1064 294.653 74.4272 294.133C74.1875 293.933 73.9478 293.733 73.6682 293.573C73.5483 293.533 73.5883 294.053 73.9478 294.653C74.0677 294.892 74.3873 295.132 74.3473 295.332C74.2275 295.972 74.627 296.291 74.9865 296.611C75.426 297.091 75.9453 297.49 76.3848 297.97C76.8242 298.45 77.2637 298.769 77.9029 298.769C78.0227 298.769 78.1426 298.61 78.2225 298.57C78.2225 298.41 78.2624 298.37 78.2624 298.33C77.6232 297.49 77.1039 296.571 76.3848 295.772Z" fill="#E6E6E6"/>
<path d="M107.466 302.846C107.066 302.527 106.587 302.287 106.147 302.047C105.828 302.127 105.628 302.207 105.428 302.247C105.508 302.447 105.508 302.686 105.628 302.846C106.467 304.165 107.945 304.525 109.224 305.164C109.343 305.204 109.583 305.124 109.663 305.045C109.743 304.925 109.703 304.685 109.583 304.605C108.864 304.005 108.185 303.406 107.466 302.846Z" fill="#E6E6E6"/>
<path d="M127.401 301.008C127.002 300.528 126.802 300.928 126.682 301.128C126.602 301.288 126.642 301.687 126.802 301.807C127.201 302.127 127.681 302.367 128.12 302.686C128.44 302.527 128.64 302.447 128.879 302.327C128.799 302.127 128.759 301.887 128.6 301.767C128.24 301.487 127.681 301.367 127.401 301.008Z" fill="#E6E6E6"/>
<path d="M90.8069 295.212C90.727 295.212 90.6072 295.412 90.4873 295.532C90.6072 295.692 90.6471 295.892 90.767 295.972C91.3263 296.251 91.9255 296.491 92.5248 296.731C92.6047 296.771 92.8044 296.691 92.8044 296.611C92.8444 296.451 92.8843 296.251 92.8044 296.171C92.2851 295.572 91.526 295.412 90.8069 295.212Z" fill="#E6E6E6"/>
<path d="M117.733 299.489C117.573 299.449 117.413 299.449 117.214 299.449C116.894 299.409 116.534 299.369 116.215 299.369C116.135 299.369 116.015 299.609 116.015 299.729C116.015 299.809 116.095 299.969 116.135 300.009C116.574 300.129 117.134 299.969 117.493 300.448C117.573 300.568 118.172 300.768 118.332 300.288C118.492 299.889 118.172 299.609 117.733 299.489Z" fill="#E6E6E6"/>
<path d="M60.644 302.207C60.8038 302.247 60.9237 302.367 61.0835 302.367C61.2433 302.367 61.4031 302.247 61.5629 302.207C61.4031 302.127 61.2832 302.087 61.0435 301.967C60.9636 302.047 60.8038 302.127 60.644 302.207Z" fill="#E6E6E6"/>
<path d="M37.4332 296.012C37.2734 296.092 37.1535 296.252 37.0337 296.371C37.1136 296.451 37.2334 296.571 37.2734 296.571C37.4731 296.531 37.6729 296.451 37.9925 296.332C37.593 296.092 37.4731 295.972 37.4332 296.012Z" fill="#E6E6E6"/>
<path d="M318.563 298.929C318.963 299.449 319.202 298.49 319.642 298.849C319.961 299.129 320.401 299.249 320.76 299.489C321.04 299.689 321.12 299.609 321.12 299.289C321.16 298.41 320.641 298.01 319.962 297.65C319.762 297.57 319.562 297.451 319.322 297.371C320.161 297.57 321.04 297.73 321.879 297.93C322.438 298.53 323.118 298.809 323.957 298.929C324.636 299.009 324.795 298.29 324.476 297.85C324.596 297.49 324.476 297.091 324.036 296.971C323.517 296.851 322.998 296.731 322.478 296.611H322.438C322.199 296.571 321.959 296.491 321.759 296.451C321.679 296.371 321.599 296.331 321.48 296.291C321.44 295.972 321.2 295.732 320.8 295.772C320.481 295.812 320.121 295.852 319.802 295.852C319.602 295.852 319.482 295.932 319.362 296.052C318.883 296.251 318.683 296.931 319.083 297.251C316.686 296.132 314.289 295.052 311.772 294.173C311.212 293.973 310.693 293.613 310.254 293.214C309.255 292.414 308.216 291.735 307.058 291.215C305.939 290.656 305.02 290.616 303.782 291.175C302.503 291.735 301.305 292.374 300.186 293.214C299.707 293.573 298.868 293.494 298.548 293.014C297.829 291.935 296.95 291.055 295.672 290.656C295.552 290.616 295.472 290.536 295.392 290.456C294.234 289.297 292.875 288.577 291.237 288.258C290.239 288.058 289.36 287.418 288.521 286.859C287.522 286.179 286.283 285.979 285.405 285.06C284.925 284.54 284.246 284.78 283.687 285.02C282.768 285.42 281.889 285.939 280.97 286.339C280.051 286.739 279.132 287.218 278.174 287.458C277.534 287.658 276.935 287.818 276.456 288.338C276.296 288.537 276.016 288.737 275.777 288.697C275.497 288.657 275.137 288.497 274.898 288.298C273.899 287.498 272.82 286.739 272.221 285.58C271.502 284.261 270.343 283.341 269.424 282.222C269.105 281.823 268.665 281.503 268.306 281.143C267.986 280.823 267.627 280.504 267.307 280.104C266.428 278.985 265.31 279.305 264.191 279.464C263.871 280.064 263.312 279.864 262.833 279.904C261.834 280.024 260.995 280.464 260.116 280.863C258.638 281.543 257.24 282.462 255.522 282.742C254.963 282.822 254.323 283.142 253.844 283.581C253.045 284.341 251.926 284.7 250.928 285.18C250.528 285.38 250.049 285.38 249.769 285.66C249.13 286.259 248.291 286.299 247.732 286.099C247.012 285.859 246.413 286.019 245.774 286.019C245.374 286.019 244.935 286.219 244.575 286.099C244.016 285.899 243.497 285.42 242.898 285.62C241.819 286.019 240.7 286.459 239.702 287.059C237.784 288.218 235.946 289.497 234.109 290.736C232.99 291.495 231.951 292.294 230.873 293.094C230.473 293.374 230.393 294.053 229.794 294.053C229.634 294.053 229.474 294.053 229.314 294.093C228.835 293.653 228.356 293.334 227.756 293.094C222.403 289.577 216.81 286.499 210.977 283.821C210.378 283.541 209.819 284.141 209.899 284.62C209.819 284.54 209.739 284.461 209.659 284.421C209.579 284.181 209.379 283.941 209.1 283.941C209.1 283.941 209.06 283.941 209.06 283.901C208.78 283.621 208.381 283.661 208.061 283.901C207.582 284.301 207.142 284.7 206.663 285.06C206.223 284.94 205.824 285.34 205.824 285.74C205.225 286.259 204.585 286.739 203.946 287.218C203.906 287.218 203.866 287.258 203.786 287.258C203.627 287.338 203.467 287.458 203.387 287.618C200.031 290.176 196.515 292.494 192.84 294.573C192.8 294.613 192.76 294.613 192.72 294.653C192.001 294.293 191.242 294.093 190.443 293.973C190.283 293.973 190.203 293.973 190.083 294.013C189.964 293.893 189.884 293.813 189.764 293.733C189.165 293.294 188.565 293.254 187.846 293.374C185.17 293.813 182.453 295.492 180.296 297.051C180.216 297.011 180.136 296.971 180.056 296.931C178.338 296.132 176.7 295.172 175.022 294.213C172.106 292.534 169.07 290.816 165.714 290.216C164.395 289.976 163.037 289.896 161.799 290.576C160.041 291.535 158.443 293.014 156.845 294.213C156.525 294.453 156.485 294.813 156.605 295.092C154.128 293.853 151.651 292.614 149.134 291.455C146.578 290.256 143.981 289.097 141.344 288.018C139.227 287.138 136.99 286.259 134.633 286.659C132.036 287.099 129.599 288.777 127.282 290.016C124.405 291.535 121.529 293.094 118.652 294.613C118.493 294.693 118.413 294.813 118.333 294.932C117.694 294.453 117.094 293.933 116.575 293.254C115.576 292.015 114.058 291.695 112.54 291.935C111.461 292.095 110.383 292.414 109.304 292.694C107.786 293.094 106.228 293.494 104.71 293.973C103.671 294.293 102.712 293.893 101.714 293.893C101.114 293.893 100.994 293.214 100.635 292.934C99.5563 292.135 98.5176 291.295 97.3989 290.576C95.5612 289.297 93.7235 288.058 91.8059 286.899C90.8072 286.299 89.7285 285.859 88.6099 285.46C88.0107 285.26 87.4913 285.74 86.932 285.939C86.6124 286.059 86.133 285.859 85.7335 285.859C85.0943 285.859 84.4551 285.7 83.7759 285.939C83.2166 286.139 82.3377 286.059 81.7385 285.5C81.4588 285.22 80.9395 285.22 80.5799 285.02C79.5812 284.54 78.4625 284.181 77.6635 283.421C77.1442 282.942 76.5449 282.662 75.9856 282.582C74.2678 282.302 72.9095 281.423 71.3914 280.703C70.5125 280.304 69.6336 279.864 68.6748 279.744C68.1954 279.704 67.5961 279.864 67.3164 279.305C66.1978 279.145 65.0792 278.825 64.2003 279.944C63.9207 280.304 63.5611 280.624 63.2016 280.983C62.842 281.343 62.4026 281.663 62.083 282.062C61.1641 283.182 60.0056 284.101 59.2865 285.42C58.6872 286.579 57.6086 287.338 56.6098 288.138C56.3701 288.338 56.0505 288.497 55.7309 288.537C55.5311 288.537 55.2115 288.338 55.0517 288.178C54.5723 287.658 54.013 287.498 53.3339 287.298C52.3751 287.019 51.4562 286.579 50.5374 286.179C49.6185 285.78 48.7396 285.26 47.8208 284.86C47.2615 284.62 46.5823 284.381 46.1029 284.9C45.224 285.819 43.9855 286.019 42.9868 286.699C42.1478 287.258 41.2689 287.898 40.2702 288.098C38.6722 288.417 37.2739 289.137 36.1153 290.296C36.0354 290.376 35.9555 290.496 35.8357 290.496C34.5573 290.896 33.6784 291.775 32.9593 292.854C32.6397 293.334 31.8007 293.454 31.3213 293.054C30.2427 292.215 29.0042 291.575 27.7258 291.015C26.4873 290.456 25.5685 290.496 24.4499 291.055C23.2913 291.615 22.2526 292.295 21.2539 293.054C20.7745 293.414 20.2951 293.813 19.7358 294.013C16.8993 294.972 14.2226 296.251 11.506 297.49C10.7869 297.81 10.2676 298.25 10.3475 299.129C10.3874 299.449 10.4274 299.489 10.707 299.329C11.0666 299.089 11.506 298.969 11.8256 298.69C12.2651 298.33 12.5048 299.289 12.9043 298.769C14.2626 298.769 15.3013 297.89 16.4598 297.371C17.2589 297.011 17.938 296.691 18.8169 296.851C20.4149 297.171 21.7333 296.611 22.8918 295.572C23.7308 294.853 24.5697 294.093 25.6084 293.613C25.928 293.454 26.0878 293.374 26.4474 293.613C27.1665 294.053 27.9655 294.333 28.7246 294.693C28.8444 294.733 29.0042 294.892 28.9643 295.012C28.9643 295.132 28.8045 295.332 28.7246 295.332C27.8057 295.412 27.0466 295.892 26.6471 296.571C25.968 297.73 24.7295 297.97 23.8107 298.69C22.732 299.529 21.6534 300.368 20.6147 301.208C20.5747 301.208 20.6946 301.487 20.7345 301.487C21.0941 301.487 21.4936 301.447 21.8531 301.407C22.8918 301.328 23.6908 300.608 24.6496 300.328C25.8881 299.929 26.9668 299.209 28.0854 298.53C29.4037 297.73 30.6821 296.811 32.2002 296.291C33.0392 296.012 34.0779 295.612 34.5573 294.932C35.7158 293.334 37.6734 292.774 38.9518 291.415C39.1915 291.135 39.7109 291.095 40.1503 290.976C41.229 290.696 42.3476 290.416 43.2265 289.696C44.1054 289.017 45.1041 288.577 46.0629 288.058C46.3426 287.898 46.822 287.778 46.8619 287.578C46.9419 287.059 47.2615 287.059 47.5811 287.138C48.1004 287.258 48.6198 287.458 49.0992 287.618C49.1391 287.618 49.1391 287.898 49.0992 287.938C48.5798 288.258 48.1004 288.697 47.5411 288.817C45.6235 289.257 44.2652 290.576 42.827 291.695C41.8282 292.454 40.9493 293.454 39.9905 294.293C39.9106 294.373 39.8707 294.533 39.8307 294.653C39.9506 294.693 40.0305 294.733 40.1503 294.733C40.3501 294.693 40.6297 294.693 40.7496 294.573C41.1491 294.253 41.6285 293.973 41.8282 293.534C42.1079 292.934 42.5074 292.934 43.0267 292.894C43.9056 292.814 44.9044 292.734 45.5835 292.135C46.3825 291.415 47.3414 291.055 48.3002 290.656C48.7796 290.456 49.3389 290.296 49.7384 289.936C50.6972 289.057 51.6959 288.737 52.9743 289.017C53.2939 289.097 53.6535 289.097 54.013 289.137C54.1329 289.137 54.2128 289.217 54.2927 289.257C54.2527 289.337 54.2128 289.417 54.1728 289.497C52.455 291.055 50.6972 292.574 48.9793 294.093C48.42 294.613 47.7409 295.012 47.5012 295.852C47.3813 296.251 47.0617 296.611 46.822 297.011C47.2215 296.971 47.661 296.811 48.0605 296.851C49.0592 297.011 49.8582 296.531 50.6572 296.132C51.3364 295.772 51.9756 295.332 52.5748 294.853C53.214 294.333 53.7733 293.693 54.3326 293.094C54.6522 292.734 54.9319 292.294 55.2914 292.015C57.209 290.576 58.4475 288.577 59.8058 286.659C61.1641 284.78 62.6423 283.062 64.4001 281.543C64.9194 281.103 65.1591 281.463 65.4787 281.583C65.7983 281.743 66.078 281.982 66.3976 282.182C67.1167 282.622 67.7559 283.102 68.1554 283.901C68.5549 284.7 69.0343 285.46 69.6735 286.059C70.872 287.218 72.2303 288.218 73.5087 289.297C74.5075 290.136 75.4663 291.015 76.505 291.775C77.264 292.334 78.1829 292.694 78.9819 293.214C80.2603 294.093 81.8983 293.973 83.2566 294.613C83.3764 294.693 83.696 294.613 83.696 294.573C83.736 294.373 83.7759 294.133 83.6561 294.013C82.7372 292.814 81.8184 291.615 80.4601 290.936C80.3003 290.856 80.1804 290.816 80.0206 290.736C80.1804 290.696 80.3003 290.656 80.4601 290.576C80.8995 290.376 81.299 290.056 81.7385 289.936C82.3777 289.736 83.0968 289.657 83.7759 289.537C84.4151 290.496 85.6136 290.736 86.2528 291.695C86.5724 292.175 87.0119 292.614 87.4913 293.014C88.0506 293.534 88.8895 293.054 89.2491 293.813C89.5288 293.693 89.8883 293.613 90.0881 293.374C90.2878 293.134 90.168 292.894 89.7685 292.814C89.5687 292.774 89.4489 292.534 89.2491 292.454C87.8109 291.775 87.2915 290.976 87.3714 289.537C87.3714 289.257 87.5712 288.857 87.4114 288.697C87.0119 288.098 87.2516 288.058 87.771 288.178C88.0905 288.258 88.3302 288.457 88.6498 288.577C90.0082 288.977 91.0069 289.976 92.2054 290.696C94.6823 292.215 97.2791 293.653 99.4764 295.612C100.875 296.891 102.513 297.65 104.151 298.29C105.109 298.65 105.948 299.249 107.027 299.329C107.706 300.288 108.945 300.248 109.863 300.768C111.382 301.527 112.86 302.527 114.578 302.447C115.217 302.527 115.736 302.567 116.255 302.607C116.335 302.607 116.455 302.527 116.535 302.487C116.455 302.407 116.415 302.287 116.295 302.207C116.136 302.087 115.936 302.007 115.736 301.887C112.86 299.929 109.823 298.13 106.548 296.851C106.348 296.771 106.228 296.531 106.108 296.371C106.268 296.291 106.468 296.251 106.587 296.172C107.546 295.612 108.585 295.692 109.624 295.772C110.183 295.812 110.583 295.972 110.902 296.451C111.541 297.371 112.3 298.09 113.339 298.61C113.978 298.929 114.378 298.73 114.857 298.45C115.297 298.21 115.257 298.01 114.817 297.65C113.459 296.531 113.339 296.371 113.099 295.292C112.98 294.853 113.219 294.653 113.659 294.773C113.779 294.813 113.938 294.773 113.978 294.853C114.697 295.732 115.736 295.652 116.735 295.772C117.014 295.812 117.414 295.852 117.454 296.052C117.813 296.851 118.692 296.931 119.292 297.371C119.851 297.77 120.45 298.17 121.049 298.41C121.649 298.61 122.328 298.61 122.967 298.69C122.767 298.09 122.328 297.73 121.809 297.49C121.649 297.411 121.529 297.371 121.409 297.251C120.97 296.891 120.53 296.571 120.051 296.291C123.566 296.571 126.043 293.893 129.079 292.374C131.157 291.335 133.474 291.095 135.711 290.536C136.67 290.296 137.269 290.016 137.988 290.136C137.988 290.216 138.028 290.256 138.068 290.336C138.987 292.055 140.945 292.294 142.343 293.574C143.741 294.853 143.741 296.731 145.219 297.89C146.857 299.169 147.896 300.928 149.654 302.087C151.771 303.446 154.528 304.285 155.407 306.923C155.686 307.763 157.045 307.403 156.765 306.563C156.405 305.324 155.806 304.205 154.847 303.326C153.968 302.487 152.65 302.047 151.931 301.088C151.971 301.008 151.971 300.888 151.931 300.808C152.211 300.768 152.49 300.728 152.77 300.768C153.329 300.768 153.609 300.168 153.369 299.729C153.289 299.609 153.209 299.449 153.129 299.329H153.169C155.087 300.088 155.886 298.849 155.646 297.451C156.206 297.81 156.765 298.17 157.404 298.41C159.761 299.329 162.877 299.529 164.196 302.047C164.435 302.487 165.154 302.487 165.394 302.047C165.474 302.007 165.594 301.967 165.674 301.927C165.754 301.927 165.794 301.927 165.874 301.927C166.713 302.407 167.591 302.926 168.43 303.406C168.63 303.566 168.83 303.766 169.07 303.926C169.869 304.525 170.748 304.965 171.666 305.324C174.223 306.883 176.78 308.522 179.257 310.161C179.337 310.241 179.457 310.241 179.537 310.281C180.296 310.76 181.135 311 182.173 310.84C182.733 310.76 182.812 310.001 182.493 309.681C180.815 308.002 178.897 306.643 176.7 305.724C175.102 305.045 173.464 304.605 171.946 303.926C171.067 303.406 170.228 302.886 169.349 302.367C169.229 302.287 169.11 302.167 169.03 302.087C166.593 299.889 163.477 298.33 160.241 297.251C159.242 296.731 158.243 296.211 157.244 295.692C157.284 295.652 157.364 295.652 157.404 295.612C158.842 294.533 160.321 293.174 161.879 292.294C162.558 291.895 163.277 291.735 164.036 291.695C164.076 291.775 164.156 291.855 164.276 291.895C166.113 293.014 167.951 294.133 169.829 295.212C170.748 295.772 171.946 296.931 173.105 296.731C173.304 296.691 173.464 296.531 173.544 296.371C173.983 296.651 174.463 296.851 175.062 296.931C175.222 296.971 175.382 296.931 175.502 296.851C178.937 299.089 182.892 300.248 186.248 302.607C186.807 303.006 187.567 302.207 187.207 301.647C187.167 301.567 187.127 301.527 187.087 301.447C187.447 301.607 187.806 301.807 188.126 302.007C188.206 302.127 188.326 302.207 188.525 302.247C188.565 302.247 188.565 302.247 188.605 302.247C188.845 302.287 189.045 302.247 189.204 302.127C191.202 303.206 193.12 304.485 195.037 305.644C195.796 306.124 196.515 304.885 195.756 304.445C192.48 302.487 189.204 300.168 185.529 298.969C184.251 298.57 182.972 298.21 181.694 297.77C182.693 297.091 183.691 296.491 184.77 296.012C184.89 295.972 185.01 295.892 185.09 295.852C185.809 296.771 186.728 297.451 187.766 297.93C188.445 298.25 189.284 297.371 188.605 296.811C188.286 296.571 187.966 296.291 187.686 296.052C187.886 295.892 188.086 295.612 188.286 295.532C188.366 295.492 188.405 295.492 188.485 295.492C188.605 296.012 189.284 296.132 189.644 295.812C190.763 296.771 192.56 298.45 193.999 297.57C194.238 297.411 194.358 297.171 194.318 296.891C194.438 296.771 194.518 296.611 194.518 296.411C195.956 295.892 197.234 294.972 198.233 293.773C198.473 293.454 198.433 293.094 198.233 292.814C200.271 291.495 202.228 290.096 204.146 288.657C205.784 288.697 207.422 288.697 209.06 288.737C209.14 288.737 209.18 288.737 209.259 288.697C209.419 288.817 209.579 288.897 209.779 289.017C209.419 289.257 209.259 289.896 209.779 290.216C213.654 292.774 217.529 295.332 221.404 297.89C222.163 298.41 222.803 297.211 222.123 296.691C221.644 296.331 221.165 295.932 220.685 295.492C220.925 295.052 221.085 294.653 221.205 294.213C221.245 294.213 221.245 294.253 221.285 294.253C223.202 295.452 225.12 296.651 226.997 297.93L227.037 298.37C227.157 298.33 227.277 298.29 227.397 298.21C228.516 298.969 229.594 299.769 230.633 300.568C230.713 300.728 230.873 300.848 231.072 300.968C231.152 301.008 231.192 301.048 231.272 301.048C232.311 301.887 233.31 302.766 234.268 303.686C234.668 304.085 235.267 303.886 235.427 303.366C235.547 303.046 235.587 302.726 235.587 302.447C236.226 302.846 236.905 303.206 237.624 303.446C238.463 303.766 238.823 302.407 237.984 302.087C236.785 301.647 235.746 301.008 234.748 300.248C234.029 299.329 232.91 298.53 231.991 297.93C231.951 297.93 231.951 297.89 231.911 297.89C231.432 297.451 230.913 297.011 230.433 296.611C230.873 296.331 231.312 296.012 231.712 295.652C233.869 293.693 236.466 292.255 238.982 290.736C240.141 290.016 241.18 289.017 242.538 288.617C242.858 288.537 243.097 288.298 243.417 288.218C243.936 288.098 244.176 288.138 243.776 288.737C243.657 288.897 243.816 289.297 243.816 289.577C243.896 291.015 243.377 291.815 241.939 292.494C241.739 292.574 241.619 292.814 241.419 292.854C241.02 292.934 240.9 293.174 241.1 293.414C241.3 293.653 241.659 293.693 241.939 293.853C242.298 293.134 243.137 293.574 243.697 293.054C244.136 292.654 244.615 292.215 244.935 291.735C245.574 290.736 246.773 290.496 247.412 289.577C248.091 289.697 248.77 289.776 249.449 289.976C249.889 290.096 250.328 290.416 250.728 290.616C250.848 290.696 251.007 290.696 251.167 290.776C251.007 290.856 250.888 290.896 250.728 290.976C249.33 291.655 248.451 292.854 247.532 294.053C247.452 294.173 247.452 294.453 247.492 294.613C247.492 294.653 247.811 294.733 247.931 294.653C249.29 293.973 250.928 294.133 252.206 293.254C253.005 292.734 253.884 292.374 254.683 291.815C255.722 291.055 256.68 290.176 257.679 289.337C258.958 288.258 260.316 287.258 261.514 286.099C262.154 285.5 262.633 284.7 263.032 283.941C263.432 283.142 264.111 282.662 264.79 282.222C265.11 282.022 265.39 281.743 265.709 281.623C266.029 281.463 266.228 281.103 266.788 281.583C268.546 283.102 270.064 284.82 271.382 286.699C272.74 288.577 273.939 290.616 275.896 292.055C276.296 292.334 276.536 292.814 276.855 293.134C277.415 293.733 277.974 294.373 278.613 294.892C279.212 295.372 279.852 295.812 280.531 296.172C281.33 296.571 282.129 297.051 283.127 296.891C283.527 296.811 283.926 296.971 284.366 297.051C284.126 296.651 283.807 296.291 283.687 295.892C283.447 295.092 282.808 294.653 282.209 294.133C280.491 292.614 278.733 291.055 277.015 289.537C276.935 289.497 276.935 289.377 276.895 289.297C276.975 289.257 277.095 289.177 277.175 289.177C277.534 289.137 277.854 289.137 278.214 289.057C279.452 288.777 280.491 289.097 281.449 289.976C281.809 290.336 282.368 290.496 282.888 290.696C283.846 291.095 284.805 291.455 285.604 292.175C286.323 292.814 287.282 292.854 288.161 292.934C288.68 292.974 289.08 292.974 289.36 293.574C289.559 294.013 290.039 294.293 290.438 294.613C290.598 294.733 290.838 294.733 291.038 294.773C291.157 294.773 291.237 294.733 291.357 294.693C291.317 294.573 291.277 294.413 291.197 294.333C290.239 293.494 289.32 292.534 288.361 291.735C286.923 290.616 285.524 289.297 283.647 288.857C283.087 288.737 282.608 288.298 282.089 287.978C282.049 287.938 282.049 287.658 282.089 287.658C282.608 287.458 283.087 287.298 283.607 287.178C283.926 287.099 284.246 287.059 284.326 287.618C284.366 287.818 284.845 287.938 285.125 288.098C286.084 288.617 287.082 289.017 287.961 289.736C288.84 290.456 289.959 290.736 291.038 291.015C291.437 291.135 291.956 291.175 292.236 291.455C293.554 292.814 295.472 293.374 296.631 294.972C297.11 295.652 298.149 296.052 298.988 296.331C300.506 296.851 301.784 297.77 303.103 298.57C304.221 299.249 305.3 299.969 306.538 300.368C307.497 300.688 308.296 301.407 309.335 301.447C309.694 301.487 310.094 301.527 310.453 301.527C310.493 301.527 310.613 301.248 310.573 301.248C309.495 300.408 308.456 299.569 307.377 298.73C306.458 298.01 305.22 297.77 304.541 296.611C304.141 295.932 303.382 295.452 302.463 295.372C302.343 295.372 302.224 295.172 302.224 295.052C302.224 294.932 302.383 294.773 302.463 294.733C303.222 294.373 304.061 294.093 304.74 293.653C305.1 293.414 305.26 293.494 305.579 293.653C306.618 294.133 307.457 294.892 308.296 295.612C309.495 296.651 310.773 297.211 312.371 296.891C313.21 296.731 313.929 297.051 314.728 297.411C316.166 298.05 317.205 298.929 318.563 298.929ZM134.513 288.417C134.313 288.457 134.113 288.497 133.873 288.537C134.073 288.457 134.273 288.417 134.473 288.378C134.513 288.417 134.513 288.417 134.513 288.417ZM168.67 292.774C168.59 292.734 168.51 292.694 168.43 292.614C168.51 292.654 168.59 292.694 168.71 292.694C168.67 292.774 168.67 292.774 168.67 292.774ZM212.296 288.777C212.376 288.857 212.456 288.937 212.535 289.017C212.416 288.937 212.256 288.857 212.136 288.817C212.176 288.777 212.216 288.777 212.296 288.777Z" fill="#E6E6E6"/>
<path d="M273.579 296.451C273.02 295.852 272.141 295.532 271.382 295.052C271.062 294.853 270.662 294.693 270.423 294.413C269.424 293.014 268.026 292.135 266.588 291.295C266.428 291.175 266.188 291.175 265.988 291.135C265.868 291.095 265.749 291.135 265.669 291.175C265.709 291.295 265.709 291.415 265.749 291.535C266.068 292.295 266.827 292.654 267.347 293.214C267.426 293.294 267.466 293.574 267.387 293.654C267.307 293.773 267.067 293.853 266.947 293.813C266.148 293.414 265.309 293.094 264.39 292.934C263.911 292.854 263.471 292.414 262.912 292.574C263.272 292.894 263.631 293.214 263.951 293.574C264.59 294.333 265.549 294.533 266.388 294.893C267.586 295.412 268.865 295.612 269.863 296.571C271.102 296.691 271.981 297.81 273.299 297.77C273.699 297.77 274.138 298.29 274.538 298.57C274.737 298.73 274.977 298.889 275.177 299.009C275.337 298.889 275.456 298.81 275.496 298.73C275.536 298.65 275.536 298.45 275.456 298.41C274.817 297.73 274.218 297.091 273.579 296.451Z" fill="#E6E6E6"/>
<path d="M291.917 302.127C290.878 301.727 290.039 301.088 289.12 300.448C288.161 299.809 287.203 299.249 286.204 298.65C286.044 298.57 285.804 298.61 285.605 298.61C285.605 298.809 285.485 299.089 285.565 299.249C285.884 299.889 286.284 300.528 286.923 300.848C288.241 301.447 289.16 302.527 290.279 303.326C291.317 304.005 292.276 304.845 293.515 305.085C293.834 305.164 294.114 305.284 294.433 305.364C294.673 305.244 294.993 305.125 294.993 305.005C295.033 304.765 294.953 304.365 294.793 304.245C293.954 303.486 293.115 302.567 291.917 302.127Z" fill="#E6E6E6"/>
<path d="M322.638 305.764C321.32 305.165 320.041 304.605 318.723 304.006C318.044 303.686 317.365 303.366 316.566 303.526C315.926 303.646 315.447 303.246 314.968 302.886C314.289 302.447 313.649 302.806 313.609 303.606C313.609 303.766 313.849 304.125 313.889 304.125C314.568 303.846 314.888 304.565 315.367 304.685C315.727 304.765 316.086 304.965 316.446 304.925C317.245 304.845 317.884 305.205 318.603 305.524C319.682 306.044 320.88 306.284 322.039 306.643C322.039 306.604 322.079 306.524 322.079 306.484C322.239 306.484 322.438 306.484 322.598 306.404C322.718 306.364 322.798 306.164 322.798 306.044C322.798 305.964 322.718 305.804 322.638 305.764Z" fill="#E6E6E6"/>
<path d="M329.229 301.248C328.67 301.248 328.031 301.008 327.631 300.688C326.872 300.088 325.953 300.408 325.154 300.049C324.915 299.929 324.355 300.408 323.916 300.608C324.076 300.848 324.156 301.008 324.276 301.088C325.914 301.727 327.512 302.367 329.15 302.926C329.749 303.126 330.388 303.166 331.027 303.206C331.227 303.206 331.467 302.926 331.666 302.766C331.706 302.726 331.547 302.447 331.387 302.327C330.748 301.727 330.148 301.288 329.229 301.248Z" fill="#E6E6E6"/>
<path d="M246.613 295.692C245.774 295.772 244.855 295.732 244.576 296.811C243.697 297.211 243.377 298.29 242.298 298.57C241.659 298.73 241.18 299.569 240.62 300.089C240.541 300.168 240.501 300.448 240.541 300.528C240.581 300.608 240.82 300.648 240.98 300.688C241.1 300.688 241.22 300.688 241.38 300.648C241.899 300.688 242.258 300.448 242.578 300.009C243.537 298.65 244.975 297.85 246.214 296.771C246.413 296.611 246.693 296.491 246.853 296.331C246.933 296.251 247.013 296.012 246.973 295.892C246.933 295.812 246.733 295.692 246.613 295.692Z" fill="#E6E6E6"/>
<path d="M257.998 293.574C257.719 293.693 257.479 293.933 257.239 294.133C256.56 294.653 255.841 295.132 255.282 295.772C254.602 296.571 254.083 297.451 253.484 298.33C253.444 298.37 253.484 298.45 253.524 298.57C253.604 298.61 253.724 298.77 253.843 298.77C254.483 298.77 254.962 298.45 255.362 297.97C255.801 297.491 256.32 297.091 256.76 296.611C257.079 296.251 257.479 295.932 257.399 295.332C257.359 295.132 257.679 294.893 257.798 294.653C258.038 294.093 258.118 293.534 257.998 293.574Z" fill="#E6E6E6"/>
<path d="M241.18 295.532C241.06 295.412 240.94 295.172 240.86 295.212C240.141 295.412 239.382 295.532 238.863 296.171C238.783 296.251 238.823 296.491 238.863 296.611C238.863 296.651 239.062 296.731 239.142 296.731C239.741 296.491 240.301 296.251 240.9 295.972C240.98 295.932 241.06 295.732 241.18 295.532Z" fill="#E6E6E6"/>
<path d="M270.063 302.207C270.223 302.247 270.383 302.367 270.543 302.367C270.703 302.367 270.823 302.287 270.982 302.207C270.823 302.127 270.703 302.047 270.543 301.967C270.343 302.087 270.223 302.127 270.063 302.207Z" fill="#E6E6E6"/>
<path d="M294.233 296.012C294.193 295.972 294.073 296.092 293.634 296.332C293.993 296.451 294.153 296.531 294.353 296.571C294.433 296.571 294.513 296.451 294.593 296.371C294.513 296.252 294.393 296.092 294.233 296.012Z" fill="#E6E6E6"/>
<path d="M149.174 304.165C147.616 303.046 146.098 302.047 144.7 300.688C144.061 300.048 143.062 301.048 143.701 301.687C143.981 301.967 144.26 302.207 144.54 302.447C143.981 302.487 143.581 303.366 144.22 303.766C144.34 303.846 144.5 303.925 144.62 304.005C144.66 304.125 144.7 304.285 144.82 304.365C145.299 304.765 145.778 305.125 146.338 305.404C146.498 305.484 146.697 305.484 146.857 305.444C147.257 305.644 147.656 305.884 148.056 306.084C148.655 306.404 149.174 305.844 149.094 305.324C149.494 305.125 149.614 304.485 149.174 304.165Z" fill="#E6E6E6"/>
<path d="M169.189 305.324C169.069 305.244 168.87 305.204 168.71 305.244C168.51 305.125 168.27 305.005 168.071 304.885C167.751 304.725 167.431 304.525 167.112 304.365C166.313 303.925 165.594 305.125 166.393 305.564C166.832 305.804 167.272 306.044 167.711 306.284C168.111 306.523 168.59 306.843 169.069 306.683C169.349 306.603 169.629 306.324 169.589 306.004C169.549 305.724 169.469 305.484 169.189 305.324Z" fill="#E6E6E6"/>
<path d="M162.677 295.612C162.717 295.612 162.757 295.612 162.797 295.572C163.117 295.492 163.316 295.252 163.396 294.933C163.516 294.573 163.236 294.173 162.917 294.053C162.677 293.973 162.477 294.053 162.318 294.173C162.158 294.173 161.958 294.133 161.838 294.173C161.638 294.253 161.479 294.373 161.359 294.573C161.119 294.613 160.879 294.693 160.68 294.733C159.801 294.933 160.16 296.291 161.039 296.092C161.439 296.012 161.878 295.892 162.278 295.812C162.318 295.812 162.397 295.772 162.437 295.772C162.517 295.732 162.597 295.652 162.677 295.612Z" fill="#E6E6E6"/>
<path d="M197.354 298.13C197.114 297.81 196.595 297.89 196.355 298.13C196.315 298.17 196.275 298.21 196.235 298.25C196.195 298.25 196.195 298.21 196.155 298.21C195.396 297.73 194.677 298.929 195.436 299.409C196.235 299.929 197.034 300.448 197.833 300.968C198.552 301.448 199.152 300.448 198.672 299.849C198.273 299.329 197.793 298.73 197.354 298.13Z" fill="#E6E6E6"/>
<path d="M225.359 299.849C225.319 299.809 225.279 299.809 225.239 299.769C224.96 299.489 224.68 299.209 224.4 298.929C223.761 298.29 222.763 299.289 223.402 299.929C223.921 300.448 224.44 300.928 224.96 301.408C225.199 301.647 225.439 301.887 225.679 302.127C225.759 302.207 225.839 302.247 225.959 302.287C226.598 302.846 227.237 303.366 227.876 303.886C227.876 303.886 227.876 303.886 227.916 303.926C227.956 303.966 227.996 304.006 228.076 304.046C228.715 304.525 229.474 303.486 228.915 302.926C227.756 301.807 226.598 300.808 225.359 299.849Z" fill="#E6E6E6"/>
<path d="M382.323 206.96C382.163 207.04 381.964 207.12 381.804 207.24C381.404 207.56 380.965 207.84 380.605 208.239C379.687 209.279 379.207 210.598 378.328 211.677C378.168 211.877 377.929 212.116 377.929 212.356C377.889 212.676 378.049 212.996 378.089 213.316C378.328 213.276 378.608 213.276 378.808 213.156C380.006 212.276 380.286 211.997 380.965 210.718C381.245 210.198 381.524 209.718 381.964 209.279C382.283 208.959 382.443 208.479 382.603 208.239C382.643 207.92 382.683 207.8 382.643 207.72C382.603 207.44 382.443 207.2 382.323 206.96Z" fill="#E6E6E6"/>
<path d="M374.573 240.694C374.453 240.614 374.213 240.654 374.133 240.774C373.574 241.294 372.775 241.774 372.615 242.453C372.336 243.532 371.257 243.852 370.857 244.731C369.779 245.011 369.779 245.93 369.739 246.77C369.739 246.89 369.859 247.089 369.939 247.129C370.058 247.169 370.298 247.089 370.378 247.009C370.538 246.81 370.658 246.57 370.817 246.37C371.896 245.171 372.695 243.692 374.053 242.733C374.493 242.413 374.733 242.013 374.693 241.534C374.693 241.374 374.733 241.254 374.733 241.134C374.693 240.974 374.653 240.734 374.573 240.694Z" fill="#E6E6E6"/>
<path d="M367.582 258.121C367.542 258.241 368.062 258.201 368.661 257.841C368.901 257.721 369.14 257.401 369.34 257.441C369.979 257.561 370.299 257.162 370.618 256.802C371.098 256.362 371.497 255.843 371.977 255.403C372.456 254.963 372.776 254.524 372.776 253.884C372.776 253.764 372.616 253.644 372.576 253.564C372.416 253.564 372.376 253.524 372.336 253.524C371.457 254.124 370.578 254.644 369.779 255.323C369.14 255.883 368.661 256.602 368.142 257.282C367.942 257.561 367.742 257.841 367.582 258.121Z" fill="#E6E6E6"/>
<path d="M376.291 226.345C376.49 226.265 376.73 226.265 376.89 226.146C378.208 225.306 378.568 223.827 379.207 222.548C379.247 222.428 379.167 222.189 379.087 222.109C378.967 222.029 378.728 222.069 378.648 222.189C378.048 222.868 377.449 223.548 376.89 224.267C376.57 224.667 376.331 225.146 376.091 225.586C376.171 225.946 376.211 226.146 376.291 226.345Z" fill="#E6E6E6"/>
<path d="M375.771 203.163C375.492 203.523 375.372 204.083 375.012 204.362C374.533 204.762 374.932 204.962 375.132 205.082C375.292 205.162 375.691 205.122 375.811 204.962C376.131 204.562 376.371 204.083 376.69 203.643C376.53 203.323 376.45 203.123 376.331 202.884C376.131 202.963 375.851 203.003 375.771 203.163Z" fill="#E6E6E6"/>
<path d="M370.618 238.936C370.458 238.896 370.258 238.856 370.179 238.936C369.579 239.455 369.419 240.215 369.22 240.934C369.22 241.014 369.419 241.134 369.539 241.254C369.699 241.134 369.899 241.094 369.979 240.974C370.258 240.414 370.498 239.815 370.738 239.215C370.778 239.175 370.698 238.976 370.618 238.936Z" fill="#E6E6E6"/>
<path d="M374.333 213.395C373.894 213.275 373.614 213.595 373.494 213.995C373.454 214.155 373.454 214.315 373.454 214.515C373.414 214.834 373.375 215.194 373.375 215.514C373.375 215.594 373.614 215.714 373.734 215.714C373.814 215.714 373.974 215.634 374.014 215.594C374.134 215.154 373.974 214.594 374.453 214.235C374.573 214.155 374.773 213.555 374.333 213.395Z" fill="#E6E6E6"/>
<path d="M366.862 67.268C366.783 67.7477 366.343 68.1873 366.503 68.7469C366.823 68.3872 367.142 68.0275 367.502 67.7077C368.261 67.0682 368.46 66.1089 368.82 65.2696C369.339 64.0705 369.539 62.7915 370.498 61.7923C370.618 60.5532 371.736 59.6739 371.696 58.3549C371.696 57.9552 372.216 57.5156 372.495 57.1159C372.655 56.916 372.815 56.6762 372.935 56.4764C372.815 56.3165 372.735 56.1966 372.655 56.1566C372.575 56.1167 372.376 56.1167 372.336 56.1966C371.736 56.8761 371.137 57.4756 370.498 58.1151C369.899 58.6747 369.579 59.554 369.1 60.3134C368.9 60.6332 368.74 61.0329 368.46 61.2727C367.062 62.2719 366.183 63.6708 365.344 65.1097C365.224 65.2696 365.224 65.5094 365.185 65.7092C365.145 65.8292 365.185 65.9491 365.224 66.029C365.344 65.989 365.464 65.989 365.584 65.9491C366.343 65.6293 366.703 64.8699 367.262 64.3503C367.342 64.2704 367.622 64.2304 367.701 64.3103C367.821 64.3903 367.901 64.6301 367.861 64.75C367.342 65.5094 367.022 66.3488 366.862 67.268Z" fill="#E6E6E6"/>
<path d="M379.087 38.0506C379.167 37.7308 379.287 37.451 379.367 37.1313C379.247 36.8915 379.127 36.5717 379.007 36.5717C378.768 36.5317 378.368 36.6117 378.248 36.7716C377.449 37.6908 376.57 38.5702 376.091 39.7293C375.692 40.7685 375.052 41.6078 374.413 42.5271C373.774 43.4864 373.215 44.4456 372.615 45.4449C372.535 45.6047 372.575 45.8445 372.575 46.0444C372.775 46.0444 373.055 46.1643 373.215 46.0844C373.854 45.7646 374.493 45.3649 374.813 44.7254C375.412 43.4064 376.491 42.4871 377.29 41.368C378.009 40.2888 378.808 39.3296 379.087 38.0506Z" fill="#E6E6E6"/>
<path d="M376.89 16.707C376.451 17.3865 376.81 18.026 377.609 18.066C377.769 18.066 378.129 17.8261 378.129 17.7862C377.849 17.1067 378.568 16.7869 378.688 16.3073C378.768 15.9476 378.968 15.5879 378.928 15.2281C378.848 14.4288 379.207 13.7893 379.527 13.0698C380.046 11.9906 380.286 10.7916 380.646 9.63246C380.606 9.63246 380.526 9.59249 380.486 9.59249C380.486 9.43261 380.486 9.23277 380.406 9.07289C380.366 8.95299 380.166 8.87305 380.046 8.87305C379.966 8.87305 379.807 8.95299 379.767 9.03292C379.167 10.3519 378.608 11.6309 378.009 12.9499C377.689 13.6294 377.37 14.3089 377.529 15.1082C377.649 15.7078 377.21 16.1874 376.89 16.707Z" fill="#E6E6E6"/>
<path d="M375.052 7.3944C375.692 5.75567 376.331 4.1569 376.89 2.51816C377.09 1.91863 377.13 1.27912 377.17 0.639615C377.17 0.439769 376.89 0.199954 376.73 0.000108392C376.69 -0.0398608 376.411 0.120016 376.291 0.279892C375.732 0.919399 375.292 1.51894 375.252 2.43823C375.252 2.99779 375.012 3.6373 374.693 4.03699C374.094 4.79641 374.413 5.7157 374.054 6.51508C373.934 6.75489 374.413 7.31446 374.613 7.75412C374.853 7.59425 375.012 7.51431 375.052 7.3944Z" fill="#E6E6E6"/>
<path d="M372.575 89.4111C372.735 90.0506 373.574 90.5303 374.093 91.0898C374.173 91.1698 374.453 91.2097 374.533 91.1698C374.613 91.1298 374.653 90.89 374.693 90.7301C374.693 90.6102 374.693 90.4903 374.653 90.3304C374.693 89.8108 374.453 89.4511 374.013 89.1314C372.655 88.1721 371.856 86.7332 370.777 85.4942C370.618 85.2943 370.498 85.0145 370.338 84.8547C370.258 84.7747 370.018 84.6948 369.898 84.7348C369.779 84.7747 369.699 84.9746 369.699 85.0945C369.779 85.9338 369.739 86.8531 370.817 87.1329C371.217 88.0122 372.295 88.332 372.575 89.4111Z" fill="#E6E6E6"/>
<path d="M369.779 76.4211C370.578 77.1006 371.457 77.6202 372.336 78.2197C372.376 78.2597 372.456 78.2197 372.576 78.1797C372.616 78.0998 372.776 77.9799 372.776 77.86C372.776 77.2205 372.456 76.7408 371.977 76.3411C371.497 75.9015 371.098 75.3819 370.618 74.9422C370.259 74.6225 369.939 74.2228 369.34 74.3027C369.14 74.3427 368.901 74.0229 368.661 73.903C368.062 73.5833 367.542 73.5033 367.582 73.6232C367.702 73.903 367.942 74.1428 368.142 74.3827C368.661 75.1421 369.14 75.9015 369.779 76.4211Z" fill="#E6E6E6"/>
<path d="M370.179 92.8485C370.258 92.9284 370.498 92.8884 370.618 92.8485C370.658 92.8485 370.738 92.6486 370.738 92.5687C370.498 91.9692 370.258 91.4096 369.979 90.8101C369.899 90.6901 369.739 90.6102 369.539 90.5303C369.42 90.6502 369.18 90.7701 369.22 90.85C369.42 91.5695 369.539 92.3289 370.179 92.8485Z" fill="#E6E6E6"/>
<path d="M376.211 61.6324C376.251 61.4726 376.371 61.3127 376.371 61.1528C376.371 60.9929 376.291 60.873 376.211 60.7131C376.131 60.873 376.051 60.9929 375.971 61.1528C376.051 61.3526 376.131 61.4726 376.211 61.6324Z" fill="#E6E6E6"/>
<path d="M370.018 37.451C369.978 37.491 370.098 37.6109 370.338 38.0506C370.458 37.6908 370.538 37.531 370.578 37.3311C370.578 37.2512 370.458 37.1712 370.378 37.0913C370.258 37.1712 370.098 37.2912 370.018 37.451Z" fill="#E6E6E6"/>
<path d="M384.96 149.285C384.88 148.725 384.121 148.645 383.801 148.965C382.123 150.644 380.765 152.562 379.846 154.761C379.167 156.359 378.727 157.998 378.048 159.517C377.529 160.396 377.01 161.236 376.49 162.115C376.41 162.235 376.29 162.355 376.211 162.435C374.013 164.873 372.455 167.99 371.377 171.228C370.857 172.227 370.338 173.226 369.818 174.226C369.779 174.186 369.779 174.106 369.739 174.066C368.66 172.627 367.302 171.148 366.423 169.589C366.023 168.91 365.863 168.19 365.823 167.431C365.903 167.391 365.983 167.311 366.023 167.191C367.142 165.353 368.26 163.514 369.339 161.635C369.898 160.716 371.057 159.517 370.857 158.358C370.817 158.158 370.657 157.998 370.498 157.918C370.777 157.479 370.977 156.999 371.057 156.399C371.097 156.24 371.057 156.08 370.977 155.96C373.214 152.522 374.373 148.565 376.73 145.208C377.129 144.648 376.33 143.889 375.771 144.249C375.691 144.289 375.651 144.329 375.571 144.369C375.731 144.009 375.931 143.649 376.131 143.33C376.25 143.25 376.33 143.13 376.37 142.93C376.37 142.89 376.37 142.89 376.37 142.85C376.41 142.61 376.37 142.41 376.25 142.25C377.329 140.252 378.607 138.333 379.766 136.415C380.245 135.655 379.007 134.936 378.568 135.695C376.61 138.973 374.293 142.25 373.094 145.928C372.695 147.207 372.335 148.486 371.896 149.765C371.217 148.765 370.617 147.766 370.138 146.687C370.098 146.567 370.018 146.447 369.978 146.367C370.897 145.648 371.576 144.728 372.056 143.689C372.375 143.01 371.496 142.17 370.937 142.85C370.697 143.17 370.418 143.489 370.178 143.769C370.018 143.569 369.739 143.369 369.659 143.17C369.619 143.09 369.619 143.05 369.619 142.97C370.138 142.85 370.258 142.17 369.938 141.811C370.897 140.692 372.575 138.893 371.696 137.454C371.536 137.214 371.297 137.094 371.017 137.134C370.897 137.014 370.737 136.934 370.538 136.934C370.018 135.496 369.099 134.217 367.901 133.217C367.581 132.978 367.222 133.017 366.942 133.217C365.624 131.179 364.225 129.22 362.787 127.302C362.827 125.663 362.827 124.024 362.867 122.386C362.867 122.306 362.867 122.266 362.827 122.186C362.947 122.026 363.027 121.866 363.147 121.666C363.386 122.026 364.026 122.186 364.345 121.666C366.902 117.789 369.459 113.912 372.016 110.035C372.535 109.276 371.337 108.636 370.817 109.316C370.458 109.795 370.058 110.275 369.619 110.755C369.179 110.515 368.78 110.355 368.34 110.235C368.34 110.195 368.38 110.195 368.38 110.155C369.579 108.237 370.777 106.318 372.056 104.44L372.495 104.4C372.455 104.28 372.415 104.16 372.335 104.04C373.094 102.921 373.893 101.842 374.692 100.802C374.852 100.722 374.972 100.563 375.092 100.363C375.132 100.283 375.172 100.243 375.172 100.163C376.011 99.1236 376.89 98.1244 377.809 97.1651C378.208 96.7654 378.008 96.1659 377.489 96.006C377.169 95.8861 376.85 95.8462 376.57 95.8462C376.97 95.2066 377.329 94.5272 377.569 93.8077C377.888 92.9684 376.53 92.6087 376.211 93.448C375.771 94.6471 375.132 95.6863 374.373 96.6855C373.454 97.405 372.655 98.5241 372.056 99.4434C372.056 99.4834 372.016 99.4834 372.016 99.5233C371.576 100.003 371.137 100.523 370.737 101.002C370.458 100.563 370.138 100.123 369.739 99.7232C367.781 97.5648 366.343 94.9668 364.825 92.4488C364.106 91.2897 363.107 90.2505 362.707 88.8915C362.627 88.5718 362.388 88.332 362.308 88.0122C362.188 87.4926 362.228 87.2528 362.827 87.6525C362.987 87.7724 363.386 87.6125 363.666 87.6125C365.104 87.5326 365.903 88.0522 366.583 89.4911C366.662 89.6909 366.902 89.8108 366.942 90.0107C367.022 90.4103 367.262 90.5303 367.501 90.3304C367.741 90.1306 367.781 89.7708 367.941 89.4911C367.222 89.1313 367.661 88.292 367.142 87.7324C366.742 87.2928 366.303 86.8131 365.823 86.4934C364.825 85.8539 364.585 84.6548 363.666 84.0153C363.786 83.3358 363.866 82.6563 364.066 81.9769C364.185 81.5372 364.505 81.0975 364.705 80.6978C364.785 80.5779 364.785 80.4181 364.865 80.2582C364.945 80.4181 364.984 80.538 365.064 80.6978C365.744 82.0968 366.942 82.9761 368.141 83.8954C368.26 83.9753 368.54 83.9753 368.7 83.9353C368.74 83.9353 368.82 83.6156 368.74 83.4957C368.061 82.1367 368.22 80.498 367.342 79.219C366.822 78.4196 366.463 77.5403 365.903 76.7409C365.144 75.7017 364.265 74.7424 363.426 73.7432C362.348 72.4642 361.349 71.1052 360.19 69.9062C359.591 69.2667 358.792 68.787 358.033 68.3873C357.234 67.9877 356.755 67.3082 356.315 66.6287C356.116 66.3089 355.836 66.0292 355.716 65.7094C355.556 65.3897 355.197 65.1898 355.676 64.6302C357.194 62.8716 358.912 61.3528 360.79 60.0338C362.667 58.6748 364.705 57.4758 366.143 55.5173C366.423 55.1176 366.902 54.8778 367.222 54.558C367.821 53.9984 368.46 53.4389 368.98 52.7994C369.459 52.1998 369.898 51.5603 370.258 50.8809C370.657 50.0815 371.137 49.2821 370.977 48.2829C370.897 47.8832 371.057 47.4835 371.137 47.0438C370.737 47.2836 370.378 47.6034 369.978 47.7233C369.179 47.9631 368.74 48.6026 368.22 49.2021C366.702 50.9208 365.144 52.6795 363.626 54.3981C363.586 54.4781 363.466 54.4781 363.386 54.518C363.347 54.4381 363.267 54.3182 363.267 54.2383C363.227 53.8785 363.227 53.5588 363.147 53.1991C362.867 51.96 363.187 50.9208 364.066 49.9616C364.425 49.6018 364.585 49.0423 364.785 48.5227C365.184 47.5634 365.544 46.6041 366.263 45.8048C366.902 45.0853 366.942 44.1261 367.022 43.2467C367.062 42.7271 367.062 42.3274 367.661 42.0477C368.101 41.8478 368.38 41.3682 368.7 40.9685C368.82 40.8086 368.82 40.5688 368.86 40.369C368.86 40.2491 368.82 40.1691 368.78 40.0492C368.66 40.0892 368.5 40.1291 368.42 40.2091C367.581 41.1683 366.622 42.0876 365.823 43.0469C364.705 44.4858 363.386 45.8847 362.947 47.7633C362.827 48.3228 362.388 48.8025 362.068 49.3221C362.028 49.362 361.749 49.362 361.749 49.3221C361.549 48.8025 361.389 48.3228 361.269 47.8032C361.189 47.4835 361.149 47.1637 361.709 47.0838C361.908 47.0438 362.028 46.5642 362.188 46.2844C362.707 45.3251 363.107 44.3259 363.826 43.4466C364.545 42.5673 364.825 41.4481 365.104 40.369C365.224 39.9693 365.264 39.4497 365.544 39.1699C366.902 37.8509 367.461 35.9324 369.059 34.7733C369.739 34.2936 370.138 33.2544 370.418 32.4151C370.937 30.8963 371.856 29.6173 372.655 28.2983C373.334 27.1791 374.053 26.1 374.453 24.8609C374.772 23.9017 375.491 23.1023 375.531 22.0631C375.571 21.7034 375.611 21.3037 375.611 20.9439C375.611 20.904 375.332 20.7841 375.332 20.824C374.493 21.9032 373.654 22.9424 372.815 24.0216C372.096 24.9409 371.856 26.1799 370.697 26.8594C370.018 27.2591 369.539 28.0185 369.459 28.9378C369.459 29.0177 369.259 29.1776 369.139 29.1776C369.019 29.1776 368.86 29.0177 368.82 28.9378C368.46 28.1784 368.181 27.339 367.741 26.6595C367.501 26.2998 367.581 26.1399 367.741 25.8202C368.22 24.781 368.98 23.9416 369.699 23.1023C370.737 21.9032 371.297 20.6242 370.977 19.0254C370.817 18.1861 371.137 17.4666 371.496 16.6672C372.016 15.5081 372.935 14.5089 372.895 13.11C373.414 12.7103 372.455 12.4705 372.815 12.0308C373.094 11.7111 373.214 11.2714 373.454 10.9117C373.654 10.6319 373.574 10.552 373.254 10.552C372.375 10.512 371.976 11.0316 371.616 11.7111C370.378 14.429 369.099 17.1069 368.141 19.9447C367.941 20.5043 367.581 21.0239 367.182 21.4635C366.383 22.4628 365.704 23.502 365.184 24.6611C364.625 25.7802 364.585 26.6995 365.144 27.9386C365.704 29.2176 366.343 30.4166 367.182 31.5358C367.541 32.0154 367.461 32.8548 366.982 33.1745C365.903 33.894 365.024 34.7733 364.625 36.0523C364.585 36.1722 364.505 36.2521 364.425 36.3321C363.267 37.4912 362.548 38.8501 362.228 40.4889C362.028 41.4881 361.389 42.3674 360.83 43.2068C360.151 44.206 359.951 45.445 359.032 46.3244C358.513 46.804 358.752 47.4835 358.992 48.043C359.391 48.9623 359.911 49.8417 360.31 50.7609C360.71 51.6802 361.189 52.5995 361.429 53.5588C361.629 54.1983 361.789 54.7978 362.308 55.2775C362.508 55.4373 362.707 55.7171 362.667 55.9569C362.627 56.2367 362.468 56.5964 362.268 56.8363C361.469 57.8355 360.71 58.9146 359.551 59.5142C358.233 60.2336 357.314 61.3927 356.195 62.312C355.796 62.6318 355.476 63.0714 355.117 63.4312C354.797 63.7509 354.478 64.1106 354.078 64.4304C352.96 65.3097 353.279 66.4289 353.439 67.548C354.038 67.8677 353.838 68.4273 353.878 68.9069C353.998 69.9062 354.438 70.7455 354.837 71.6248C355.516 73.1037 356.435 74.5026 356.715 76.2213C356.795 76.7809 357.114 77.4204 357.554 77.9C358.313 78.6994 358.672 79.8185 359.152 80.8177C359.352 81.2174 359.352 81.6971 359.631 81.9769C360.23 82.6164 360.27 83.4557 360.071 84.0153C359.831 84.7347 359.991 85.3343 359.991 85.9738C359.991 86.3735 360.19 86.8131 360.071 87.1729C359.871 87.7324 359.391 88.252 359.591 88.8516C359.991 89.9307 360.43 91.0499 361.029 92.0491C362.188 93.9676 363.466 95.8062 364.705 97.6448C365.464 98.7639 366.263 99.8031 367.062 100.882C367.342 101.282 368.021 101.362 368.021 101.961C368.021 102.121 368.021 102.281 368.061 102.441C367.621 102.921 367.302 103.4 367.062 104C363.586 109.356 360.47 114.951 357.793 120.787C357.514 121.386 358.113 121.946 358.592 121.866C358.513 121.946 358.433 122.026 358.393 122.106C358.153 122.186 357.913 122.386 357.913 122.665C357.913 122.665 357.913 122.705 357.873 122.705C357.594 122.985 357.634 123.385 357.873 123.705C358.273 124.184 358.672 124.624 359.032 125.104C358.912 125.543 359.312 125.943 359.711 125.943C360.23 126.542 360.71 127.182 361.189 127.821C361.189 127.861 361.229 127.901 361.229 127.981C361.309 128.141 361.429 128.301 361.589 128.381C364.146 131.738 366.463 135.256 368.54 138.933C368.58 138.973 368.58 139.013 368.62 139.053C368.26 139.772 368.061 140.532 367.941 141.331C367.941 141.491 367.941 141.571 367.981 141.691C367.861 141.811 367.781 141.891 367.701 142.011C367.262 142.61 367.222 143.21 367.342 143.929C367.781 146.607 369.459 149.325 371.017 151.483C370.977 151.563 370.937 151.643 370.897 151.723C370.098 153.442 369.139 155.08 368.181 156.759C366.503 159.677 364.785 162.715 364.185 166.072C363.946 167.391 363.866 168.75 364.545 169.989C365.504 171.748 366.982 173.346 368.181 174.945C368.42 175.265 368.78 175.305 369.059 175.185C367.821 177.663 366.583 180.141 365.424 182.659C364.225 185.217 363.067 187.815 361.988 190.453C361.109 192.572 360.23 194.81 360.63 197.168C361.069 199.766 362.747 202.204 363.986 204.522C365.504 207.4 367.062 210.278 368.58 213.156C368.66 213.316 368.78 213.395 368.9 213.475C368.42 214.115 367.901 214.714 367.222 215.234C365.983 216.233 365.664 217.752 365.903 219.271C366.063 220.35 366.383 221.429 366.662 222.508C367.062 224.027 367.461 225.586 367.941 227.105C368.26 228.144 367.861 229.103 367.861 230.103C367.861 230.702 367.182 230.822 366.902 231.182C366.103 232.261 365.264 233.3 364.545 234.419C363.267 236.258 362.028 238.096 360.87 240.015C360.27 241.014 359.831 242.093 359.431 243.212C359.232 243.812 359.711 244.332 359.911 244.891C360.031 245.211 359.831 245.691 359.831 246.09C359.831 246.73 359.671 247.369 359.911 248.049C360.111 248.608 360.031 249.488 359.471 250.087C359.192 250.367 359.192 250.887 358.992 251.246C358.513 252.245 358.153 253.365 357.394 254.164C356.915 254.684 356.635 255.283 356.555 255.843C356.275 257.561 355.396 258.92 354.677 260.439C354.278 261.318 353.838 262.198 353.719 263.157C353.679 263.517 353.759 263.877 353.599 264.196C353.039 264.236 352.68 264.636 352.72 265.315C352.76 265.675 352.92 266.115 353.159 266.514C353.239 266.914 353.479 267.314 353.918 267.674C353.998 267.714 354.078 267.793 354.158 267.873C354.637 268.433 355.157 268.953 355.476 269.352C356.835 270.951 358.313 272.43 359.751 273.949C359.871 274.069 359.951 274.189 360.071 274.268C359.631 273.949 358.792 274.308 358.952 275.028C359.192 276.347 359.591 277.586 360.151 278.785C360.43 279.385 361.549 279.105 361.469 278.425C361.469 278.385 361.469 278.385 361.469 278.345C361.828 278.106 361.988 277.626 361.629 277.266C361.509 277.146 361.429 277.026 361.349 276.906C361.309 276.507 361.269 276.107 361.229 275.747C361.189 275.348 360.79 275.068 360.43 275.068C360.39 274.908 360.35 274.788 360.35 274.628C360.35 274.508 360.31 274.428 360.27 274.348C360.83 274.948 361.389 275.587 361.948 276.227C362.148 276.467 363.666 278.185 364.066 278.985C363.906 279.185 363.866 279.504 364.026 279.744C364.225 280.064 364.425 280.224 364.825 280.224C365.144 280.224 365.424 279.984 365.504 279.704C365.784 278.665 364.785 277.626 364.225 276.866C363.267 275.548 362.188 274.308 361.109 273.149C359.951 271.91 358.792 270.751 357.634 269.472C356.955 268.713 356.275 267.953 355.676 267.154C355.596 267.034 355.476 266.914 355.396 266.794C355.396 266.594 355.556 266.435 355.676 266.235C355.836 265.915 356.076 265.635 356.275 265.315C356.715 264.596 357.194 263.956 357.993 263.557C358.792 263.157 359.551 262.677 360.151 262.038C361.309 260.839 362.308 259.48 363.386 258.201C364.225 257.202 365.104 256.242 365.863 255.203C366.423 254.444 366.782 253.524 367.302 252.725C368.181 251.446 368.061 249.807 368.7 248.448C368.78 248.328 368.7 248.009 368.66 248.009C368.46 247.969 368.22 247.929 368.101 248.049C366.902 248.968 365.704 249.887 365.024 251.246C364.945 251.406 364.905 251.526 364.825 251.686C364.785 251.526 364.745 251.406 364.665 251.246C364.465 250.807 364.146 250.407 364.026 249.967C363.826 249.328 363.746 248.608 363.626 247.929C364.585 247.289 364.825 246.09 365.783 245.451C366.263 245.131 366.702 244.691 367.102 244.212C367.621 243.652 367.142 242.813 367.901 242.453C367.781 242.173 367.701 241.814 367.461 241.614C367.222 241.414 366.982 241.534 366.902 241.933C366.862 242.133 366.622 242.253 366.543 242.453C365.863 243.892 365.064 244.412 363.626 244.332C363.347 244.332 362.947 244.132 362.787 244.292C362.188 244.691 362.148 244.451 362.268 243.932C362.348 243.612 362.548 243.372 362.667 243.053C363.067 241.694 364.066 240.694 364.785 239.495C366.303 237.017 367.741 234.419 369.699 232.221C370.977 230.822 371.736 229.183 372.375 227.545C372.735 226.585 373.334 225.746 373.414 224.667C374.373 223.987 374.333 222.748 374.852 221.829C375.611 220.31 376.61 218.831 376.53 217.113C376.61 216.473 376.65 215.953 376.69 215.434C376.69 215.354 376.61 215.234 376.57 215.154C376.49 215.234 376.37 215.274 376.29 215.394C376.171 215.554 376.091 215.754 375.971 215.953C374.013 218.831 372.215 221.869 370.937 225.146C370.857 225.346 370.617 225.466 370.458 225.586C370.378 225.426 370.338 225.226 370.258 225.106C369.699 224.147 369.779 223.108 369.858 222.069C369.898 221.509 370.058 221.11 370.538 220.79C371.456 220.15 372.176 219.391 372.695 218.352C373.014 217.712 372.815 217.312 372.535 216.833C372.295 216.393 372.096 216.433 371.736 216.873C370.617 218.232 370.458 218.352 369.379 218.591C368.94 218.711 368.74 218.472 368.86 218.032C368.9 217.912 368.86 217.752 368.94 217.712C369.818 216.993 369.739 215.953 369.858 214.954C369.898 214.674 369.938 214.275 370.138 214.235C370.937 213.875 371.017 212.996 371.456 212.396C371.856 211.837 372.255 211.237 372.495 210.638C372.695 210.038 372.695 209.359 372.775 208.719C372.176 208.919 371.816 209.359 371.576 209.878C371.496 210.038 371.456 210.158 371.337 210.278C370.977 210.718 370.657 211.157 370.378 211.637C370.657 208.12 367.981 205.641 366.463 202.604C365.424 200.525 365.184 198.207 364.625 195.969C364.385 195.01 364.106 194.41 364.225 193.691C364.305 193.691 364.345 193.651 364.425 193.611C366.143 192.691 366.383 190.733 367.661 189.334C368.94 187.935 370.817 187.935 371.976 186.456C373.254 184.818 375.012 183.778 376.171 182.02C377.529 179.901 378.368 177.143 381.005 176.264C381.843 175.984 381.484 174.625 380.645 174.905C379.407 175.265 378.288 175.864 377.409 176.824C376.57 177.703 376.131 179.022 375.172 179.741C375.092 179.701 374.972 179.701 374.892 179.741C374.852 179.462 374.812 179.182 374.852 178.902C374.852 178.343 374.253 178.063 373.813 178.303C373.694 178.382 373.534 178.462 373.414 178.542V178.502C374.173 176.584 372.935 175.784 371.536 176.024C371.896 175.465 372.255 174.905 372.495 174.266C373.414 171.907 373.614 168.79 376.131 167.471C376.57 167.231 376.57 166.512 376.131 166.272C376.091 166.192 376.051 166.072 376.011 165.992C376.011 165.912 376.011 165.872 376.011 165.792C376.49 164.953 377.01 164.074 377.489 163.234C377.649 163.034 377.848 162.834 378.008 162.595C378.608 161.795 379.047 160.916 379.407 159.997C380.965 157.439 382.603 154.881 384.24 152.403C384.32 152.323 384.32 152.203 384.36 152.123C384.88 151.203 385.119 150.324 384.96 149.285ZM362.747 119.428C362.827 119.348 362.907 119.268 362.987 119.188C362.907 119.308 362.827 119.468 362.787 119.588C362.787 119.548 362.787 119.508 362.747 119.428ZM366.782 163.074C366.742 163.154 366.702 163.234 366.622 163.314C366.662 163.234 366.702 163.154 366.702 163.034C366.782 163.034 366.782 163.074 366.782 163.074ZM362.428 197.248C362.468 197.448 362.508 197.648 362.548 197.887C362.468 197.688 362.428 197.488 362.388 197.288C362.388 197.248 362.428 197.248 362.428 197.248Z" fill="#E6E6E6"/>
<path d="M377.769 187.495C377.849 187.375 377.929 187.216 378.009 187.096C378.129 187.056 378.289 187.016 378.368 186.896C378.768 186.416 379.128 185.937 379.407 185.377C379.487 185.217 379.487 185.017 379.447 184.857C379.647 184.458 379.887 184.058 380.086 183.658C380.406 183.059 379.847 182.539 379.327 182.619C379.048 182.299 378.448 182.139 378.089 182.619C376.97 184.178 375.971 185.697 374.613 187.096C373.974 187.735 374.973 188.734 375.612 188.095C375.892 187.815 376.131 187.535 376.371 187.256C376.491 187.775 377.37 188.135 377.769 187.495Z" fill="#E6E6E6"/>
<path d="M378.368 164.593C377.929 165.392 379.127 166.112 379.567 165.312C379.806 164.873 380.046 164.433 380.286 163.993C380.526 163.594 380.845 163.114 380.685 162.635C380.605 162.355 380.326 162.075 380.006 162.115C379.727 162.155 379.447 162.235 379.327 162.515C379.247 162.635 379.207 162.834 379.247 162.994C379.127 163.194 379.007 163.434 378.888 163.634C378.728 163.953 378.528 164.273 378.368 164.593Z" fill="#E6E6E6"/>
<path d="M368.221 169.909C368.301 170.109 368.421 170.269 368.62 170.389C368.66 170.628 368.74 170.868 368.78 171.068C368.98 171.947 370.338 171.588 370.138 170.708C370.059 170.309 369.939 169.869 369.859 169.469C369.859 169.429 369.819 169.349 369.819 169.309C369.779 169.229 369.739 169.149 369.659 169.07C369.659 169.03 369.659 168.99 369.619 168.95C369.539 168.63 369.3 168.43 368.98 168.35C368.62 168.23 368.221 168.51 368.101 168.83C368.021 169.07 368.101 169.269 368.221 169.429C368.221 169.589 368.181 169.789 368.221 169.909Z" fill="#E6E6E6"/>
<path d="M373.454 136.255C373.974 135.455 374.493 134.656 375.012 133.857C375.492 133.137 374.493 132.538 373.894 133.017C373.295 133.497 372.735 133.937 372.136 134.416C371.816 134.656 371.896 135.176 372.136 135.415C372.176 135.455 372.216 135.495 372.256 135.535C372.256 135.575 372.216 135.575 372.216 135.615C371.737 136.295 372.975 137.014 373.454 136.255Z" fill="#E6E6E6"/>
<path d="M376.93 102.801C375.851 103.92 374.813 105.119 373.854 106.358C373.814 106.398 373.814 106.438 373.774 106.478C373.494 106.758 373.215 107.037 372.935 107.317C372.296 107.957 373.295 108.956 373.934 108.316C374.453 107.797 374.932 107.277 375.412 106.758C375.652 106.518 375.891 106.278 376.131 106.038C376.211 105.958 376.251 105.878 376.291 105.758C376.85 105.119 377.369 104.479 377.889 103.84C377.889 103.84 377.889 103.84 377.929 103.8C377.969 103.76 378.009 103.72 378.049 103.64C378.528 103.041 377.449 102.241 376.93 102.801Z" fill="#E6E6E6"/>
<path d="M358.073 274.348C356.635 274.668 353.199 274.588 352.999 276.547C352.84 278.025 353.159 279.624 353.079 281.103C353.039 281.782 352.959 282.422 352.88 283.101C352.68 283.221 352.52 283.381 352.48 283.701C352.4 284.78 352.28 285.859 352.2 286.939C352.12 287.738 353.399 287.898 353.599 287.138C354.038 285.26 354.318 283.341 354.478 281.383C354.917 282.982 355.277 284.58 355.556 286.219C355.716 287.018 356.954 286.819 356.954 286.019C356.954 284.141 357.034 282.222 356.915 280.344C356.835 279.344 356.595 278.625 355.796 278.025C355.516 277.826 355.237 277.905 355.037 278.065C354.917 277.626 354.757 277.226 354.637 276.786C354.677 276.706 354.757 276.586 354.877 276.507C355.117 276.307 355.596 276.147 356.116 276.027C356.235 276.387 356.675 276.706 357.154 276.507C357.753 276.227 358.193 275.987 358.712 275.587C359.232 275.188 358.912 274.188 358.073 274.348Z" fill="#E6E6E6"/>
<path d="M347.567 286.099C347.087 285.74 346.568 286.259 346.528 286.699C346.488 287.019 346.448 287.378 346.448 287.698C345.05 287.338 343.811 286.139 342.613 285.34C341.854 284.82 341.175 286.019 341.894 286.539C343.532 287.698 344.97 289.057 347.047 289.217C347.447 289.257 347.726 288.857 347.766 288.497C347.766 288.378 347.806 288.258 347.806 288.138C348.046 288.378 348.246 288.657 348.445 288.937C348.965 289.697 350.163 288.977 349.644 288.218C349.045 287.378 348.406 286.699 347.567 286.099Z" fill="#E6E6E6"/>
<path d="M344.45 294.013C343.332 293.174 342.173 292.614 340.855 292.175C339.496 291.415 338.138 290.616 336.82 289.736C336.061 289.217 335.342 290.456 336.101 290.936C337.339 291.775 338.618 292.534 339.936 293.294C340.016 293.374 340.096 293.414 340.216 293.454C340.256 293.454 340.256 293.454 340.295 293.494C341.414 294.093 342.573 294.693 343.731 295.212C344.57 295.612 345.169 294.573 344.45 294.013Z" fill="#E6E6E6"/>
<path d="M374.853 267.154C373.175 267.674 371.577 268.313 370.059 269.112C369.979 268.793 369.619 268.473 369.18 268.553C369.02 268.593 368.86 268.633 368.74 268.673C368.581 268.353 368.181 268.113 367.742 268.313C366.943 268.633 365.385 268.953 365.025 269.792C364.905 270.072 364.905 270.431 365.145 270.631C365.185 270.671 365.265 270.711 365.305 270.751C364.626 271.151 363.986 271.511 363.307 271.91C362.508 272.35 363.227 273.589 364.026 273.109C364.825 272.63 365.624 272.19 366.463 271.71C366.503 272.19 366.983 272.59 367.502 272.27C369.939 270.631 372.496 269.352 375.292 268.473C376.091 268.233 375.732 266.874 374.853 267.154Z" fill="#E6E6E6"/>
<path d="M381.524 282.062C378.049 282.262 374.493 282.222 371.017 282.622C369.26 282.822 367.662 283.741 368.101 285.74C368.301 286.619 369.619 286.259 369.459 285.38C369.379 285.1 369.499 284.86 369.739 284.66C369.819 284.74 369.899 284.82 370.019 284.94C370.418 285.34 371.017 285.14 371.177 284.62C371.497 284.7 371.696 284.9 371.816 285.22C372.136 285.7 372.975 285.7 373.095 285.06C373.454 283.421 375.532 285.14 376.451 284.301C376.61 284.141 376.73 283.941 376.73 283.741C378.328 283.661 379.886 283.581 381.484 283.501C382.443 283.421 382.443 282.022 381.524 282.062Z" fill="#E6E6E6"/>
</g>
<defs>
<clipPath id="clip0">
<rect width="385" height="311" fill="white"/>
</clipPath>
</defs>
</svg>
