<svg width="342" height="273" viewBox="0 0 342 273" fill="none" xmlns="http://www.w3.org/2000/svg">
<rect x="324" y="38" width="38" height="1" transform="rotate(-90 324 38)" fill="#E6E6E6"/>
<rect x="324" y="230" width="38" height="1" transform="rotate(-90 324 230)" fill="#E6E6E6"/>
<rect x="331" y="230" width="38" height="1" transform="rotate(-90 331 230)" fill="#E6E6E6"/>
<rect x="331" y="38" width="38" height="1" transform="rotate(-90 331 38)" fill="#E6E6E6"/>
<rect y="254" width="80" height="1" fill="#E6E6E6"/>
<rect x="220" y="254" width="80" height="1" fill="#E6E6E6"/>
<rect y="261" width="80" height="1" fill="#E6E6E6"/>
<rect x="220" y="261" width="80" height="1" fill="#E6E6E6"/>
<path d="M86.8864 262H87.7664L91.4514 254.08H90.5879L88.2009 259.255L85.8579 254.08H84.9614L87.7774 260.124L86.8864 262ZM92.18 262C93.665 262.38 93.9675 261.279 94.193 259.866C94.4845 258.001 94.567 256.373 94.666 254.855H98.076V262H98.8845V254.08H93.885C93.797 256.076 93.6815 257.759 93.4065 259.486C93.1535 261.098 92.9885 261.356 92.18 261.279V262ZM101.675 262H102.616V261.059H101.675V262ZM108.716 262H111.774C111.928 262 112.132 261.989 112.33 261.961C113.551 261.796 114.26 260.795 114.26 259.58C114.26 258.364 113.551 257.363 112.33 257.198C112.132 257.171 111.923 257.16 111.774 257.16H109.525V254.855H113.606V254.08H108.716V262ZM109.525 261.224V257.935H111.752C111.884 257.935 112.077 257.946 112.242 257.979C113.056 258.139 113.43 258.843 113.43 259.58C113.43 260.317 113.056 261.021 112.242 261.18C112.077 261.213 111.884 261.224 111.752 261.224H109.525ZM117.792 262H118.672L122.357 254.08H121.493L119.106 259.255L116.763 254.08H115.867L118.683 260.124L117.792 262ZM123.534 262H124.518L126.757 258.672L129.001 262H129.98L127.241 257.99L129.914 254.08H128.929L126.757 257.314L124.584 254.08H123.605L126.278 257.99L123.534 262ZM134.512 262H135.32V254.855H138.087V254.08H131.745V254.855H134.512V262ZM144.991 262H145.832L143.104 254.08H142.032L139.304 262H140.145L140.811 260.08H144.325L144.991 262ZM141.069 259.321L142.56 254.987L144.061 259.321H141.069ZM147.925 262H148.734V258.991H150.983C151.132 258.991 151.341 258.98 151.539 258.947C152.771 258.76 153.469 257.77 153.469 256.538C153.469 255.301 152.776 254.316 151.539 254.124C151.341 254.091 151.137 254.08 150.983 254.08H147.925V262ZM148.734 258.221V254.855H150.961C151.093 254.855 151.286 254.866 151.451 254.899C152.265 255.075 152.639 255.801 152.639 256.538C152.639 257.275 152.265 258.001 151.451 258.172C151.286 258.21 151.093 258.221 150.961 258.221H148.734ZM155.664 262H156.44V255.884L159.256 262H159.778L162.6 255.884V261.994H163.37V254.08H162.616L159.52 260.74L156.407 254.08H155.664V262ZM172.003 262V254.08H171.189L166.827 260.57V254.08H166.013V262H166.827L171.189 255.504V262H172.003ZM174.643 262H175.452V258.425H179.83V262H180.633V254.08H179.83V257.649H175.452V254.08H174.643V262ZM186.48 262.165C188.317 262.165 189.5 261.147 189.934 259.563L189.109 259.349C188.774 260.597 187.899 261.389 186.48 261.389C184.621 261.389 183.675 260.02 183.686 258.04C183.703 256.06 184.621 254.69 186.48 254.69C187.899 254.69 188.774 255.482 189.109 256.731L189.934 256.516C189.5 254.932 188.317 253.915 186.48 253.915C184.115 253.915 182.834 255.603 182.834 258.04C182.834 260.476 184.115 262.165 186.48 262.165ZM192.248 262H193.056V258.04L196.95 262H198.006L194.013 257.902L197.704 254.08H196.67L193.056 257.82V254.08H192.248V262ZM205.016 262H205.857L203.129 254.08H202.057L199.329 262H200.17L200.836 260.08H204.35L205.016 262ZM201.094 259.321L202.585 254.987L204.086 259.321H201.094ZM210.288 254.08C210.134 254.08 209.936 254.091 209.733 254.124C208.495 254.316 207.802 255.301 207.802 256.538C207.802 257.578 208.292 258.436 209.183 258.793L207.621 262H208.55L210.008 258.991H212.543V262H213.346V254.08H210.288ZM212.543 258.221H210.31C210.178 258.221 209.991 258.21 209.821 258.172C209.012 258.001 208.638 257.275 208.638 256.538C208.638 255.801 209.012 255.075 209.821 254.899C209.991 254.866 210.178 254.855 210.31 254.855H212.543V258.221Z" fill="#969696"/>
<path d="M332 184.999L332 184.191L328.04 184.191L332 180.297L332 179.241L327.902 183.234L324.08 179.543L324.08 180.577L327.82 184.191L324.08 184.191L324.08 184.999L332 184.999ZM332 176.031L332 175.151L324.08 171.466L324.08 172.33L329.255 174.717L324.08 177.06L324.08 177.956L330.124 175.14L332 176.031ZM332 170.738C332.379 169.253 331.279 168.95 329.866 168.725C328.001 168.433 326.373 168.351 324.855 168.252L324.855 164.842L332 164.842L332 164.033L324.08 164.033L324.08 169.033C326.076 169.121 327.759 169.236 329.486 169.511C331.098 169.764 331.356 169.929 331.279 170.738L332 170.738ZM332 161.402L332 158.344C332 158.19 331.989 157.986 331.956 157.783C331.763 156.551 330.779 155.858 329.541 155.858C328.309 155.858 327.319 156.551 327.132 157.783C327.099 157.986 327.088 158.19 327.088 158.344L327.088 160.593L324.08 160.593L324.08 161.402L332 161.402ZM331.224 160.593L327.858 160.593L327.858 158.366C327.858 158.234 327.869 158.041 327.908 157.871C328.078 157.062 328.804 156.688 329.541 156.688C330.278 156.688 331.004 157.062 331.18 157.871C331.213 158.041 331.224 158.234 331.224 158.366L331.224 160.593ZM333.32 153.919L333.32 153.11L332 153.11L332 147.451L333.32 147.451L333.32 146.648L331.224 146.648L331.224 147.214L324.08 147.214L324.074 152.098C325.812 152.192 327.044 152.236 328.502 152.39C329.844 152.533 331.224 152.687 331.224 153.919L333.32 153.919ZM331.224 152.373C330.762 151.862 330.009 151.73 328.744 151.603C327.363 151.466 326.186 151.411 324.85 151.345L324.855 148.023L331.224 148.023L331.224 152.373ZM332 145L332 143.96L328.078 140.616L332 140.616L332 139.808L328.078 139.808L332 136.458L332 135.424L327.902 138.933L324.08 135.727L324.08 136.744L327.781 139.808L324.08 139.808L324.08 140.616L327.781 140.616L324.08 143.68L324.08 144.697L327.902 141.491L332 145ZM332 127.454L324.08 127.454L324.08 128.268L330.57 132.629L324.08 132.629L324.08 133.443L332 133.443L332 132.629L325.504 128.268L332 128.268L332 127.454ZM332 124.813L332 124.004L328.425 124.004L328.425 119.626L332 119.626L332 118.823L324.08 118.823L324.08 119.626L327.649 119.626L327.649 124.004L324.08 124.004L324.08 124.813L332 124.813ZM332.165 112.976C332.165 111.139 331.147 109.957 329.563 109.522L329.349 110.347C330.597 110.683 331.389 111.557 331.389 112.976C331.389 114.835 330.02 115.781 328.04 115.77C326.06 115.754 324.69 114.835 324.69 112.976C324.69 111.557 325.482 110.683 326.731 110.347L326.516 109.522C324.932 109.957 323.915 111.139 323.915 112.976C323.915 115.341 325.603 116.623 328.04 116.623C330.476 116.623 332.165 115.341 332.165 112.976ZM332 107.209L332 106.4L328.04 106.4L332 102.506L332 101.45L327.902 105.443L324.08 101.753L324.08 102.787L327.82 106.4L324.08 106.4L324.08 107.209L332 107.209ZM332 93.5878L324.08 93.5878L324.08 94.4018L330.57 98.7633L324.08 98.7633L324.08 99.5773L332 99.5773L332 98.7633L325.504 94.4018L332 94.4018L332 93.5878ZM323.376 87.889C323.376 87.1025 322.743 86.47 321.957 86.47L321.957 87.141C322.369 87.141 322.705 87.471 322.705 87.889C322.705 88.3015 322.369 88.637 321.957 88.637L321.957 89.308C322.743 89.308 323.376 88.6755 323.376 87.889ZM332 90.947L332 90.133L325.504 85.7715L332 85.7715L332 84.9575L324.08 84.9575L324.08 85.7715L330.57 90.133L324.08 90.133L324.08 90.947L332 90.947ZM332 76.9081L332 76.0996L324.855 76.0996L324.855 73.3331L324.08 73.3331L324.08 79.6746L324.855 79.6746L324.855 76.9081L332 76.9081ZM332 71.3511L332 70.5426L328.991 70.5426L328.991 68.2931C328.991 68.1446 328.98 67.9356 328.947 67.7376C328.76 66.5056 327.77 65.8071 326.538 65.8071C325.301 65.8071 324.316 66.5001 324.124 67.7376C324.091 67.9356 324.08 68.1391 324.08 68.2931L324.08 71.3511L332 71.3511ZM328.221 70.5426L324.855 70.5426L324.855 68.3151C324.855 68.1831 324.866 67.9906 324.899 67.8256C325.075 67.0116 325.801 66.6376 326.538 66.6376C327.275 66.6376 328.001 67.0116 328.172 67.8256C328.21 67.9906 328.221 68.1831 328.221 68.3151L328.221 70.5426ZM332 58.6903L332 57.8488L324.08 60.5768L324.08 61.6493L332 64.3773L332 63.5358L330.08 62.8703L330.08 59.3558L332 58.6903ZM329.321 62.6118L324.987 61.1213L329.321 59.6198L329.321 62.6118ZM332 55.7556L332 54.9471L328.04 54.9471L332 51.0531L332 49.9971L327.902 53.9901L324.08 50.2996L324.08 51.3336L327.82 54.9471L324.08 54.9471L324.08 55.7556L332 55.7556ZM332 46.0178L332 45.2093L324.855 45.2093L324.855 42.4428L324.08 42.4428L324.08 48.7843L324.855 48.7843L324.855 46.0178L332 46.0178Z" fill="#969696"/>
</svg>
