<svg width="1920" height="860" viewBox="0 0 1920 860" fill="none" xmlns="http://www.w3.org/2000/svg">
<mask id="mask0" mask-type="alpha" maskUnits="userSpaceOnUse" x="0" y="0" width="1920" height="860">
<rect width="1920" height="860" fill="#4A7755"/>
</mask>
<g mask="url(#mask0)">
<path d="M899.1 49.002C898.836 47.1621 897.951 45.4746 896.58 44.1973C895.057 42.7793 893.082 42 891.002 42C888.922 42 886.947 42.7793 885.43 44.1914C884.059 45.4688 883.174 47.1621 882.91 48.9961C879.951 50.291 878 53.2383 878 56.4961C878 61.0078 881.668 64.6758 886.18 64.6758C887.568 64.6758 888.922 64.3242 890.123 63.6621V72H891.881V63.6621C893.082 64.3242 894.436 64.6758 895.824 64.6758C900.336 64.6758 904.004 61.0078 904.004 56.4961C904.004 53.2383 902.059 50.291 899.1 49.002ZM895.824 62.918C894.389 62.918 893.006 62.4375 891.881 61.5645V56.1855L895.824 54.1113L895.004 52.5527L891.881 54.1934V50.7305H890.123V58.084L887 56.4434L886.18 58.002L890.123 60.0762V61.5586C888.998 62.4375 887.615 62.9121 886.18 62.9121C882.641 62.918 879.758 60.041 879.758 56.4961C879.758 53.7891 881.469 51.3574 884.018 50.4492L884.557 50.2559L884.598 49.6875C884.721 48.0762 885.441 46.582 886.625 45.4805C887.82 44.3672 889.373 43.7578 891.002 43.7578C892.631 43.7578 894.184 44.3672 895.379 45.4805C896.562 46.5879 897.283 48.082 897.406 49.6875L897.447 50.2559L897.986 50.4492C900.535 51.3574 902.246 53.7891 902.246 56.4961C902.246 60.041 899.369 62.918 895.824 62.918Z" fill="#4A7755"/>
<path d="M834.1 117.002C833.836 115.162 832.951 113.475 831.58 112.197C830.057 110.779 828.082 110 826.002 110C823.922 110 821.947 110.779 820.43 112.191C819.059 113.469 818.174 115.162 817.91 116.996C814.951 118.291 813 121.238 813 124.496C813 129.008 816.668 132.676 821.18 132.676C822.568 132.676 823.922 132.324 825.123 131.662V140H826.881V131.662C828.082 132.324 829.436 132.676 830.824 132.676C835.336 132.676 839.004 129.008 839.004 124.496C839.004 121.238 837.059 118.291 834.1 117.002ZM830.824 130.918C829.389 130.918 828.006 130.438 826.881 129.564V124.186L830.824 122.111L830.004 120.553L826.881 122.193V118.73H825.123V126.084L822 124.443L821.18 126.002L825.123 128.076V129.559C823.998 130.438 822.615 130.912 821.18 130.912C817.641 130.918 814.758 128.041 814.758 124.496C814.758 121.789 816.469 119.357 819.018 118.449L819.557 118.256L819.598 117.688C819.721 116.076 820.441 114.582 821.625 113.48C822.82 112.367 824.373 111.758 826.002 111.758C827.631 111.758 829.184 112.367 830.379 113.48C831.562 114.588 832.283 116.082 832.406 117.688L832.447 118.256L832.986 118.449C835.535 119.357 837.246 121.789 837.246 124.496C837.246 128.041 834.369 130.918 830.824 130.918Z" fill="#4A7755"/>
<path d="M923.1 180.002C922.836 178.162 921.951 176.475 920.58 175.197C919.057 173.779 917.082 173 915.002 173C912.922 173 910.947 173.779 909.43 175.191C908.059 176.469 907.174 178.162 906.91 179.996C903.951 181.291 902 184.238 902 187.496C902 192.008 905.668 195.676 910.18 195.676C911.568 195.676 912.922 195.324 914.123 194.662V203H915.881V194.662C917.082 195.324 918.436 195.676 919.824 195.676C924.336 195.676 928.004 192.008 928.004 187.496C928.004 184.238 926.059 181.291 923.1 180.002ZM919.824 193.918C918.389 193.918 917.006 193.438 915.881 192.564V187.186L919.824 185.111L919.004 183.553L915.881 185.193V181.73H914.123V189.084L911 187.443L910.18 189.002L914.123 191.076V192.559C912.998 193.438 911.615 193.912 910.18 193.912C906.641 193.918 903.758 191.041 903.758 187.496C903.758 184.789 905.469 182.357 908.018 181.449L908.557 181.256L908.598 180.688C908.721 179.076 909.441 177.582 910.625 176.48C911.82 175.367 913.373 174.758 915.002 174.758C916.631 174.758 918.184 175.367 919.379 176.48C920.562 177.588 921.283 179.082 921.406 180.688L921.447 181.256L921.986 181.449C924.535 182.357 926.246 184.789 926.246 187.496C926.246 191.041 923.369 193.918 919.824 193.918Z" fill="#4A7755"/>
<path d="M672.1 401.002C671.836 399.162 670.951 397.475 669.58 396.197C668.057 394.779 666.082 394 664.002 394C661.922 394 659.947 394.779 658.43 396.191C657.059 397.469 656.174 399.162 655.91 400.996C652.951 402.291 651 405.238 651 408.496C651 413.008 654.668 416.676 659.18 416.676C660.568 416.676 661.922 416.324 663.123 415.662V424H664.881V415.662C666.082 416.324 667.436 416.676 668.824 416.676C673.336 416.676 677.004 413.008 677.004 408.496C677.004 405.238 675.059 402.291 672.1 401.002ZM668.824 414.918C667.389 414.918 666.006 414.438 664.881 413.564V408.186L668.824 406.111L668.004 404.553L664.881 406.193V402.73H663.123V410.084L660 408.443L659.18 410.002L663.123 412.076V413.559C661.998 414.438 660.615 414.912 659.18 414.912C655.641 414.918 652.758 412.041 652.758 408.496C652.758 405.789 654.469 403.357 657.018 402.449L657.557 402.256L657.598 401.688C657.721 400.076 658.441 398.582 659.625 397.48C660.82 396.367 662.373 395.758 664.002 395.758C665.631 395.758 667.184 396.367 668.379 397.48C669.562 398.588 670.283 400.082 670.406 401.688L670.447 402.256L670.986 402.449C673.535 403.357 675.246 405.789 675.246 408.496C675.246 412.041 672.369 414.918 668.824 414.918Z" fill="#4A7755"/>
<path d="M966.1 431.002C965.836 429.162 964.951 427.475 963.58 426.197C962.057 424.779 960.082 424 958.002 424C955.922 424 953.947 424.779 952.43 426.191C951.059 427.469 950.174 429.162 949.91 430.996C946.951 432.291 945 435.238 945 438.496C945 443.008 948.668 446.676 953.18 446.676C954.568 446.676 955.922 446.324 957.123 445.662V454H958.881V445.662C960.082 446.324 961.436 446.676 962.824 446.676C967.336 446.676 971.004 443.008 971.004 438.496C971.004 435.238 969.059 432.291 966.1 431.002ZM962.824 444.918C961.389 444.918 960.006 444.438 958.881 443.564V438.186L962.824 436.111L962.004 434.553L958.881 436.193V432.73H957.123V440.084L954 438.443L953.18 440.002L957.123 442.076V443.559C955.998 444.438 954.615 444.912 953.18 444.912C949.641 444.918 946.758 442.041 946.758 438.496C946.758 435.789 948.469 433.357 951.018 432.449L951.557 432.256L951.598 431.688C951.721 430.076 952.441 428.582 953.625 427.48C954.82 426.367 956.373 425.758 958.002 425.758C959.631 425.758 961.184 426.367 962.379 427.48C963.562 428.588 964.283 430.082 964.406 431.688L964.447 432.256L964.986 432.449C967.535 433.357 969.246 435.789 969.246 438.496C969.246 442.041 966.369 444.918 962.824 444.918Z" fill="#4A7755"/>
<path d="M852.1 491.002C851.836 489.162 850.951 487.475 849.58 486.197C848.057 484.779 846.082 484 844.002 484C841.922 484 839.947 484.779 838.43 486.191C837.059 487.469 836.174 489.162 835.91 490.996C832.951 492.291 831 495.238 831 498.496C831 503.008 834.668 506.676 839.18 506.676C840.568 506.676 841.922 506.324 843.123 505.662V514H844.881V505.662C846.082 506.324 847.436 506.676 848.824 506.676C853.336 506.676 857.004 503.008 857.004 498.496C857.004 495.238 855.059 492.291 852.1 491.002ZM848.824 504.918C847.389 504.918 846.006 504.438 844.881 503.564V498.186L848.824 496.111L848.004 494.553L844.881 496.193V492.73H843.123V500.084L840 498.443L839.18 500.002L843.123 502.076V503.559C841.998 504.438 840.615 504.912 839.18 504.912C835.641 504.918 832.758 502.041 832.758 498.496C832.758 495.789 834.469 493.357 837.018 492.449L837.557 492.256L837.598 491.688C837.721 490.076 838.441 488.582 839.625 487.48C840.82 486.367 842.373 485.758 844.002 485.758C845.631 485.758 847.184 486.367 848.379 487.48C849.562 488.588 850.283 490.082 850.406 491.688L850.447 492.256L850.986 492.449C853.535 493.357 855.246 495.789 855.246 498.496C855.246 502.041 852.369 504.918 848.824 504.918Z" fill="#4A7755"/>
<path d="M1071.1 492.002C1070.84 490.162 1069.95 488.475 1068.58 487.197C1067.06 485.779 1065.08 485 1063 485C1060.92 485 1058.95 485.779 1057.43 487.191C1056.06 488.469 1055.17 490.162 1054.91 491.996C1051.95 493.291 1050 496.238 1050 499.496C1050 504.008 1053.67 507.676 1058.18 507.676C1059.57 507.676 1060.92 507.324 1062.12 506.662V515H1063.88V506.662C1065.08 507.324 1066.44 507.676 1067.82 507.676C1072.34 507.676 1076 504.008 1076 499.496C1076 496.238 1074.06 493.291 1071.1 492.002ZM1067.82 505.918C1066.39 505.918 1065.01 505.438 1063.88 504.564V499.186L1067.82 497.111L1067 495.553L1063.88 497.193V493.73H1062.12V501.084L1059 499.443L1058.18 501.002L1062.12 503.076V504.559C1061 505.438 1059.62 505.912 1058.18 505.912C1054.64 505.918 1051.76 503.041 1051.76 499.496C1051.76 496.789 1053.47 494.357 1056.02 493.449L1056.56 493.256L1056.6 492.688C1056.72 491.076 1057.44 489.582 1058.62 488.48C1059.82 487.367 1061.37 486.758 1063 486.758C1064.63 486.758 1066.18 487.367 1067.38 488.48C1068.56 489.588 1069.28 491.082 1069.41 492.688L1069.45 493.256L1069.99 493.449C1072.54 494.357 1074.25 496.789 1074.25 499.496C1074.25 503.041 1071.37 505.918 1067.82 505.918Z" fill="#4A7755"/>
<path d="M1122.1 201.002C1121.84 199.162 1120.95 197.475 1119.58 196.197C1118.06 194.779 1116.08 194 1114 194C1111.92 194 1109.95 194.779 1108.43 196.191C1107.06 197.469 1106.17 199.162 1105.91 200.996C1102.95 202.291 1101 205.238 1101 208.496C1101 213.008 1104.67 216.676 1109.18 216.676C1110.57 216.676 1111.92 216.324 1113.12 215.662V224H1114.88V215.662C1116.08 216.324 1117.44 216.676 1118.82 216.676C1123.34 216.676 1127 213.008 1127 208.496C1127 205.238 1125.06 202.291 1122.1 201.002ZM1118.82 214.918C1117.39 214.918 1116.01 214.438 1114.88 213.564V208.186L1118.82 206.111L1118 204.553L1114.88 206.193V202.73H1113.12V210.084L1110 208.443L1109.18 210.002L1113.12 212.076V213.559C1112 214.438 1110.62 214.912 1109.18 214.912C1105.64 214.918 1102.76 212.041 1102.76 208.496C1102.76 205.789 1104.47 203.357 1107.02 202.449L1107.56 202.256L1107.6 201.688C1107.72 200.076 1108.44 198.582 1109.62 197.48C1110.82 196.367 1112.37 195.758 1114 195.758C1115.63 195.758 1117.18 196.367 1118.38 197.48C1119.56 198.588 1120.28 200.082 1120.41 201.688L1120.45 202.256L1120.99 202.449C1123.54 203.357 1125.25 205.789 1125.25 208.496C1125.25 212.041 1122.37 214.918 1118.82 214.918Z" fill="#4A7755"/>
<path d="M1224.1 416.002C1223.84 414.162 1222.95 412.475 1221.58 411.197C1220.06 409.779 1218.08 409 1216 409C1213.92 409 1211.95 409.779 1210.43 411.191C1209.06 412.469 1208.17 414.162 1207.91 415.996C1204.95 417.291 1203 420.238 1203 423.496C1203 428.008 1206.67 431.676 1211.18 431.676C1212.57 431.676 1213.92 431.324 1215.12 430.662V439H1216.88V430.662C1218.08 431.324 1219.44 431.676 1220.82 431.676C1225.34 431.676 1229 428.008 1229 423.496C1229 420.238 1227.06 417.291 1224.1 416.002ZM1220.82 429.918C1219.39 429.918 1218.01 429.438 1216.88 428.564V423.186L1220.82 421.111L1220 419.553L1216.88 421.193V417.73H1215.12V425.084L1212 423.443L1211.18 425.002L1215.12 427.076V428.559C1214 429.438 1212.62 429.912 1211.18 429.912C1207.64 429.918 1204.76 427.041 1204.76 423.496C1204.76 420.789 1206.47 418.357 1209.02 417.449L1209.56 417.256L1209.6 416.688C1209.72 415.076 1210.44 413.582 1211.62 412.48C1212.82 411.367 1214.37 410.758 1216 410.758C1217.63 410.758 1219.18 411.367 1220.38 412.48C1221.56 413.588 1222.28 415.082 1222.41 416.688L1222.45 417.256L1222.99 417.449C1225.54 418.357 1227.25 420.789 1227.25 423.496C1227.25 427.041 1224.37 429.918 1220.82 429.918Z" fill="#4A7755"/>
<path d="M1241.1 274.002C1240.84 272.162 1239.95 270.475 1238.58 269.197C1237.06 267.779 1235.08 267 1233 267C1230.92 267 1228.95 267.779 1227.43 269.191C1226.06 270.469 1225.17 272.162 1224.91 273.996C1221.95 275.291 1220 278.238 1220 281.496C1220 286.008 1223.67 289.676 1228.18 289.676C1229.57 289.676 1230.92 289.324 1232.12 288.662V297H1233.88V288.662C1235.08 289.324 1236.44 289.676 1237.82 289.676C1242.34 289.676 1246 286.008 1246 281.496C1246 278.238 1244.06 275.291 1241.1 274.002ZM1237.82 287.918C1236.39 287.918 1235.01 287.438 1233.88 286.564V281.186L1237.82 279.111L1237 277.553L1233.88 279.193V275.73H1232.12V283.084L1229 281.443L1228.18 283.002L1232.12 285.076V286.559C1231 287.438 1229.62 287.912 1228.18 287.912C1224.64 287.918 1221.76 285.041 1221.76 281.496C1221.76 278.789 1223.47 276.357 1226.02 275.449L1226.56 275.256L1226.6 274.688C1226.72 273.076 1227.44 271.582 1228.62 270.48C1229.82 269.367 1231.37 268.758 1233 268.758C1234.63 268.758 1236.18 269.367 1237.38 270.48C1238.56 271.588 1239.28 273.082 1239.41 274.688L1239.45 275.256L1239.99 275.449C1242.54 276.357 1244.25 278.789 1244.25 281.496C1244.25 285.041 1241.37 287.918 1237.82 287.918Z" fill="#4A7755"/>
<path d="M1377.1 231.002C1376.84 229.162 1375.95 227.475 1374.58 226.197C1373.06 224.779 1371.08 224 1369 224C1366.92 224 1364.95 224.779 1363.43 226.191C1362.06 227.469 1361.17 229.162 1360.91 230.996C1357.95 232.291 1356 235.238 1356 238.496C1356 243.008 1359.67 246.676 1364.18 246.676C1365.57 246.676 1366.92 246.324 1368.12 245.662V254H1369.88V245.662C1371.08 246.324 1372.44 246.676 1373.82 246.676C1378.34 246.676 1382 243.008 1382 238.496C1382 235.238 1380.06 232.291 1377.1 231.002ZM1373.82 244.918C1372.39 244.918 1371.01 244.438 1369.88 243.564V238.186L1373.82 236.111L1373 234.553L1369.88 236.193V232.73H1368.12V240.084L1365 238.443L1364.18 240.002L1368.12 242.076V243.559C1367 244.438 1365.62 244.912 1364.18 244.912C1360.64 244.918 1357.76 242.041 1357.76 238.496C1357.76 235.789 1359.47 233.357 1362.02 232.449L1362.56 232.256L1362.6 231.688C1362.72 230.076 1363.44 228.582 1364.62 227.48C1365.82 226.367 1367.37 225.758 1369 225.758C1370.63 225.758 1372.18 226.367 1373.38 227.48C1374.56 228.588 1375.28 230.082 1375.41 231.688L1375.45 232.256L1375.99 232.449C1378.54 233.357 1380.25 235.789 1380.25 238.496C1380.25 242.041 1377.37 244.918 1373.82 244.918Z" fill="#4A7755"/>
<path d="M700.1 45.002C699.836 43.1621 698.951 41.4746 697.58 40.1973C696.057 38.7793 694.082 38 692.002 38C689.922 38 687.947 38.7793 686.43 40.1914C685.059 41.4688 684.174 43.1621 683.91 44.9961C680.951 46.291 679 49.2383 679 52.4961C679 57.0078 682.668 60.6758 687.18 60.6758C688.568 60.6758 689.922 60.3242 691.123 59.6621V68H692.881V59.6621C694.082 60.3242 695.436 60.6758 696.824 60.6758C701.336 60.6758 705.004 57.0078 705.004 52.4961C705.004 49.2383 703.059 46.291 700.1 45.002ZM696.824 58.918C695.389 58.918 694.006 58.4375 692.881 57.5645V52.1855L696.824 50.1113L696.004 48.5527L692.881 50.1934V46.7305H691.123V54.084L688 52.4434L687.18 54.002L691.123 56.0762V57.5586C689.998 58.4375 688.615 58.9121 687.18 58.9121C683.641 58.918 680.758 56.041 680.758 52.4961C680.758 49.7891 682.469 47.3574 685.018 46.4492L685.557 46.2559L685.598 45.6875C685.721 44.0762 686.441 42.582 687.625 41.4805C688.82 40.3672 690.373 39.7578 692.002 39.7578C693.631 39.7578 695.184 40.3672 696.379 41.4805C697.562 42.5879 698.283 44.082 698.406 45.6875L698.447 46.2559L698.986 46.4492C701.535 47.3574 703.246 49.7891 703.246 52.4961C703.246 56.041 700.369 58.918 696.824 58.918Z" fill="#4A7755"/>
<path d="M715.1 177.002C714.836 175.162 713.951 173.475 712.58 172.197C711.057 170.779 709.082 170 707.002 170C704.922 170 702.947 170.779 701.43 172.191C700.059 173.469 699.174 175.162 698.91 176.996C695.951 178.291 694 181.238 694 184.496C694 189.008 697.668 192.676 702.18 192.676C703.568 192.676 704.922 192.324 706.123 191.662V200H707.881V191.662C709.082 192.324 710.436 192.676 711.824 192.676C716.336 192.676 720.004 189.008 720.004 184.496C720.004 181.238 718.059 178.291 715.1 177.002ZM711.824 190.918C710.389 190.918 709.006 190.438 707.881 189.564V184.186L711.824 182.111L711.004 180.553L707.881 182.193V178.73H706.123V186.084L703 184.443L702.18 186.002L706.123 188.076V189.559C704.998 190.438 703.615 190.912 702.18 190.912C698.641 190.918 695.758 188.041 695.758 184.496C695.758 181.789 697.469 179.357 700.018 178.449L700.557 178.256L700.598 177.688C700.721 176.076 701.441 174.582 702.625 173.48C703.82 172.367 705.373 171.758 707.002 171.758C708.631 171.758 710.184 172.367 711.379 173.48C712.562 174.588 713.283 176.082 713.406 177.688L713.447 178.256L713.986 178.449C716.535 179.357 718.246 181.789 718.246 184.496C718.246 188.041 715.369 190.918 711.824 190.918Z" fill="#4A7755"/>
<path d="M784.1 263.002C783.836 261.162 782.951 259.475 781.58 258.197C780.057 256.779 778.082 256 776.002 256C773.922 256 771.947 256.779 770.43 258.191C769.059 259.469 768.174 261.162 767.91 262.996C764.951 264.291 763 267.238 763 270.496C763 275.008 766.668 278.676 771.18 278.676C772.568 278.676 773.922 278.324 775.123 277.662V286H776.881V277.662C778.082 278.324 779.436 278.676 780.824 278.676C785.336 278.676 789.004 275.008 789.004 270.496C789.004 267.238 787.059 264.291 784.1 263.002ZM780.824 276.918C779.389 276.918 778.006 276.438 776.881 275.564V270.186L780.824 268.111L780.004 266.553L776.881 268.193V264.73H775.123V272.084L772 270.443L771.18 272.002L775.123 274.076V275.559C773.998 276.438 772.615 276.912 771.18 276.912C767.641 276.918 764.758 274.041 764.758 270.496C764.758 267.789 766.469 265.357 769.018 264.449L769.557 264.256L769.598 263.688C769.721 262.076 770.441 260.582 771.625 259.48C772.82 258.367 774.373 257.758 776.002 257.758C777.631 257.758 779.184 258.367 780.379 259.48C781.562 260.588 782.283 262.082 782.406 263.688L782.447 264.256L782.986 264.449C785.535 265.357 787.246 267.789 787.246 270.496C787.246 274.041 784.369 276.918 780.824 276.918Z" fill="#4A7755"/>
<path d="M596.1 242.002C595.836 240.162 594.951 238.475 593.58 237.197C592.057 235.779 590.082 235 588.002 235C585.922 235 583.947 235.779 582.43 237.191C581.059 238.469 580.174 240.162 579.91 241.996C576.951 243.291 575 246.238 575 249.496C575 254.008 578.668 257.676 583.18 257.676C584.568 257.676 585.922 257.324 587.123 256.662V265H588.881V256.662C590.082 257.324 591.436 257.676 592.824 257.676C597.336 257.676 601.004 254.008 601.004 249.496C601.004 246.238 599.059 243.291 596.1 242.002ZM592.824 255.918C591.389 255.918 590.006 255.438 588.881 254.564V249.186L592.824 247.111L592.004 245.553L588.881 247.193V243.73H587.123V251.084L584 249.443L583.18 251.002L587.123 253.076V254.559C585.998 255.438 584.615 255.912 583.18 255.912C579.641 255.918 576.758 253.041 576.758 249.496C576.758 246.789 578.469 244.357 581.018 243.449L581.557 243.256L581.598 242.688C581.721 241.076 582.441 239.582 583.625 238.48C584.82 237.367 586.373 236.758 588.002 236.758C589.631 236.758 591.184 237.367 592.379 238.48C593.562 239.588 594.283 241.082 594.406 242.688L594.447 243.256L594.986 243.449C597.535 244.357 599.246 246.789 599.246 249.496C599.246 253.041 596.369 255.918 592.824 255.918Z" fill="#4A7755"/>
<path d="M535.1 137.002C534.836 135.162 533.951 133.475 532.58 132.197C531.057 130.779 529.082 130 527.002 130C524.922 130 522.947 130.779 521.43 132.191C520.059 133.469 519.174 135.162 518.91 136.996C515.951 138.291 514 141.238 514 144.496C514 149.008 517.668 152.676 522.18 152.676C523.568 152.676 524.922 152.324 526.123 151.662V160H527.881V151.662C529.082 152.324 530.436 152.676 531.824 152.676C536.336 152.676 540.004 149.008 540.004 144.496C540.004 141.238 538.059 138.291 535.1 137.002ZM531.824 150.918C530.389 150.918 529.006 150.438 527.881 149.564V144.186L531.824 142.111L531.004 140.553L527.881 142.193V138.73H526.123V146.084L523 144.443L522.18 146.002L526.123 148.076V149.559C524.998 150.438 523.615 150.912 522.18 150.912C518.641 150.918 515.758 148.041 515.758 144.496C515.758 141.789 517.469 139.357 520.018 138.449L520.557 138.256L520.598 137.688C520.721 136.076 521.441 134.582 522.625 133.48C523.82 132.367 525.373 131.758 527.002 131.758C528.631 131.758 530.184 132.367 531.379 133.48C532.562 134.588 533.283 136.082 533.406 137.688L533.447 138.256L533.986 138.449C536.535 139.357 538.246 141.789 538.246 144.496C538.246 148.041 535.369 150.918 531.824 150.918Z" fill="#4A7755"/>
<path d="M511.1 -1.99805C510.836 -3.83789 509.951 -5.52539 508.58 -6.80273C507.057 -8.2207 505.082 -9 503.002 -9C500.922 -9 498.947 -8.2207 497.43 -6.80859C496.059 -5.53125 495.174 -3.83789 494.91 -2.00391C491.951 -0.708984 490 2.23828 490 5.49609C490 10.0078 493.668 13.6758 498.18 13.6758C499.568 13.6758 500.922 13.3242 502.123 12.6621V21H503.881V12.6621C505.082 13.3242 506.436 13.6758 507.824 13.6758C512.336 13.6758 516.004 10.0078 516.004 5.49609C516.004 2.23828 514.059 -0.708984 511.1 -1.99805ZM507.824 11.918C506.389 11.918 505.006 11.4375 503.881 10.5645V5.18555L507.824 3.11133L507.004 1.55273L503.881 3.19336V-0.269531H502.123V7.08398L499 5.44336L498.18 7.00195L502.123 9.07617V10.5586C500.998 11.4375 499.615 11.9121 498.18 11.9121C494.641 11.918 491.758 9.04102 491.758 5.49609C491.758 2.78906 493.469 0.357422 496.018 -0.550781L496.557 -0.744141L496.598 -1.3125C496.721 -2.92383 497.441 -4.41797 498.625 -5.51953C499.82 -6.63281 501.373 -7.24219 503.002 -7.24219C504.631 -7.24219 506.184 -6.63281 507.379 -5.51953C508.562 -4.41211 509.283 -2.91797 509.406 -1.3125L509.447 -0.744141L509.986 -0.550781C512.535 0.357422 514.246 2.78906 514.246 5.49609C514.246 9.04102 511.369 11.918 507.824 11.918Z" fill="#4A7755"/>
</g>
</svg>
